CoelacanthItalicHairline.sfdir
StartChar: exclam
Encoding: 33 33 241
Width: 266
VWidth: 1159
Flags: HW
LayerCount: 2
Back
SplineSet
135 208 m 1
 123.246067454 210.417657898 l 1
 217.246067454 667.417657898 l 1
 229 665 l 1
 240.753932546 662.582342102 l 1
 146.753932546 205.582342102 l 1
 135 208 l 1
EndSplineSet
Fore
SplineSet
123.46484375 209 m 17
 149.685546875 339 170.134659508 438.019281006 189.831054688 533 c 0
 199.538754966 579.812847926 205.05859375 606 214.375 654 c 1
 221.23828125 664 241.455078125 680 240.678710938 661 c 1
 233.971679688 625 227.746315266 602.195740294 213.831054688 533 c 0
 188.549804688 407.28515625 175.244140625 342 147.279296875 208 c 9
 123.46484375 209 l 17
EndSplineSet
Refer: 405 46 N 1 0 0.0349208 1 44.5253 0 2
Position2: "cpsp-1" dx=0 dy=0 dh=50 dv=100
Substitution2: "pcap-1" exclam.pcap
Substitution2: "smcp-1" exclam.smcp
EndChar
StartChar: ampersand
Encoding: 38 38 146
Width: 758
VWidth: 1159
UnlinkRmOvrlpSave: 1
Flags: HW
LayerCount: 2
Back
SplineSet
492.592196824 672.553710938 m 0
 492.592196824 679.009107945 498.131224605 684.551357864 504.58984375 684.551357864 c 0
 510.884254458 684.551357864 516.254169428 679.311528323 516.571359901 673.178007937 c 0
 516.739272365 669.931080281 516.822134411 666.689116024 516.822134411 663.452378594 c 0
 516.822134411 581.085483447 463.162698664 502.103353769 391.906417141 430.847072246 c 0
 295.844666609 334.785321715 171.725803304 255.066100036 75.2356441177 191.376555495 c 1
 79.101394194 141.149282593 97.0969904437 98.1198761149 127.626954355 67.5899122037 c 0
 159.070323953 36.1465426058 205.285584779 15.9825985405 269.525390625 15.9825985405 c 0
 330.198751905 15.9825985405 385.632516768 46.846864868 433.18970006 94.4040481601 c 0
 497.299484982 158.513833082 545.782788685 252.133187731 570.934016921 332.582652809 c 1
 562.787473312 341.49927667 554.780724258 350.19770457 546.838108674 358.140320177 c 0
 523.315390911 381.66303794 501.352456196 397.004306199 479 397.004306199 c 0
 474.633243997 397.004306199 466.261540015 393.360271971 458.04058209 385.139314046 c 0
 445.799899955 372.898631911 435.995693801 353.27209632 435.995693801 336 c 0
 435.995693801 299.0830602 445.748410078 277.597849982 454.20635447 268.442124854 c 0
 456.325028608 266.148660019 457.384365676 263.22667376 457.384365676 260.3046875 c 0
 457.384365676 253.849290492 451.845337895 248.307040574 445.38671875 248.307040574 c 0
 442.145369074 248.307040574 438.861072709 249.68400623 436.56708303 252.167250146 c 0
 422.301537702 267.609703509 412.000399949 295.192217651 412.000399949 336 c 0
 412.000399949 361.584137138 424.964337715 386.004195169 441.070019342 402.109876795 c 0
 451.697086645 412.736944098 464.639632475 420.999600051 479 420.999600051 c 0
 512.512456442 420.999600051 539.535023277 399.384531071 563.808671423 375.110882925 c 0
 582.224527395 356.695026953 599.946709014 335.531705593 618.248782876 317.229631731 c 0
 644.24458349 291.233831117 669.853129886 272.995693801 698 272.995693801 c 0
 707.661773383 272.995693801 715.175486119 276.219318473 720.581238117 281.62507047 c 0
 726.464358039 287.508190393 730.592196824 296.840333345 730.592196824 309.954101562 c 0
 730.592196824 335.252838943 725.773962555 354.835839189 715.967464157 376.587353164 c 0
 715.261556768 378.153106179 714.908603074 379.839736683 714.908603074 381.526367187 c 0
 714.908603074 387.981764195 720.447630855 393.524014114 726.90625 393.524014114 c 0
 731.662182312 393.524014114 736.069696612 390.403210448 737.845035843 386.465381211 c 0
 748.720117199 362.343673901 754.587490676 338.554744048 754.587490676 309.954101562 c 0
 754.587490676 291.695005588 748.667880482 275.770587339 737.551800865 264.654507722 c 0
 727.323723068 254.426429925 713.323732327 249.000399949 698 249.000399949 c 0
 653.13192953 249.000399949 617.572366046 282.630052606 589.593853976 312.329136006 c 1
 562.54189274 231.93698702 514.605767057 141.87898966 450.160262809 77.4334854116 c 0
 399.866845687 27.1400682898 338.794108065 -8.0126953125 269.525390625 -8.0126953125 c 0
 200.09151678 -8.0126953125 147.091977231 14.1837638303 110.656391606 50.6193494552 c 0
 70.5442284038 90.7315126578 50.451171875 148.118372286 50.451171875 212.216796875 c 0
 50.451171875 311.0179874 99.1559365 405.985015312 159.419777812 466.248856623 c 0
 198.676225867 505.505304679 243.701073634 531.217373489 285.975585938 531.217373489 c 0
 301.020015832 531.217373489 314.055266078 524.627692308 323.91269399 514.770264396 c 0
 340.841491336 497.84146705 349.547451614 471.461361883 349.547451614 444.801757812 c 0
 349.547451614 437.693343349 349.182623844 430.227139086 348.405982487 422.399475384 c 1
 357.516209686 430.784222586 366.378776957 439.260557708 374.935854393 447.817634995 c 0
 444.861263314 517.743043916 492.819989718 591.887088952 492.819989718 663.704584398 c 0
 492.819989718 666.658620015 492.592196824 669.606627301 492.592196824 672.553710938 c 0
285.975585938 507.222079636 m 0
 253.579880973 507.222079636 213.174285446 486.062238761 176.39034056 449.278293875 c 0
 121.720649578 394.608602892 76.9568990933 308.029851474 74.5484459772 219.676104838 c 1
 147.740310501 267.910833519 240.235269714 328.794327161 320.221571121 397.386250191 c 1
 323.977127877 415.140088235 325.552157617 430.92227339 325.552157761 444.801757812 c 0
 325.552157761 466.376157721 317.878870049 486.86296284 306.942131242 497.799701648 c 0
 300.689167136 504.052665754 293.77468056 507.222079636 285.975585938 507.222079636 c 0
EndSplineSet
Fore
SplineSet
67 216 m 1
 348.425424802 389.749170118 502 550 492 667 c 1
 491.465497972 671.666666667 512.210101136 685.84991611 516 681 c 1
 532.476701367 513.003184713 327.576457481 355.051460034 71 188 c 1
 67 216 l 1
455.474609375 247.012695312 m 3
 437.822077067 247.012695312 420 278.077748595 420 333 c 3
 420 379.299000103 461.249403765 417 487 417 c 3
 568.226948774 417 623.768176634 273 694 273 c 3
 720.018081217 273 731 280.975635104 731 319 c 0
 731 334.453445827 723.132905508 364.172063854 708.798828125 393 c 1
 716.455698571 396.5 721.919301429 396.5 729.576171875 400 c 1
 750.197265625 368.922851562 758.300083538 340.714464814 752.46875 299 c 0
 746.379590256 255.441174523 721.588825982 249 693 249 c 3
 612.86036612 249 553.264843402 393 488 393 c 3
 471.024216901 393 443.807617188 362.857700893 443.807617188 333 c 3
 443.807617188 284.985192109 458.08417582 266.691444431 468 260 c 1
 467.363954204 255.113431489 459.430719363 247.012695312 455.474609375 247.012695312 c 3
315.525390625 376.987304688 m 1
 339.654856951 463.479596035 314.993051673 507.255859375 285.748046875 507.255859375 c 3
 192.601659146 507.255859375 74 351.002197002 74 213 c 3
 74 94.7034024194 146.383096891 16 270 16 c 3
 403.481912682 16 523.132764525 171.569273071 574 343 c 1
 593 323 l 1
 536.015540767 142.906016416 409.330377917 -8.0126953125 269.525390625 -8.0126953125 c 3
 123.64504909 -8.0126953125 50.451171875 89.878492517 50.451171875 212.216796875 c 3
 50.451171875 385.290516015 191.216386338 531.217773438 284.975585938 531.217773438 c 3
 322.715659348 531.217773438 368.652942158 484.795898438 342 397 c 1
 315.525390625 376.987304688 l 1
EndSplineSet
Position2: "cpsp-1" dx=0 dy=0 dh=50 dv=100
Substitution2: "smcp-1" ampersand.smcp
Substitution2: "pcap-1" ampersand.pcap
EndChar
StartChar: asterisk
Encoding: 42 42 162
Width: 362
VWidth: 1159
Flags: HW
LayerCount: 2
Back
SplineSet
401 609.997646926 m 0
 407.455397008 609.997646926 412.997646926 604.458619145 412.997646926 598 c 0
 412.997646926 592.809835237 409.355001763 588.172797681 404.893755941 586.648068096 c 2
 246.893755941 532.648068096 l 2
 245.634213057 532.217591414 244.317106529 532.002353074 243 532.002353074 c 0
 242.029890478 532.002353074 241.059780956 532.11911987 240.112672496 532.352653463 c 2
 94.1126724961 568.352653463 l 2
 89.1299321367 569.581274373 85.0023530735 574.433032352 85.0023530735 580 c 0
 85.0023530735 586.455397008 90.5413808551 591.997646926 97 591.997646926 c 0
 97.9701095218 591.997646926 98.9402190436 591.88088013 99.8873275039 591.647346537 c 2
 242.450292644 556.494834585 l 1
 397.106244059 609.351931904 l 2
 398.365786943 609.782408586 399.682893471 609.997646926 401 609.997646926 c 0
332.997646926 418 m 0
 332.997646926 411.544602992 327.458619145 406.002353074 321 406.002353074 c 0
 316.869618221 406.002353074 312.82147324 408.409051669 310.79171859 411.687886104 c 2
 232.79171859 537.687886104 l 2
 231.598808246 539.614895122 231.002353074 541.807447561 231.002353074 544 c 0
 231.002353074 544.42229214 231.02447912 544.844584281 231.068731214 545.264979171 c 2
 247.068731214 697.264979171 l 2
 247.680689601 703.078583845 252.898236398 707.997646926 259 707.997646926 c 0
 265.455397008 707.997646926 270.997646926 702.458619145 270.997646926 696 c 0
 270.997646926 695.57770786 270.97552088 695.155415719 270.931268786 694.735020829 c 2
 255.362545429 546.832148941 l 1
 331.20828141 424.312113896 l 2
 332.401191754 422.385104878 332.997646926 420.192552439 332.997646926 418 c 0
243 555.997646926 m 0
 249.455397008 555.997646926 254.997646926 550.458619145 254.997646926 544 c 0
 254.997646926 541.35425846 254.129141247 538.708516921 252.392129888 536.529357216 c 2
 142.392129888 398.529357216 l 2
 140.193874605 395.771546042 136.566419223 394.002353074 133 394.002353074 c 0
 126.544602992 394.002353074 121.002353074 399.541380855 121.002353074 406 c 0
 121.002353074 408.64574154 121.870858753 411.291483079 123.607870112 413.470642784 c 2
 233.607870112 551.470642784 l 2
 235.806125395 554.228453958 239.433580777 555.997646926 243 555.997646926 c 0
EndSplineSet
Fore
SplineSet
242 524 m 1
 202 474 185 452 142 399 c 1
 133.080664686 397.893617021 122.618832765 407.021276596 122 412 c 1
 166 467 180 483 221.724609375 537 c 1
 169.406434906 550.333333333 157.498938557 552.777777778 93 569 c 1
 90.5496976276 575.837837838 100.65669096 588.324324324 105 591 c 1
 164 576 179 571 232.822265625 559 c 1
 237.829677378 616.277372263 240.360912201 629.868613139 246.34765625 692 c 1
 254 702 269 698 270.162109375 691 c 1
 264.241225938 628.910447761 262.720046179 618.23880597 257.1953125 561 c 1
 314.975637145 580.846153846 335.482989767 588.038461538 398 610 c 1
 406.166755008 606.824324324 410 595 405 587 c 1
 350 568 320 558 261.283203125 538 c 1
 291.624326788 487.495652174 301.006745928 473.752212389 336 417 c 1
 334.334054727 411.090909091 321.689913568 404 315 404 c 1
 285.376811594 453.473684211 265.275362319 486.105263158 242 524 c 1
EndSplineSet
EndChar
StartChar: four
Encoding: 52 52 266
Width: 439
VWidth: 1159
Flags: HW
LayerCount: 2
Back
SplineSet
235.999585853 23.995293853 m 1
 235.999585853 0 l 1
 221.2578125 0 l 1
 143.779699112 0.0293339513734 l 2
 35.268776657 0.0293339513734 -2.80484546839 -1.01131928955 -29.2877326966 -9.22372021217 c 1
 -88.2359199593 -33.1134297804 l 1
 -51.0955502065 1.85429204039 -14.0080494432 36.5132006783 23.4954123812 71.8635734363 c 0
 87.2286843252 133.709864412 182.031002228 228.784115596 253.507821698 300.260935065 c 0
 300.273885161 347.026998529 337.219238238 390.434383697 353.478203782 413.117542818 c 1
 373.000311843 399.151988432 l 1
 368.596569305 393.008252383 362.956205034 385.662834576 356.22677459 377.354901473 c 1
 323.455001352 240.443187375 306.247747211 160.892438297 276.207733856 31.116438136 c 1
 252.833281769 36.557389989 l 0
 278.726035144 148.416793194 295.547155994 225.185474961 322.107220757 337.616905443 c 1
 285.976441927 297.495463465 243.762911779 256.678848266 203.685205387 216.643285852 c 0
 145.873931931 158.892804224 85.7453603067 98.8262216619 40.1407526726 54.5735733916 c 0
 29.6021808758 44.6359080393 19.0596625824 34.7021891836 8.51958507692 24.7660295399 c 2
 8.50472180585 24.7520431107 l 2
 7.23829271824 23.5623279711 5.99344434901 22.3943759475 4.77119957826 21.2488793078 c 1
 33.8775150697 23.9173417112 74.9345484337 24.0246260713 143.788853889 24.0246260713 c 2
 221.2578125 23.995293853 l 1
 235.999585853 23.995293853 l 1
294.795898438 1.12735307351 m 0
 286.448483866 1.12735307351 278.63161804 1.06530021683 270.507634527 1.01964460103 c 1
 255.696329129 -72.7624132752 242.242194493 -151.102115234 239.486929079 -188.350931074 c 1
 233.824161976 -191.494538757 l 2
 204.095788274 -207.997838693 187.869073494 -220.814837496 169.765511399 -243.719060776 c 1
 150.919899975 -228.855068922 l 1
 169.423011681 -205.44534438 188.351662175 -189.898255318 216.59542982 -173.657215527 c 1
 220.569200738 -133.00960874 237.114868104 -42.5914159035 250.878099633 24.9528716715 c 1
 265.752273636 24.9852829291 279.857635835 25.1226469265 294.795898438 25.1226469265 c 0
 314.610762084 25.1226469265 336.902436087 24.9073098219 356.037447958 21.1603722802 c 1
 366.587514654 38.8802552442 378.137883943 58.9379672428 385.581491462 71.9590470577 c 1
 406.421283985 60.045808023 l 1
 396.653456462 42.9589772816 380.074682306 14.4931681423 367.41742737 -6.50929622041 c 1
 358.621551636 -4.07243523056 l 2
 342.516828672 0.389311653015 317.394341147 1.12735307351 294.795898438 1.12735307351 c 0
EndSplineSet
Fore
SplineSet
251 25 m 1
 275.68394721 137.293103448 312.721588946 296.32761578 322 337 c 1
 322 337 119 128 6 22 c 1
 251 25 l 1
380.720703125 409.5 m 1
 360 382 356.562533803 378.739841999 354 368 c 0
 322.724429309 236.920875421 309.283464904 173.633558896 275 25 c 1
 359 26 348 10 394.834960938 81 c 1
 394.834960938 81 409.797851562 74.33984375 414 72 c 1
 414 72 386.104402931 23.8096989329 366.831054688 -7 c 1
 345.82421875 2.591796875 298.24609375 1.060546875 270.461914062 1 c 1
 254.692219033 -77.1698731821 240.683033903 -161.793060726 240 -188 c 1
 202.384750452 -208.76369863 188 -220 162.793945312 -252.5 c 1
 162.793945312 -252.5 146.483361572 -240.73386102 144.666992188 -235.5 c 1
 231 -132 200 -250 245.2578125 0 c 1
 41.0114007597 0 -16.0533984039 0.823529411765 -37.20703125 -14 c 1
 -37.20703125 -14 -46.9263764291 -0.646533203125 -50.130859375 3 c 1
 -32.3884804801 19 334 368 359.829101562 422.299804688 c 1
 380.720703125 409.5 l 1
EndSplineSet
Substitution2: "dnom-1" four.denom
Substitution2: "numr-1" four.numerator
Substitution2: "tnum-1" four.tabulartext
Substitution2: "lnum-1" four.proportionallining
EndChar
StartChar: E
Encoding: 69 69 1264
Width: 608
VWidth: 1159
Flags: HW
AnchorPoint: "Ogonek" 479.399 23 basechar 0
AnchorPoint: "Bottom" 264.333 -15 basechar 0
AnchorPoint: "Top" 405.636 699 basechar 0
LayerCount: 2
Back
SplineSet
487.755676296 259.952524857 m 1
 463.786194728 261.069480443 l 1
 466.795063098 325.638757711 474.267567404 382.317487786 490.445946384 438.092955813 c 1
 513.48859168 431.378502593 l 0
 497.978960937 377.908565052 490.70960525 323.342821217 487.755676296 259.952524857 c 1
487.688212928 -0.060723998575 m 0
 403.266377644 -0.060723998575 314.622284371 2.51808694734 230.47372353 2.51808694734 c 0
 155.445864769 2.51808694734 86.1264218267 0.374785638667 29.5844865487 -7.88817653131 c 1
 26.0913345706 15.853340659 l 1
 56.8511350367 20.348536417 90.7749422474 23.0600956006 126.966934083 24.6228195945 c 1
 104.272668849 29.5409766291 l 1
 240.272162208 660.896288863 l 1
 212.632613007 661.53787691 188.419519349 662.789328152 169.813345344 664.893370865 c 1
 172.50974722 688.737811949 l 1
 200.337436584 685.59097225 244.00294829 684.342933913 292.96650746 684.342933913 c 0
 361.073336466 684.342933913 439.135689953 686.832584734 497.690090497 690.34720926 c 0
 525.079391864 691.991203723 546.751440912 693.787579544 563.923934574 695.780929483 c 0
 574.17857892 696.971268817 578.635537561 697.810496177 586.755205492 699.417910691 c 1
 591.125453763 692.301562143 l 2
 594.080891532 687.489038009 595.405114067 681.583087803 595.405114067 676.900794405 c 0
 595.405114067 665.829493512 590.88006227 650.80950981 581.565092116 619.191851183 c 0
 576.043716092 600.450730235 568.867875614 576.093677542 560.030056671 543.802920636 c 1
 536.888792945 550.167489797 l 0
 545.787127941 582.679354329 553.027131661 607.254386517 558.550633603 626.002723435 c 0
 565.642969071 650.076127644 569.452811572 665.117096629 570.818161997 672.425748128 c 1
 550.407987697 670.006913539 529.096009884 668.19348656 499.138566318 666.395343895 c 0
 440.000798786 662.845703796 361.659365444 660.34764006 292.96650746 660.34764006 c 0
 283.322472834 660.34764006 273.884711976 660.392777259 264.727331151 660.459023371 c 1
 201.302748535 366.020815024 l 1
 467.955715922 366.99756582 l 1
 468.044284078 343.00243418 l 1
 196.129834365 342.006410554 l 1
 127.770040069 24.6572925088 l 1
 160.388945911 26.0491682651 194.841511932 26.5133808003 230.47372353 26.5133808003 c 0
 314.710654665 26.5133808003 403.347853359 23.9345345765 487.646909334 23.9345345765 c 2
 493.872478101 23.9451692496 l 1
 515.920692782 76.644385342 534.725289103 115.666938789 556.969818139 166.832424899 c 1
 578.977137039 157.247428893 l 1
 554.696156785 101.397823989 534.020720402 58.2174657873 509.913985116 -0.022757375828 c 1
 502.505394386 -0.0354129167437 495.096803657 -0.0480684576593 487.688212928 -0.060723998575 c 0
EndSplineSet
Fore
SplineSet
182.188476562 688 m 1
 202.694525049 685.394999765 240.30927148 684.342773438 282.966796875 684.342773438 c 0
 403.04474668 684.342773438 554.724279286 692.409467671 569.671875 700 c 1
 576.155449824 691.477155005 579.405273438 685.916753053 579.405273438 676.900390625 c 0
 579.405273438 659.245863012 566.945169112 628.340993493 541.904296875 536 c 1
 518.983398438 540 l 1
 535.460884905 613.8 560.018250197 659.013921702 547 668 c 0
 539.272675831 673.333922683 445.055213662 661.088867188 376.966796875 661.088867188 c 0
 355.842579077 661.088867188 295.775293271 661.638819519 278.102539062 660 c 0
 266.050021051 658.882352941 255.306245683 661.364534068 251 641 c 0
 231.041401785 546.61440678 208.65299401 452.228813559 191.172851562 366 c 1
 248.835479377 366 433.838503304 366.655602676 445.094726562 367 c 0
 460.180798735 367.461576034 453.113395731 373.564636926 472.84375 430 c 1
 496 424 l 1
 487.654544971 396.184000561 483.406934401 368.435788939 478.741210938 341 c 0
 475.066782967 319.39331219 473.104771619 297.775918644 472 276 c 1
 448.235351562 274 l 1
 449.158155527 335.039716312 460.901294517 343 441.247070312 343 c 0
 401.212373314 343 270.782816582 343 186.116210938 342 c 1
 163.224274748 231.428251379 141.207491359 132.563142674 124.819335938 57 c 0
 117.972774116 25.4316071878 115.584633897 23.7565468033 145.657226562 25 c 0
 188.214970687 26.7596940698 274.299954984 26.482421875 310.301757812 26.482421875 c 0
 444.421458445 26.482421875 468.586374214 21.0230595997 474 27 c 0
 478.930070497 32.4430687851 482.932999853 38.3505079136 530.842773438 146 c 1
 554 140 l 1
 530.459398945 84 514.385136048 51.0588235294 493.940429688 0 c 1
 402.591672954 -0.524629988454 307.705357337 2.5185546875 220.473632812 2.5185546875 c 0
 150.692762053 2.5185546875 86.6215490719 0.605473399186 36 -7 c 1
 35.0576171875 18 l 1
 69.9818249291 24.1428571429 89.720134137 18 96.9501953125 43 c 1
 107.453125 83.5439453125 138.626930144 238.985141157 165.107421875 359 c 0
 189.385742188 469.034179688 220.619161134 602.665171807 225.7578125 644 c 0
 228.231811631 663.900616285 222.132600622 659.727272727 176 664 c 1
 182.188476562 688 l 1
EndSplineSet
Position2: "cpsp-1" dx=0 dy=0 dh=50 dv=100
Substitution2: "c2pc-1" e.pcap
Substitution2: "c2sc-1" e.smcp
EndChar
StartChar: P
Encoding: 80 80 1310
Width: 607
VWidth: 1159
Flags: HW
AnchorPoint: "Top" 476.205 699 basechar 0
AnchorPoint: "Bottom" 79.8721 -15 basechar 0
LayerCount: 2
Back
SplineSet
310.545898438 274 m 7xd6
 431.37892081 274 542.881078136 355.085021946 568.7578125 482 c 0
 583.068774959 551.407920339 560.177271271 625.250200492 478.955078125 656 c 0
 399.808788619 686.446289062 345.241277489 657 269.955078125 657 c 3
 267.955078125 657 265.494246241 656.049697848 263.6171875 646 c 4xda
 249.129882813 568.435546875 221.327148438 428.223632812 195.947265625 290 c 1
 238.12109375 272 253.545898438 274 310.545898438 274 c 7xd6
178.907226562 685 m 5xea
 204.481445312 683 216.056640625 681 255.056640625 681 c 3
 326.056640625 681 335.39453125 692 406.39453125 692 c 3
 551.193298839 692 613.205470858 586.904497414 592.7578125 482 c 0
 566.054198602 345 456.751978855 250 305.444335938 250 c 3
 247.444335938 250 237.01953125 248 190.420898438 264 c 1
 171.760742188 176.212890625 157.961463549 106.587986385 144.020507812 41 c 0
 139.073242188 17.724609375 142.037109375 26.9658203125 224.70703125 16 c 1
 213.60546875 -8 l 1
 182.880859375 -2 161.305664062 0 137.305664062 0 c 3
 115.305664062 0 92.7822265625 -2.4619140625 60.60546875 -8 c 1
 59.494140625 15 l 1
 117.091796875 27.22265625 114.369841836 14.417050714 121.083007812 46 c 0
 132.899414062 101.591796875 146.649383826 166.279303302 160.043945312 234 c 4xd6
 186.694101045 368.738797913 216.501889498 532.551002353 238.6171875 646 c 0
 240.96450075 658.041453629 262.955078125 657 171.380859375 659 c 1
 178.907226562 685 l 5xea
EndSplineSet
Fore
SplineSet
310.545898438 274 m 3
 431.37892081 274 542.880859375 347.084960938 568.7578125 474 c 0
 583.068359375 543.408203125 560.177271271 625.250200492 478.955078125 656 c 0
 399.808788619 686.446289062 345.241277489 657 269.955078125 657 c 3
 267.955078125 657 265.494246241 656.049697848 263.6171875 646 c 0
 249.129882813 568.435546875 221.327148438 428.223632812 195.947265625 290 c 1
 238.12109375 272 253.545898438 274 310.545898438 274 c 3
178.907226562 685 m 1
 204.481445312 683 232 681 255.056640625 681 c 3
 326.056640625 681 335.39453125 692 406.39453125 692 c 3
 551.193298839 692 613.205078125 578.904296875 592.7578125 474 c 0
 566.053710938 337 456.751978855 250 305.444335938 250 c 3
 247.444335938 250 237.01953125 248 190.420898438 264 c 1
 171.760742188 176.212890625 157.961463549 106.587986385 144.020507812 41 c 0
 139.073242188 17.724609375 142.037109375 26.9658203125 224.70703125 16 c 1
 213.60546875 -8 l 1
 182.880859375 -2 161.305664062 0 137.305664062 0 c 3
 115.305664062 0 92.7822265625 -2.4619140625 60.60546875 -8 c 1
 59.494140625 15 l 1
 117.091796875 27.22265625 114.369841836 14.417050714 121.083007812 46 c 0
 132.899414062 101.591796875 146.649383826 166.279303302 160.043945312 234 c 0
 186.694101045 368.738797913 216.501889498 532.551002353 238.6171875 646 c 0
 240.96450075 658.041453629 244.955078125 657 171.380859375 659 c 1
 178.907226562 685 l 1
EndSplineSet
Position2: "cpsp-1" dx=0 dy=0 dh=50 dv=100
Substitution2: "c2pc-1" p.pcap
Substitution2: "c2sc-1" p.smcp
EndChar
StartChar: W
Encoding: 87 87 1345
Width: 884
VWidth: 1159
Flags: HW
AnchorPoint: "Top" 544 699 basechar 0
AnchorPoint: "Bottom" 370 -15 basechar 0
LayerCount: 2
Back
SplineSet
938 659.997646926 m 0
 944.455397008 659.997646926 949.997646926 654.458619145 949.997646926 648 c 0
 949.997646926 645.787735046 949.390418479 643.575470093 948.175961583 641.635975386 c 0
 750.095872842 325.300924687 649.930494618 168.744385186 598.084600077 87.7117509034 c 0
 577.122179782 54.9484983361 571.736359358 45.0613908157 555.06920447 21.2553119563 c 0
 547.749895497 10.8009754027 541.185156983 0.906388493633 534.598148222 -11.6547527694 c 1
 511.267845944 -26.2713276911 l 1
 512.019454019 -15.1695340294 513.149814011 -4.72865628141 513.149814011 6.9345703125 c 0
 513.149814011 25.4940177318 512.092565331 38.561451816 511.999561761 57.9997744497 c 2
 509.999626017 475.998739295 l 1
 328.41949894 172.07050324 266.027358826 66.6871628254 241.999624454 23.0000569378 c 0
 231.079450562 3.145051644 226.598631308 -6.08464478157 219.895263926 -20.9666796213 c 1
 213.381329659 -20.9943548936 206.552624459 -21.0233675099 199.981116467 -21.0512873914 c 1
 200.065128246 -0.00569474527283 200.150552718 11.2221975291 200.150552718 35.7645192442 c 0
 200.150552718 42.2199162522 205.689580499 47.7621661707 212.148199644 47.7621661707 c 0
 217.462223547 47.7621661707 222.167819637 43.9646984527 223.604835149 39.3371769794 c 1
 249.865278557 86.5409043837 313.933371956 194.626851062 489.388483797 488.303054305 c 0
 499.915578462 505.923271577 510.442673126 523.543488849 520.96976779 541.163706122 c 1
 516.060356212 542.437521114 512.000399949 547.258492819 512.000399949 552.775390625 c 0
 512.000399949 555.316080729 512.000399949 557.856770833 512.000399949 560.397460938 c 0
 512.000399949 588.955023205 511.472079636 605.718158286 511.472079636 616.760742188 c 0
 511.472079636 623.216139195 517.011107418 628.758389114 523.469726562 628.758389114 c 0
 529.780472312 628.758389114 535.166469926 623.489477085 535.454227841 617.324358939 c 0
 535.995446195 605.728934695 535.995693801 588.550743511 535.995693801 560.397460938 c 0
 535.995693801 557.856770833 535.995693801 555.316080729 535.995693801 552.775390625 c 0
 535.995693801 550.271407889 535.217763853 547.767425153 533.661903955 545.658972544 c 1
 535.994578864 58.1154599253 l 2
 536.033331077 50.016008729 536.22498456 43.0991590645 536.442652415 36.5030707054 c 1
 540.44380718 42.2233353104 544.449724502 48.0072153154 548.634568756 54.7065835893 c 0
 554.981203444 64.8666852557 564.115471032 79.1588608308 577.856806173 100.635905347 c 0
 629.689107406 181.647293944 729.778479245 338.084117838 927.824038417 654.364024614 c 0
 929.860423061 657.616142703 933.89459691 659.997646926 938 659.997646926 c 0
115.663207577 676.269680953 m 0
 115.663207577 682.725077961 121.202235358 688.26732788 127.660854503 688.26732788 c 0
 128.438505968 688.26732788 129.216157433 688.192295656 129.981961021 688.042231207 c 0
 149.357598352 684.245442616 179.268917835 682.606045364 210.604492188 682.606045364 c 0
 245.117970057 682.606045364 281.175341329 684.692199804 306.109827154 688.180054925 c 0
 306.664681239 688.257668343 307.223942182 688.296475051 307.783203125 688.296475051 c 0
 314.238600133 688.296475051 319.780850051 682.75744727 319.780850051 676.298828125 c 0
 319.780850051 670.322595433 315.058981568 665.201269707 309.456579096 664.417601325 c 0
 282.797082848 660.688450415 246.109973061 658.610751511 210.604492188 658.610751511 c 0
 178.404947614 658.610751511 147.689127178 660.117617061 125.339747986 664.497130699 c 0
 120.076404199 665.528518895 115.663207577 670.498548041 115.663207577 676.269680953 c 0
225.586995556 84.3993752406 m 2
 225.586995556 77.9994823013 219.981750045 72.511142136 213.58984375 72.511142136 c 0
 207.134609566 72.511142136 201.591701722 78.0504387576 201.591701722 84.5087935435 c 2
 206.005777881 572.218788822 l 2
 206.063689058 578.617377994 211.571354959 584.107021926 218.002929688 584.107021926 c 0
 224.458163872 584.107021926 230.001071716 578.567725305 230.001071716 572.109370519 c 2
 225.586995556 84.3993752406 l 2
445.476962449 676.674804688 m 0
 445.476962449 683.130201695 451.01599023 688.672451614 457.474609375 688.672451614 c 0
 458.22073248 688.672451614 458.966855585 688.603380127 459.702514224 688.465237152 c 0
 482.212970529 684.238193206 510.209698782 681.843350051 539.823242188 681.843350051 c 0
 573.154122676 681.843350051 608.425079005 684.701470304 640.487047019 691.103999862 c 0
 641.266548824 691.259660405 642.058567381 691.337490676 642.850585938 691.337490676 c 0
 649.305982945 691.337490676 654.848232864 685.798462895 654.848232864 679.33984375 c 0
 654.848232864 673.585722094 650.456443487 668.622538535 645.214124856 667.575687638 c 0
 611.201999984 660.783726684 574.524841545 657.848056199 539.823242188 657.848056199 c 0
 508.909722677 657.848056199 479.645765123 660.302683607 455.246704526 664.884372223 c 0
 449.934868827 665.881835919 445.476962449 670.872788406 445.476962449 676.674804688 c 0
784.318759324 674.435546875 m 0
 784.318759324 680.890943883 789.857787105 686.433193801 796.31640625 686.433193801 c 0
 796.85786023 686.433193801 797.399314211 686.396818975 797.936769018 686.324069322 c 0
 819.769947697 683.368739575 847.405999984 681.772060989 878.328125 681.772060989 c 0
 912.60974367 681.772060989 951.687635881 684.561836144 990.454647623 690.766847463 c 0
 991.086488997 690.867979397 991.724885123 690.918545364 992.36328125 690.918545364 c 0
 998.818678258 690.918545364 1004.36092818 685.379517582 1004.36092818 678.920898438 c 0
 1004.36092818 673.018345401 999.751471996 667.952002154 994.271914877 667.074949412 c 0
 954.127120621 660.649411524 913.908571111 657.776767136 878.328125 657.776767136 c 0
 846.569481426 657.776767136 818.028472243 659.38875683 794.696043482 662.547024428 c 0
 789.067769798 663.308865152 784.318759324 668.440304051 784.318759324 674.435546875 c 0
EndSplineSet
Fore
SplineSet
975 693 m 1
 972 669 l 1
 921.924137931 660 935.928685045 668.091069878 835 496 c 0
 648.862883206 178.622085496 592.096583132 78.9725345654 569 42 c 0
 553.713867188 17.5302734375 543.451171875 7 533 -15 c 1
 511 -16 l 1
 515 2 512.179889555 18.5419931082 512 58 c 0
 511.370117188 196.162109375 510.629882812 337.837890625 510 476 c 1
 329.093567806 172.07421875 267.006739062 66.6486164765 243 23 c 0
 232 3 226 -9 221 -21 c 1
 200 -21 l 1
 201 -1 200.263661776 23.3870398877 201 89 c 0
 204 356.321285035 206.019260432 572.123877627 206 588 c 0
 205.914730674 658.286390129 206.412567215 658.613971631 185 659 c 0
 164.592322999 659.367912086 140.371490479 661.423258464 114 666 c 1
 119 690 l 1
 140.605942623 684.821289062 179.667097385 682.606445312 220.604492188 682.606445312 c 0
 258.20191677 682.606445312 297.74419225 685.428710938 321 690 c 1
 319 666 l 1
 283.264467593 660.166666667 262.120270412 660.936133794 239 659 c 0
 230.001959893 658.24648764 230.530085485 657.694061817 230 586 c 2
 226 45 l 1
 510 523 l 1
 510 619.6125 510 646.63125 508 654 c 1
 500.231884058 660 485.811950223 657.666666667 441 668 c 1
 450 690 l 1
 474.698865439 684.807617188 506.75047416 681.84375 540.823242188 681.84375 c 0
 575.845558722 681.84375 613.191185762 685.552734375 646 694 c 1
 643 670 l 1
 633.644067797 664 567.884363545 658.374333631 551 658 c 0
 534.92498753 657.643610032 533.840581645 654.593649425 534 609 c 2
 536 38 l 1
 662.166632594 249.162277667 851.406315619 571.487002308 887 639 c 0
 906.474452555 676 883.613138686 645 771 665 c 1
 778 688 l 1
 796.072283168 683.995117188 820.9494159 681.772460938 849.328125 681.772460938 c 0
 887.635593676 681.772460938 931.838678029 685.229492188 975 693 c 1
EndSplineSet
Position2: "cpsp-1" dx=0 dy=0 dh=50 dv=100
Substitution2: "c2pc-1" w.pcap
Substitution2: "c2sc-1" w.smcp
EndChar
StartChar: X
Encoding: 88 88 1346
Width: 729
VWidth: 1159
Flags: HW
AnchorPoint: "Top" 442.581 699 basechar 0
AnchorPoint: "Bottom" 314.524 -15 basechar 0
LayerCount: 2
Back
SplineSet
138.907226562 684 m 5x90
 183.481445312 682 207.26953125 681 237.26953125 681 c 3
 285.26953125 681 294.907226562 684 361.39453125 691 c 1
 357.505859375 668 l 1
 334.65625 664 297.177734375 657 244.16796875 657 c 0
 231.16796875 657 229.87890625 651.831054688 233.830078125 646 c 2
 398.801757812 373 l 1
 506.395507812 484 581.360351562 594.481445312 638.979492188 642 c 0
 642.6171875 645 646.505859375 653.56640625 640.530273438 654 c 0
 626.743164062 655 596.743164062 655 545.443359375 663 c 1
 553.119140625 685 l 1
 593.694335938 683 604.26953125 681 645.26953125 681 c 3
 689.26953125 681 724.694335938 683 768.756835938 688 c 1
 765.65625 664 l 1
 749.443359375 663 688.24609375 660.780273438 674.041992188 647 c 0
 651.366210938 625 582.598632812 532 410.55078125 353 c 1
 459.7421875 278.626953125 585.169921875 57.86328125 604.469726562 28 c 0
 610.254882812 22.2861328125 634.103515625 21.5712890625 669.34375 18 c 1
 661.455078125 -5 l 5x60
 633.1640625 -1.6669921875 603.518554688 0 560.518554688 0 c 3
 500.518554688 0 465.752929688 -3.599609375 422.60546875 -9 c 1
 424.70703125 15 l 1
 497.407226562 23 527.854492188 25.8388671875 547.256835938 27 c 0
 558.469726562 28 564.92578125 38.24609375 554.784179688 53 c 0
 513.815429688 114.309570312 469.100585938 214.447265625 391.51171875 334 c 1
 274.344726562 214.787109375 180.359375 102.245117188 112.107421875 31 c 0
 108.256835938 27 102.916992188 25.3779296875 116.83203125 25 c 0
 152.73828125 24 182.600585938 21 207.556640625 19 c 1
 201.455078125 -5 l 1
 156.194335938 -2 147.581054688 0 108.518554688 0 c 3
 69.5361328125 0 41.1533203125 -2 -1.9697265625 -7 c 1
 0.9189453125 16 l 1
 64.6884765625 24 67.6015625 22.1240234375 85.3828125 37 c 0
 108.379882812 56.8740234375 104.814453125 73.767578125 379.55078125 353 c 1
 277.646484375 504 218.799804688 620.384765625 202.979492188 642 c 0
 189.805664062 660 200.592773438 659 132.805664062 660 c 1
 138.907226562 684 l 5x90
EndSplineSet
Fore
SplineSet
138.907226562 684 m 1
 183.481445312 682 207.26953125 681 237.26953125 681 c 3
 285.26953125 681 294.907226562 684 361.39453125 691 c 1
 357.505859375 668 l 1
 334.65625 664 295.177734375 657 242.16796875 657 c 0
 229.16796875 657 227.87890625 651.831054688 231.830078125 646 c 2
 398.801757812 374 l 1
 497.395507812 485 594.360351562 594.481445312 634.979492188 642 c 0
 638.04296875 645.583984375 642.505859375 653.56640625 636.530273438 654 c 0
 622.743164062 655 596.743164062 655 545.443359375 663 c 1
 553.119140625 685 l 1
 593.694335938 683 604.26953125 681 645.26953125 681 c 3
 689.26953125 681 724.694335938 683 768.756835938 688 c 1
 765.65625 664 l 1
 713.443359375 658 688.24609375 660.780273438 674.041992188 647 c 0
 651.366210938 625 571.598632812 530 411.55078125 351 c 1
 456.7421875 276.626953125 583.169921875 57.86328125 604.469726562 28 c 0
 609.191319272 21.3801153062 634.103515625 21.5712890625 669.34375 18 c 1
 661.455078125 -5 l 1
 633.1640625 -1.6669921875 603.518554688 0 560.518554688 0 c 3
 500.518554688 0 465.752929688 -3.599609375 422.60546875 -9 c 1
 424.70703125 15 l 1
 497.407226562 23 529.854492188 25.8388671875 549.256835938 27 c 0
 560.469726562 28 565.4609375 37.33984375 556.784179688 53 c 0
 522.815429688 114.309570312 466.100585938 213.447265625 393.51171875 333 c 1
 281.344726562 213.787109375 184.359375 102.245117188 116.107421875 31 c 0
 112.256835938 27 106.916992188 25.3779296875 120.83203125 25 c 0
 156.73828125 24 182.600585938 21 207.556640625 19 c 1
 201.455078125 -5 l 1
 156.194335938 -2 147.581054688 0 108.518554688 0 c 3
 69.5361328125 0 41.1533203125 -2 -1.9697265625 -7 c 1
 0.9189453125 16 l 1
 64.6884765625 24 67.6015625 22.1240234375 85.3828125 37 c 0
 108.379882812 56.8740234375 125.814453125 76.767578125 379.55078125 356 c 1
 289.646484375 507 218.799804688 620.384765625 202.979492188 642 c 0
 189.805664062 660 200.592773438 659 132.805664062 660 c 1
 138.907226562 684 l 1
EndSplineSet
Position2: "cpsp-1" dx=0 dy=0 dh=50 dv=100
Substitution2: "c2pc-1" x.pcap
Substitution2: "c2sc-1" x.smcp
EndChar
StartChar: Z
Encoding: 90 90 1349
Width: 611
VWidth: 1159
Flags: HW
AnchorPoint: "Top" 413 699 basechar 0
AnchorPoint: "Bottom" 264.689 -15 basechar 0
LayerCount: 2
Back
SplineSet
102 563 m 1
 167.052631579 662 146.723684211 691 205 704 c 1
 220 687 254 681 286 681 c 0
 308.403361345 681 555.56302521 681 630 682 c 0
 642 682 651 681 656 681 c 1
 668 662 l 1
 648 640 l 0
 53 24 l 1
 163.827272727 24 276.172727273 24 387 24 c 0
 504.275449102 24 463.71257485 -12 563 149 c 1
 586 141 l 1
 537 57 517.147058824 24 488 -14 c 1
 469.637795276 -8 455.448818898 0 382 0 c 0
 264.767932489 0 75.3333333333 0 14 0 c 1
 9 15 l 1
 38 44 75 83 105 114 c 0
 278 292 455 475 625 652 c 0
 629 656 l 1
 283 657 l 2
 148.432835821 657 213.910642864 706 122 551 c 1
 102 563 l 1
EndSplineSet
Fore
SplineSet
102 563 m 1
 167.052631579 662 146.723684211 691 205 704 c 1
 220 687 254 681 286 681 c 0
 308.403361345 681 555.56302521 681 630 682 c 0
 642 682 651 681 656 681 c 1
 668 662 l 1
 648 640 l 0
 53 24 l 1
 163.827272727 24 276.172727273 24 387 24 c 0
 504.275449102 24 463.71257485 -12 563 149 c 1
 586 141 l 1
 537 57 517.147058824 24 488 -14 c 1
 469.637795276 -8 455.448818898 0 382 0 c 0
 264.767932489 0 75.3333333333 0 14 0 c 1
 9 15 l 1
 38 44 75 83 105 114 c 0
 278 292 455 475 625 652 c 0
 629 656 l 1
 283 657 l 2
 148.432835821 657 213.910642864 706 122 551 c 1
 102 563 l 1
EndSplineSet
Position2: "cpsp-1" dx=0 dy=0 dh=50 dv=100
Substitution2: "c2pc-1" z.pcap
Substitution2: "c2sc-1" z.smcp
EndChar
StartChar: c
Encoding: 99 99 177
Width: 361
VWidth: 1159
Flags: HMW
AnchorPoint: "Top" 263.838 465 basechar 0
AnchorPoint: "Bottom" 164.796 -15 basechar 0
LayerCount: 2
Back
SplineSet
281.654640446 63.2960908205 m 1
 289.989483967 54.6629926816 l 1
 260.495683173 26.1881380575 209.353676866 -8 158.665039062 -8 c 0
 109.695567442 -8 36.7329493617 23.6485430875 32.244140625 126.46484375 c 0
 32.0881243395 130.038401515 32.0075246015 133.608063671 32.0003384543 137.171993488 c 0
 31.7043079471 283.986680421 155.860364986 421 264.715820312 421 c 0
 310.326876708 421 348.878293047 390.184933847 362.06909107 356.636779544 c 1
 350.901338629 352.245731217 l 1
 339.733586187 347.85468289 l 1
 330.168032035 372.182755092 299.567145201 397 264.715820312 397 c 0
 173.823326893 397 55.7259976485 273.253989634 56.0002896662 137.220385906 c 0
 56.0068113754 133.985980446 56.0799507805 130.749270105 56.2213004622 127.511651346 c 0
 60.0842751439 39.0300987492 119.14668667 16 158.665039062 16 c 0
 198.832632339 16 246.299339197 45.8422288194 273.319796925 71.9291889595 c 1
 281.654640446 63.2960908205 l 1
EndSplineSet
Fore
SplineSet
342 342 m 1
 335 370 298.706514707 397 266 397 c 3
 167.816498331 397 51.963994185 265.998959194 56 127 c 0
 57.8002564124 64.9996513688 96.0555555556 16 159 16 c 3
 202.0464865 16 255.971174725 52.5714285714 284.310546875 80 c 1
 296.140625 61 l 1
 271.319335938 34 213.665039062 -8 158.665039062 -8 c 3
 109.627929688 -8 36.7365367992 23.5663727223 32.244140625 126.46484375 c 0
 25.6630859375 277.204101562 153.271484375 421 264.715820312 421 c 3
 311.694335938 421 351.920898438 388.5234375 363.728515625 352 c 1
 361.61470252 348.723410866 356.046997031 344.405229048 342 342 c 1
EndSplineSet
Substitution2: "case-1" C
Substitution2: "pcap-1" c.pcap
Substitution2: "smcp-1" c.smcp
EndChar
StartChar: d
Encoding: 100 100 196
Width: 434
VWidth: 1159
Flags: HMW
AnchorPoint: "TopRight" 523.011 581 basechar 0
AnchorPoint: "Top" 362.831 734 basechar 0
AnchorPoint: "Bottom" 193.533 -15 basechar 0
LayerCount: 2
Back
SplineSet
290.276093658 149.275370391 m 1
 299.74357699 141.901988578 l 1
 274.119140625 109 l 2
 229.663257821 51.9182781846 161.948076633 -9 122.270507812 -9 c 0
 65.6382272908 -9 29.353841498 37.7046469578 26.4736328125 103.672851562 c 0
 21.030417948 228.34406504 161.967406497 409 305.020507812 409 c 0
 322.496489971 409 342.662783826 397.281784491 349.15625 383 c 1
 338.232355406 378.033257918 l 1
 327.308460813 373.066515837 l 2
 326.33856592 375.199710876 312.381614099 385 305.020507812 385 c 0
 179.416414714 385 45.5899093581 216.053169523 50.4507905317 104.71970767 c 0
 53.0047201232 46.2245886563 82.0035344822 15 122.270507812 15 c 0
 143.748614748 15 211.46875374 67.6158019018 255.184173961 123.746763625 c 2
 280.808610325 156.648752203 l 1
 290.276093658 149.275370391 l 1
308.23270144 679.855566629 m 1
 304.636255665 691.303954192 l 1
 344.299188622 703.76383877 392.047211873 732.032548996 426.071647012 761.112422812 c 2
 449.244412594 780.917633284 l 1
 445.790904477 750.630726736 l 2
 438.702777196 688.46858864 379.033190431 388.642149494 323.577608543 188.822207526 c 0
 306.256517502 126.410106006 296.51587594 76.5011912752 295.916204316 40.8116628125 c 0
 297.221142447 16.3414213405 302.234703955 13 317.358398438 13 c 0
 326.996761036 13 369.115152532 40.4357949609 394.222130259 76.1606455723 c 1
 404.040039062 69.2607421875 l 1
 413.857947866 62.3608388027 l 1
 386.938116502 24.0564692181 343.928753493 -11 317.358398438 -11 c 0
 287.193503959 -11 273.252644928 9.73252560642 271.924521585 40.1324897721 c 2
 271.909518422 40.4759033846 l 1
 271.914197963 40.8196127184 l 2
 272.460780701 80.9657679037 282.8640459 131.867741498 300.451688332 195.240292474 c 0
 349.074566269 370.440341178 401.197900757 624.428211943 417.619876819 723.95254882 c 1
 385.365017022 700.592348045 346.789923873 679.389908013 311.829147214 668.407179066 c 1
 308.23270144 679.855566629 l 1
EndSplineSet
Fore
SplineSet
281.119140625 118 m 1
 234.753683345 56.7492386123 163.464724076 -9 122.270507812 -9 c 3
 65.55078125 -9 29.3552301575 37.672841145 26.4736328125 103.672851562 c 0
 21.033203125 228.280273438 162.020507812 409 305.020507812 409 c 3
 322.03125 409 342.8828125 396.797851562 349.15625 383 c 1
 379.372019291 518.282809059 416.302592951 697.910298845 414 707 c 0
 412.56514957 712.664206351 410.043238893 714.518554688 406.752929688 714.518554688 c 3
 399.989257891 714.518554688 377.584614887 690.215694209 341 681 c 1
 336.690429688 705 l 1
 372.85332903 713.772151899 404.100004359 740.886075949 435.346679688 768 c 1
 446.131835938 760 l 1
 443.096679688 715 380.982814853 393.382964853 323.625976562 189 c 0
 309.285689941 137.900420874 295.116207587 66.2598081176 296.330078125 38.447265625 c 0
 296.942382812 24.41796875 306.263671875 13 317 13 c 3
 334 13 383.040039062 58 403.079101562 87 c 1
 418.865234375 69 l 1
 386.69921875 27 349.358398438 -11 317.358398438 -11 c 3
 286.873046875 -11 272.90972801 9.42503879418 271.924804688 40.1328125 c 0
 271.359909008 57.7450350118 273.824103143 90.6769206652 281.119140625 118 c 1
301.204101562 385 m 3
 183.23793919 385 45.2572733798 218 49.7021484375 105.091796875 c 0
 51.6658093938 55.2111079358 78.2779643381 14 122 14 c 3
 159.141063833 14 286.367272686 147.284492441 298 185 c 0
 314.649789077 238.981773048 334.0318688 319 332 355 c 0
 330.788226369 376.469816712 310.409045114 385 301.204101562 385 c 3
EndSplineSet
Substitution2: "case-1" D
Substitution2: "pcap-1" d.pcap
Substitution2: "smcp-1" d.smcp
EndChar
StartChar: f
Encoding: 102 102 249
Width: 296
VWidth: 1159
UnlinkRmOvrlpSave: 1
Flags: HMW
AnchorPoint: "Top" 338 748 basechar 0
AnchorPoint: "Bottom" 115 -204 basechar 0
LayerCount: 2
Back
SplineSet
68.6574607596 350.010897664 m 1
 67.8239785275 361.981917143 l 1
 147.626659897 367.53817884 234.445538154 374.413721267 320.681175559 381.497142695 c 1
 321.663550715 369.537421166 l 1
 322.645925871 357.577699637 l 1
 236.362122999 350.490321883 149.457435157 343.607545208 69.4909429917 338.039878185 c 1
 68.6574607596 350.010897664 l 1
-51.228515625 -310.306640625 m 1
 -60.6331386582 -302.853247733 l 1
 -26.6549222344 -259.979844783 12.5207131679 -220.545415533 31.2319875113 -164.410416482 c 0
 77.203634627 -26.4925857749 153.370413942 384.99315227 177.086864041 504.787477119 c 0
 207.735767138 659.601035276 343.485723719 754 431 754 c 0
 460.098716127 754 522.672733106 731.329681538 548.229536607 711.196994753 c 1
 540.803747302 701.770561006 l 1
 533.377957996 692.344127259 l 1
 513.999726767 707.609567624 450.914839695 730 431 730 c 0
 357.570916906 730 229.191967237 644.398964724 200.629932834 500.126585381 c 0
 176.881539183 380.17091023 101.255349748 -30.2320236001 54.0004343637 -171.999739768 c 0
 33.1837430805 -234.451121965 -9.25328089061 -276.662733342 -41.8238925918 -317.760033517 c 1
 -51.228515625 -310.306640625 l 1
EndSplineSet
Fore
SplineSet
58 362 m 1
 142.977539062 366.604492188 239.767578125 374.0859375 335 383 c 1
 332 359 l 1
 236.693556093 350.231445312 134.134006857 343.358398438 56 338 c 1
 58 362 l 1
431 754 m 3
 462 754 533 728 554 706 c 1
 553.015151515 697.9 551.242424242 695.8 541 688 c 1
 510.324324324 708.823529412 453.666666667 730 431 730 c 3
 347.196078431 730 225.903974105 632 200 498 c 0
 177.470446634 381.455714599 88.0492424242 -83 54 -172 c 0
 29.6601118608 -235.62109375 -6.55158025568 -278.947265625 -47 -323 c 1
 -48.7647058824 -323 -48.5882352941 -323 -56 -323 c 3
 -60.2 -323 -66.6 -325.4 -69 -326 c 1
 -71 -302 l 1
 -52 -299.140286498 -6.93492903878 -239.222407795 22 -187 c 0
 55.798339561 -126 135.691588225 294.256456368 175 493 c 0
 202.294274449 631 287 693.765346023 298 701 c 0
 338.592956083 727.697817378 374.844444444 754 431 754 c 3
EndSplineSet
Substitution2: "smcp-1" f.smcp
Substitution2: "pcap-1" f.pcap
Substitution2: "case-1" F
Substitution2: "salt-1" f.alt
EndChar
StartChar: h
Encoding: 104 104 292
Width: 403
VWidth: 1159
Flags: HMW
AnchorPoint: "Top" 221.647 733 basechar 0
AnchorPoint: "Bottom" 126.315 -15 basechar 0
LayerCount: 2
Back
SplineSet
34 24 m 1
 22.2767420154 26.5622689607 l 1
 168.276742015 694.562268961 l 1
 180 692 l 1
 191.723257985 689.437731039 l 1
 45.7232579846 21.4377310393 l 1
 34 24 l 1
137.280273438 294.211914062 m 1
 127.763859215 301.522034468 l 1
 164.757057866 349.680283889 224.928704631 412 281.372070312 412 c 0
 342.666223226 412 382.565341847 353.796638712 383.938773407 288.192765168 c 0
 386.66278349 158.175699003 298.273346334 44.0064622509 216.66098807 -16.2005675137 c 1
 209.537109375 -6.5439453125 l 1
 202.41323068 3.11267688871 l 1
 279.999795486 60.349800236 362.4309306 168.990656476 359.944039093 287.690047332 c 0
 358.728094734 345.771325106 324.743590772 388 281.372070312 388 c 0
 241.120472373 388 183.512508664 334.698949083 146.79668766 286.901793657 c 1
 137.280273438 294.211914062 l 1
95.0860278059 690.211497214 m 1
 92.6259362737 701.956621719 l 1
 140.902741465 712.068507685 196.38046895 723.704653849 255.067911202 754.1636148 c 1
 260.595783894 743.512670077 l 1
 266.123656586 732.861725354 l 1
 204.151425448 700.697948984 145.811912931 688.575952224 97.546119338 678.466372708 c 1
 95.0860278059 690.211497214 l 1
EndSplineSet
Fore
SplineSet
91.896484375 196 m 1
 72.0682800976 160.833984375 55.5591147526 62.576171875 40.0859375 -4 c 1
 15.0859375 -4 l 1
 48.6221123203 138 124.715042991 498.461507451 146.3984375 592 c 0
 157.600323297 639.533374724 164.574707222 670.240285018 164 683 c 0
 163.863475795 691.533333333 162.928901936 699 156 699 c 3
 147.747086864 699 117.372193699 690.666666667 95.134765625 689 c 1
 96.98828125 693.236842105 98.4853515625 707.763157895 98.3388671875 712 c 1
 140.371073813 720.762711864 190.522381696 729.525423729 245.103515625 759 c 1
 260.54296875 738 l 1
 196.814135086 706.02 196.251528487 714.469893876 193 697 c 0
 180.558645856 634.855651412 145.086016805 486.198242188 98.5771484375 259 c 1
 120.50390625 296.360351562 204.592773438 412 281.372070312 412 c 3
 342.681640625 412 382.564371972 353.77829816 383.938476562 288.192382812 c 0
 386.711914063 155.81640625 295.624023438 40.0000000001 211.420898438 -20 c 1
 199.264740054 -16.6843261719 195.715313177 -12.8947753906 196 -2 c 1
 259 49 355 136 360 287 c 0
 361.91947779 344.968229273 323.139352641 388 282 388 c 3
 220.967221921 388 127.053752309 279.830528847 91.896484375 196 c 1
EndSplineSet
Substitution2: "case-1" H
Substitution2: "pcap-1" h.pcap
Substitution2: "smcp-1" h.smcp
EndChar
StartChar: o
Encoding: 111 111 358
Width: 422
VWidth: 1159
Flags: HW
AnchorPoint: "Middle" 224.787 213 basechar 0
AnchorPoint: "Top" 262 465 basechar 0
AnchorPoint: "Horn" 369.611 341.8 basechar 0
AnchorPoint: "Ogonek" 247.839 19 basechar 0
AnchorPoint: "Bottom" 165 -15 basechar 0
LayerCount: 2
Back
SplineSet
264.71875 395 m 0
 196.338937158 395 57.529296875 305.939727402 57.529296875 147.842773438 c 0
 57.529296875 57.1156444449 101.19040928 14 163.9375 14 c 0
 256.736605034 14 364.87109375 124.744659177 364.87109375 265.012695312 c 0
 364.87109375 345.740087294 325.195674703 395 264.71875 395 c 0
264.71875 419 m 0
 342.406726932 419 388.87109375 353.157991132 388.87109375 265.012695312 c 0
 388.87109375 114.374793739 274.098200552 -10 163.9375 -10 c 0
 85.923232899 -10 33.529296875 48.3394029186 33.529296875 147.842773438 c 0
 33.529296875 320.062636181 182.182822584 419 264.71875 419 c 0
EndSplineSet
Fore
SplineSet
264.71875 419 m 3
 342.473054455 419 388.87109375 353.183856197 388.87109375 265.012695312 c 0
 388.87109375 114.403732028 274.067531643 -10 163.9375 -10 c 3
 85.8265398985 -10 33.529296875 48.286333341 33.529296875 147.842773438 c 0
 33.529296875 320.034321532 182.23799869 419 264.71875 419 c 3
266 395 m 3
 191.993243552 395 58 303 58 149 c 3
 58 55.9784971095 101.703111414 14 164 14 c 3
 253.012298933 14 365 122 365 265 c 3
 365 349.162450987 320.58726911 395 266 395 c 3
EndSplineSet
Substitution2: "case-1" O
Substitution2: "pcap-1" o.pcap
Substitution2: "smcp-1" o.smcp
EndChar
StartChar: p
Encoding: 112 112 398
Width: 442
VWidth: 1159
Flags: HMW
AnchorPoint: "Bottom" 94.623 -318 basechar 0
AnchorPoint: "Top" 251 465 basechar 0
LayerCount: 2
Back
SplineSet
11 -298 m 1
 -0.433843813074 -294.35758107 l 1
 42.1523572517 -160.67609605 111.796530331 203.585808787 166.312630835 437.721286827 c 1
 178 435 l 1
 189.687369165 432.278713173 l 1
 135.268406684 198.560423031 66.0542331415 -164.714534385 22.4338438131 -301.64241893 c 1
 11 -298 l 1
148.470948141 -309.731197112 m 1
 148.180294996 -321.727676627 l 1
 116.467111535 -320.95932317 104.461301935 -321 78.685546875 -321 c 0
 46.5968707798 -321 12.917735522 -325.845383535 -3.04066933945 -332.832409903 c 1
 -7.853515625 -321.83984375 l 1
 -12.6663619106 -310.847277597 l 1
 9.21492368665 -301.267051957 44.4223741006 -297 78.685546875 -297 c 0
 104.384643729 -297 116.895148428 -296.962650699 148.761601285 -297.734717597 c 1
 148.470948141 -309.731197112 l 1
98.4130859375 11.8759765625 m 1
 99.4615453187 23.8300860202 l 1
 124.871208236 21.6014800705 161.254570482 22.0349444401 190.781914596 28.4571643249 c 0
 277.449595267 47.3074510294 382.149805363 127.984294064 394.057093047 242.422775617 c 0
 402.794427373 326.39549045 360.341591464 374.406311018 324.373211757 377.774695033 c 0
 322.776641606 377.924211398 321.16751069 378 319.541015625 378 c 0
 272.157131662 378 214.569005742 347.30241793 171.226425644 327.601014771 c 1
 166.260742188 338.525390625 l 1
 161.295058731 349.449766479 l 1
 203.087690294 368.446639339 263.137262174 402 319.541015625 402 c 0
 321.914165548 402 324.272411435 401.889145545 326.610983976 401.670141786 c 0
 381.745100386 396.506915699 427.410410307 331.070340217 417.928222467 239.938992177 c 0
 404.615261989 111.990879851 290.33901591 25.5497903549 195.882677193 5.00546457987 c 0
 162.795530344 -2.19101511697 124.859242904 -2.48960390814 97.3646265563 -0.0781328951669 c 1
 98.4130859375 11.8759765625 l 1
63.814453125 317.552734375 m 1
 60.0134572802 328.934844486 l 1
 145.199004155 357.382110111 l 1
 149 346 l 1
 152.800995845 334.617889889 l 1
 67.6154489698 306.170624264 l 1
 63.814453125 317.552734375 l 1
EndSplineSet
Fore
SplineSet
79.14453125 39 m 0
 103.362240083 150.534299975 127.30494646 257.850734039 135 296 c 0
 138.765023184 314.665610324 140.52004238 322.790697674 141 328 c 1
 125.313273248 323.18128655 73.9687545649 307.415204678 59.8876953125 304 c 1
 57.1328125 328 l 1
 157.095424928 358.411764706 145.931797649 346.680672269 167.640625 445 c 1
 199.615010505 453.20914335 197.9503305 468.714151071 173.442382812 362 c 1
 213.266613959 377.813953488 268.760394324 402 319.541015625 402 c 3
 377.926757812 402 426.83203125 334.9296875 417.934570312 240 c 1
 404.616210938 112 290.438476562 25 195.857421875 5 c 1
 164.218708795 -1 121.135569125 -3 94.982421875 -1 c 1
 75.6670503994 -95.1647058824 43.5600242348 -231.541176471 30 -277 c 1
 19.7186983737 -310.285714286 15.4697918658 -296.642634662 97.9111328125 -297 c 0
 109.600033954 -297.077156713 129.084525828 -297.75 139.995117188 -298 c 1
 136.70703125 -322 l 1
 109.863721682 -321 98.9876141909 -321 78.685546875 -321 c 3
 58.4516652619 -321 0.904977874645 -331 -20 -336 c 1
 -19.669921875 -313 l 1
 -13.599609375 -312 -7.61315397467 -306.012204435 -3.9638671875 -299 c 0
 1.47265625 -288.553571429 8.75378741423 -264.550842011 16.86328125 -234 c 0
 30.6662945781 -182 55.2086546896 -71.2363256098 79.14453125 39 c 0
321 378 m 3
 273.449111225 378 207.972144377 349.354005168 167.405273438 332 c 1
 101 24 l 1
 111.567796918 23.4285714286 124.093078875 23 141 23 c 3
 269.865952946 23 380.870728892 133.350945858 394 241 c 1
 401.320089964 314.962785993 365.770415553 378 321 378 c 3
EndSplineSet
Substitution2: "case-1" P
Substitution2: "pcap-1" p.pcap
Substitution2: "smcp-1" p.smcp
EndChar
StartChar: uni007F
Encoding: 127 127 525
Width: 770
Flags: HW
LayerCount: 2
Fore
SplineSet
377 59 m 0
 401.873507609 59 456.5 114.201143973 456.5 137.75 c 0
 456.5 159.680153461 401.274227017 216.5 377 216.5 c 0
 350.724883829 216.5 298.25 158.694566408 298.25 137.75 c 0
 298.25 104.390482397 355.612661916 59 377 59 c 0
384.896 681.619 m 0
 572.009 681.619 732.391 534.6 732.391 347.494 c 0
 732.391 147.017 565.326 0 384.896 0 c 0
 197.787 0 37.4082 133.65 37.4082 334.125 c 0
 37.4082 534.598 204.47 681.619 384.896 681.619 c 0
339.5 258.326171875 m 1
 425.75 256.41015625 l 1
 425.75 352.854746533 438.177855264 400.527120673 447.400390625 490.461914062 c 0
 452.110497462 544.629974751 450.85786817 556.983444669 460.237304688 578.087890625 c 0
 463.408203125 585.22265625 l 1
 462.165039062 592.9296875 l 0
 456.937054866 625.342450714 423.458137066 626.729886677 409.465820312 624.39453125 c 0
 389.590703915 621.077320686 367.285896774 613.379011794 336.284179688 609.551757812 c 0
 314.162109375 606.8203125 l 1
 313.271484375 584.548828125 l 0
 311.371240866 537.04123658 330.760595352 515.010307923 332.831054688 490.681640625 c 0
 338.362232103 425.609294105 339.5 346.016876657 339.5 258.326171875 c 1
EndSplineSet
EndChar
StartChar: section
Encoding: 167 167 447
Width: 428
Flags: HW
LayerCount: 2
Fore
SplineSet
274.120117188 618 m 1
 208.14453125 552.25 169.6015625 493.240234375 152.12109375 411 c 0
 93.0283203125 132.993164062 244.15625 143 143.3203125 -35 c 1
 213.5625 10.0625 270.821289062 94.3779296875 289.658203125 183 c 0
 328.194335938 364.299804688 159.473632812 455 274.120117188 618 c 1
126.12109375 411 m 0
 153.514648438 539.875 270.041992188 698.224609375 424.765625 698.224609375 c 3
 455.905273438 698.224609375 474.124023438 684.349609375 484.900390625 661.224609375 c 1
 480.206054688 656.66796875 472.142578125 651.314453125 464.497070312 648 c 1
 458.666015625 659.571289062 444.038085938 675 420.236328125 675 c 3
 345.197265625 675 273.581054688 606.052734375 259.115234375 538 c 0
 242.1953125 458.396484375 348.60546875 347.413085938 313.870117188 184 c 0
 287.912109375 61.8759765625 172.615234375 -93.775390625 34.419921875 -93.775390625 c 3
 -9.8779296875 -93.775390625 -38.2744140625 -85.2744140625 -59.7802734375 -59 c 1
 -59.15625 -55.6650390625 -46.5537109375 -43.2607421875 -37.955078125 -41 c 1
 -21.08984375 -59.439453125 -3.7578125 -70 39.880859375 -70 c 3
 99.37109375 -70 141.418945312 -15.71875 152.19921875 35 c 0
 172.23046875 129.239257812 76.02734375 175.327148438 126.12109375 411 c 0
EndSplineSet
Position2: "'case' vertical ajustments for all-caps-1" dx=0 dy=60 dh=0 dv=0
Position2: "cpsp-1" dx=0 dy=0 dh=50 dv=122
EndChar
StartChar: ordfeminine
Encoding: 170 170 395
Width: 306
VWidth: 1159
Flags: HW
LayerCount: 2
Fore
SplineSet
183.977539062 503.534179688 m 1
 180.646484375 503.434570312 179.2421875 503.502929688 175.567382812 503.502929688 c 1
 152.840820312 503.201171875 123.647460938 498.500976562 115.176757812 494.86328125 c 0
 90.724609375 484.630859375 78.6962890625 474.545898438 78.6962890625 451.326171875 c 3
 78.6962890625 427.439453125 88.1943359375 408.349609375 105.0390625 408.349609375 c 3
 123.461914062 408.349609375 156.658203125 421.44140625 182.564453125 436.5390625 c 1
 182.08203125 446.467773438 182.357421875 458.23828125 182.357421875 471.330078125 c 1
 182.357421875 483.66796875 183.665039062 494.657226562 183.977539062 503.534179688 c 1
157.731445312 686.282226562 m 3
 174.266601562 686.282226562 220.842773438 653.05078125 229.099609375 639.864257812 c 0
 235.338867188 629.9921875 235.907226562 613.166992188 235.907226562 603.034179688 c 1
 235.907226562 556.356445312 232.453125 503.93359375 232.453125 459.249023438 c 1
 232.453125 445.865234375 233.936523438 434.0234375 236.037109375 424.615234375 c 0
 239.323242188 413.55859375 245.327148438 411.580078125 247.250976562 411.580078125 c 3
 254.05859375 411.580078125 274.65234375 422.235351562 281.211914062 426.438476562 c 1
 294.829101562 397.704101562 l 1
 280.755859375 392.073242188 228.498046875 369.431640625 218.510742188 369.431640625 c 3
 208.80078125 369.431640625 192.500976562 380.510742188 185.5703125 408.61328125 c 1
 148.163085938 387.00390625 116.986328125 371.240234375 76.78515625 371.240234375 c 1
 36.79296875 371.240234375 30.705078125 400.427734375 30.705078125 431.106445312 c 1
 30.705078125 448.985351562 31.4404296875 471.754882812 36.7138671875 482.626953125 c 1
 40.712890625 492.665039062 45.302734375 496.274414062 52.3759765625 499.758789062 c 1
 97.568359375 519.692382812 132.154296875 525.344726562 184.615234375 531.106445312 c 1
 185.06640625 551.171875 185.518554688 583.376953125 185.518554688 583.416015625 c 1
 185.518554688 600.42578125 182.471679688 607.67578125 178.106445312 613.918945312 c 1
 172.994140625 621.473632812 148.099609375 643.546875 131.2890625 643.546875 c 3
 103.706054688 643.546875 95.25390625 633.372070312 95.25390625 624.969726562 c 3
 95.25390625 618.619140625 99.4912109375 607.528320312 99.9404296875 605.274414062 c 1
 46.166015625 584.28125 l 1
 44.6708984375 588.7890625 39.544921875 603.643554688 39.544921875 612.970703125 c 3
 39.544921875 624.888671875 45.4677734375 637.025390625 60.0732421875 647.205078125 c 0
 88.9267578125 667.34765625 140.744140625 686.282226562 157.731445312 686.282226562 c 3
EndSplineSet
Refer: 487 58113 N 0.294 0 0 1 6 320 2
Position2: "cpsp-1" dx=0 dy=0 dh=7 dv=14
EndChar
StartChar: Eng
Encoding: 330 330 1266
Width: 836
Flags: HW
AnchorPoint: "Top" 485.434 699 basechar 0
AnchorPoint: "Bottom" 363.597 -15 basechar 0
LayerCount: 2
Back
SplineSet
125.782226562 691 m 5x68
 167.907226562 687 222.834960938 683 267.130859375 683 c 0
 281.130859375 683 283.223632812 679.5859375 287.611328125 672 c 0
 389.502929688 495.836914062 498.623046875 327.50390625 616.653320312 167 c 1
 641.487097564 262.826643101 663.519381189 358.188256122 684.243086939 456 c 0
 690.059473763 483.452181827 695.772781325 511.097365298 701.416015625 539 c 0
 726.090820312 661 672.571289062 650 619.265625 657 c 1
 632.607421875 695 l 1
 690.147441105 686.236933746 739.497696193 682.958962504 787.113353601 682.958962504 c 0
 815.569151594 682.958962504 843.405450416 684.129666519 872 686 c 1
 868.614257812 649 l 1
 806.014648438 643 779.951171875 645.13671875 763.622070312 603 c 0
 717.666015625 438.103515625 676.63671875 261.4375 642.188476562 86 c 0
 637.280273438 61 633.938476562 23 634.942382812 0 c 1
 598.421875 -11 l 1
 592.37890625 32 573.48046875 72.7509765625 553.359375 105 c 0
 457.291015625 258.977539062 358.82421875 409.975585938 254.629882812 557 c 1
 167.001953125 159 l 2
 143.869140625 53.9306640625 176.934570312 46 258.37109375 36 c 1
 240.37890625 -10 l 5x98
 205.898858133 2.97918471983 171.97670935 7.19358088651 139.441432909 7.19358088651 c 0
 94.2681635945 7.19358088651 51.7684579464 -0.930783646413 14.1611328125 -5 c 1
 18.2392578125 39 l 1
 71.2392578125 39 91.216796875 50.1591796875 103.665039062 98 c 0
 136.231478623 223.160248453 163.061322795 354.602423789 189.863224216 485.999982803 c 0
 195.579129629 514.022472961 201.293764152 542.042933883 207.0625 570 c 0
 213.666015625 602 184.24609375 648 115.702148438 647 c 1
 125.782226562 691 l 5x68
EndSplineSet
Fore
SplineSet
463.938476562 -189 m 0
 419.200195312 -216 376.885742188 -241 317.885742188 -241 c 3
 285.885742188 -241 238.223632812 -230 217.900390625 -208 c 1
 225.491210938 -178.046875 224.266601562 -178.046875 292.9921875 -137 c 1
 328.166015625 -155 346.413085938 -179 392.064453125 -179 c 3
 478.680664062 -179 540.310406879 -77.7305649932 549.513671875 -13.4755859375 c 0
 559.341794697 55.1419999186 543.724822333 117.691769402 519.676757812 156.090820312 c 0
 435.312466729 290.800568181 348.266738831 421.606526864 257.018554688 550 c 1
 163.845703125 154 l 2
 140.045561917 52.8454709683 173.744844436 44.6748046875 255.551757812 35 c 1
 237.7734375 -11 l 1
 202.556113256 -2.55078125 168.32675766 0.193359375 135.73828125 0.193359375 c 0
 90.9265605693 0.193359375 48.953351996 -4.59968665423 11.986328125 -7 c 1
 16.3388671875 37 l 1
 71.1358989195 37 88.935527568 47.6260230809 101.879882812 93 c 0
 141.285252939 246.783203125 175.415543928 409.642927879 205.481445312 571 c 0
 212.003046967 606 182.767125436 646 115.848632812 648 c 1
 127.201171875 692 l 1
 168.278404145 688 223.340717414 684 267.500976562 684 c 0
 282.500976562 684 283.754149952 680.753859875 288.162109375 673 c 0
 375.264512694 521.438769686 465.292558444 370.323805063 565.560546875 236.227539062 c 0
 582.483514625 213.347683113 602.117517261 186.94921875 615.845703125 167 c 1
 648.9382391 288.435079823 676.257748287 409.775103539 700.955078125 538 c 0
 724.453433931 660 673.240437491 649 619.037109375 656 c 1
 632.114257812 694 l 1
 685.444716638 686.806640625 730.881214778 684.3984375 774.135742188 684.3984375 c 0
 807.072599162 684.3984375 839.037669971 685.483398438 871.625976562 687 c 1
 867.336914062 648 l 1
 805.659618764 642 776.735143188 645.079069336 764.55859375 602 c 0
 718.039693088 437.422099068 679.994019262 261.536819153 640.391601562 86 c 0
 635.202629747 63 632.277544267 43.1174056263 623.112304688 0 c 0
 604.631835937 -86.9404296875 537.802438156 -144.422360732 463.938476562 -189 c 0
EndSplineSet
Position2: "cpsp-1" dx=0 dy=0 dh=50 dv=111
Substitution2: "c2pc-1" eng.pcap
Substitution2: "c2sc-1" eng.smcp
EndChar
StartChar: OE
Encoding: 338 338 1309
Width: 908
VWidth: 1159
Flags: HW
AnchorPoint: "Bottom" 448.35 -15 basechar 0
AnchorPoint: "Top" 599.176 699 basechar 0
LayerCount: 2
Back
SplineSet
804.264648438 447.079678176 m 0
 810.720045445 447.079678176 816.262295364 441.540650395 816.262295364 435.08203125 c 0
 816.262295364 433.857878261 816.076365468 432.633725271 815.704505677 431.455788316 c 0
 806.570357765 402.521629171 800.441124778 373.763031058 796.348241533 344.980547213 c 0
 793.023363187 316.765287846 789.710088433 288.423830401 788.545162701 259.946330892 c 0
 788.291588527 253.747516493 782.890235778 248.442782761 776.557617188 248.442782761 c 0
 770.10222018 248.442782761 764.559970261 253.981810543 764.559970261 260.440429688 c 0
 764.559970261 260.60516683 764.563337399 260.769903972 764.570071674 260.934528483 c 0
 765.701408134 288.590912564 768.737140909 315.62008604 771.836095646 342.007071526 c 1
 535.404750915 342.986638947 l 1
 464.664653545 26.6488795837 l 1
 472.356425447 26.9147059141 480.977999952 27.0660063015 490.6953125 27.0660063015 c 0
 588.709935148 27.0660063015 692.424687189 23.9390531765 790.571289062 23.9390531765 c 0
 792.266055572 23.9390531765 793.658325491 23.7769493602 794.830049396 23.5601761069 c 0
 815.905431375 74.4876598212 836.528960445 118.847407432 858.764290636 167.573386656 c 0
 860.549529198 171.485516423 864.944638548 174.582607864 869.680664062 174.582607864 c 0
 876.13606107 174.582607864 881.678310989 169.043580082 881.678310989 162.584960937 c 0
 881.678310989 160.880573844 881.317886489 159.17618675 880.597037489 157.596535219 c 0
 857.356861784 106.668561187 836.031758629 60.826962559 814.134843407 7.40146029621 c 0
 813.453902769 5.74005752511 812.392720357 4.03579343641 810.935871805 2.5789448838 c 0
 807.160374186 -1.19655273535 802.684227219 -1.74696409832 800.027857494 -1.74696409832 c 0
 795.352733827 -1.74696409832 793.175091603 -0.594786003354 790.292755459 -0.0562318737779 c 0
 692.119318707 -0.0562318737779 588.518011224 3.07071244851 490.6953125 3.07071244851 c 0
 440.954178616 3.07071244851 423.454158852 -0.663547011292 409.410886698 -3.56051803987 c 0
 399.514515729 -5.60202942486 390.731588251 -7 377.626953125 -7 c 0
 275.558109012 -7 190.198556006 27.7279648373 133.217895728 84.7086251148 c 0
 84.6545060184 133.272014825 56.5727283598 198.085614162 56.5727283598 271.462353678 c 0
 56.5727283598 292.37181501 58.8466522179 313.946648108 63.5341796875 336 c 0
 104.111950218 526.905729789 314.399892611 694 524.62890625 694 c 0
 540.313740255 694 548.010078485 692.551567483 555.967738131 690.944663408 c 0
 569.379060484 688.236838855 587.309765784 684.968350051 662.665039062 684.968350051 c 0
 768.793822446 684.968350051 850.927814203 692.619815217 880.08151998 697.510081624 c 0
 880.742365853 697.620932451 881.410733708 697.676357864 882.079101562 697.676357864 c 0
 885.712405377 697.676357864 889.390029635 695.837742305 891.57397346 693.018611416 c 0
 894.921524245 688.69744541 896.999600051 683.555256935 896.999600051 679.7578125 c 0
 896.999600051 665.187471799 888.965792828 638.353016141 866.95527226 563.975191151 c 2
 860.932195355 543.614105222 l 2
 859.539815534 538.907148081 854.803106411 535.034579636 849.428710938 535.034579636 c 0
 842.97331393 535.034579636 837.431064011 540.573607418 837.431064011 547.032226562 c 0
 837.431064011 548.184446416 837.595784847 549.336666269 837.92522652 550.450347903 c 2
 843.949024615 570.813871349 l 2
 860.87708729 628.017083747 869.030422875 658.48552182 871.832777781 672.027966453 c 1
 834.058866537 666.974580641 758.291607294 660.973056199 662.665039062 660.973056199 c 0
 638.77041196 660.973056199 620.34808726 661.314159085 605.851032364 661.876598284 c 1
 605.948775406 661.255217561 605.997646926 660.627608781 605.997646926 660 c 0
 605.997646926 659.116549576 605.900809732 658.233099152 605.707135344 657.367020021 c 2
 540.765707149 366.959929149 l 1
 773.050088571 365.997543165 l 2
 773.808498629 365.997543165 774.56666674 365.924616998 775.313602671 365.779345565 c 1
 779.441977946 389.934313587 785.099646051 414.237400574 792.824791198 438.708274184 c 0
 794.276673267 443.307388109 798.968775534 447.079678176 804.264648438 447.079678176 c 0
524.62890625 670.004706147 m 0
 327.236035337 670.004706147 125.260753815 510.975000939 87.0025784751 330.982241647 c 0
 82.649137015 310.500660028 80.5680222128 290.618570705 80.5680222128 271.462353678 c 0
 80.5680222128 204.404755841 105.99115394 145.8764924 150.188458477 101.679187863 c 0
 202.045465066 49.8221812739 281.028455069 16.995293853 377.626953125 16.995293853 c 0
 389.18680714 16.995293853 395.058559323 17.9827051845 404.534425802 19.9374711649 c 0
 412.865673529 21.6561150133 423.234372167 23.73266759 440.004009115 25.2000972299 c 0
 440.017527736 26.0167545376 440.113812917 26.8322908631 440.292864656 27.6329799793 c 2
 582.292864656 662.632979979 l 2
 582.335116423 662.821922741 582.381976987 663.010038746 582.433446348 663.197147626 c 1
 566.85867447 664.424959733 558.383209313 665.973987126 550.955897975 667.473796863 c 0
 543.200210964 669.040016854 539.102203233 670.004706147 524.62890625 670.004706147 c 0
EndSplineSet
Fore
SplineSet
526 670 m 3
 328.707331378 670 140.838577386 526.888507777 88 332 c 0
 43.5704857908 168.127273787 174.106560688 17 378 17 c 3
 413.612511282 17 440.781799831 28.0920703125 446 56 c 1
 456.948953487 98.4368619015 485.010902527 229.216990485 513.950195312 354 c 0
 541.759271289 473.909640429 567.151532019 589.33504277 576 634 c 0
 582.211054934 665.351924828 550.387231972 670 526 670 c 3
377.626953125 -7 m 3
 163.626953125 -7 23.07642725 145.658917831 63.5341796875 336 c 0
 104.159179688 527.127929688 314.62890625 694 524.62890625 694 c 3
 570.667331005 694 545.022294968 684.96875 671.665039062 684.96875 c 3
 785.856292121 684.96875 872.466985281 695.186523438 886.416015625 699 c 1
 893.75390625 691.112304688 897 686.001953125 897 679.7578125 c 0
 897 663.833984375 886.890625 631.53515625 858.682617188 536 c 1
 833.044921875 533 l 1
 866 650 879 672 860 670 c 0
 821.523659864 665.949858933 756.550468261 662.052734375 693.571289062 662.052734375 c 0
 674.225234769 662.052734375 655.372393557 662 638 662 c 0
 608 662 606 661 598.772460938 628 c 0
 579.113983191 538.241956492 557.118816945 449.944915254 540.760742188 367 c 1
 599.014778228 366 748.74094472 366.100916305 761.3984375 366 c 0
 779.259166862 365.857599065 771.975301348 371.469928722 796.33984375 449 c 1
 820.852539062 444 l 1
 808.893150042 410.824151149 800.191025048 378.045004722 796.350585938 345 c 0
 792.718930927 313.751475151 789.010742188 282.494140625 788.25390625 251 c 1
 764 245 l 1
 768.405290244 339.261363637 778.85845304 342 753 342 c 0
 714.372656069 342 618.581917667 341.8 535.108398438 343 c 1
 510.110726964 232.86125946 489.856013412 132.781983149 470.801757812 58 c 0
 462.770627228 26.4803287684 465.184233172 25.9905367653 494 26 c 0
 540.007166715 26.0151089721 591.070533082 26.3720703125 630.392578125 26.3720703125 c 0
 684.340106419 26.3720703125 783.985654379 22.3660339872 793 28 c 0
 801 33 804 53 864.737304688 177 c 1
 887.249023438 170 l 1
 857.220703123 104 837.292968749 62 812.115234375 0 c 1
 714.709467714 -0.5458984375 613.570351821 3.0703125 521.6953125 3.0703125 c 3
 416.31101203 3.0703125 416.866761613 -7 377.626953125 -7 c 3
EndSplineSet
Position2: "cpsp-1" dx=0 dy=0 dh=50 dv=111
Substitution2: "c2pc-1" oe.pcap
Substitution2: "c2sc-1" oe.smcp
EndChar
StartChar: oe
Encoding: 339 339 361
Width: 607
VWidth: 1159
UnlinkRmOvrlpSave: 1
Flags: HW
AnchorPoint: "Top" 368.326 465 basechar 0
AnchorPoint: "Bottom" 269.326 -15 basechar 0
LayerCount: 2
Back
SplineSet
233.4765625 395.00390625 m 0
 205.41796875 395.00390625 171.736328125 377.186523438 141.104492188 346.5546875 c 0
 92.58984375 298.041015625 54.0849609375 220.239257812 54.0849609375 147.842773438 c 0
 54.0849609375 97.50390625 65.921875 56.6630859375 88.109375 34.474609375 c 0
 101.116210938 21.4677734375 117.883789062 13.99609375 140.456054688 13.99609375 c 0
 169.715820312 13.99609375 199.430664062 29.4697265625 226.010742188 56.048828125 c 0
 275.448242188 105.486328125 311.073242188 190.979492188 311.073242188 265.012695312 c 0
 311.073242188 312.26953125 299.380859375 355.016601562 277.255859375 377.141601562 c 0
 265.888671875 388.509765625 251.8828125 395.00390625 233.4765625 395.00390625 c 0
233.4765625 419 m 0
 258.155273438 419 278.737304688 409.602539062 294.2265625 394.112304688 c 0
 323.692382812 364.646484375 335.069335938 315.340820312 335.069335938 265.012695312 c 0
 335.069335938 183.955078125 297.552734375 93.650390625 242.98046875 39.078125 c 0
 213.606445312 9.7041015625 178.435546875 -10 140.456054688 -10 c 0
 112.099609375 -10 88.6103515625 0.0322265625 71.1396484375 17.50390625 c 0
 41.837890625 46.8046875 30.08984375 94.4814453125 30.08984375 147.842773438 c 0
 30.08984375 228.34375 71.5166015625 310.909179688 124.133789062 363.525390625 c 0
 157.221679688 396.614257812 195.674804688 419 233.4765625 419 c 0
EndSplineSet
Fore
SplineSet
232.970703125 419 m 3
 302.859375 419 334.563476562 353.18359375 334.563476562 265.012695312 c 3
 334.563476562 137.98046875 240.130859375 -10 139.950195312 -10 c 3
 67.853515625 -10 29.583984375 48.2861328125 29.583984375 147.842773438 c 3
 29.583984375 282.001953125 144.326171875 419 232.970703125 419 c 3
232.326171875 395 m 3
 148.158203125 395 53.326171875 258.290039062 53.326171875 148 c 3
 53.326171875 67.7314453125 80.71875 13 140.326171875 13 c 3
 222.991210938 13 311.326171875 150 311.326171875 263 c 3
 311.326171875 340.026367188 283.12890625 395 232.326171875 395 c 3
EndSplineSet
Refer: 215 101 N 0.973633 0.0134417 0.0130156 1.00123 253.831 -2.81315 2
Substitution2: "smcp-1" oe.smcp
Substitution2: "case-1" OE
Substitution2: "pcap-1" oe.pcap
EndChar
StartChar: longs
Encoding: 383 383 332
Width: 210
VWidth: 1159
Flags: HW
AnchorPoint: "Top" 298 748 basechar 0
AnchorPoint: "Bottom" 75 -204 basechar 0
LayerCount: 2
Fore
SplineSet
390 754 m 3
 421 754 492 728 513 706 c 1
 512.015625 697.900390625 510.2421875 695.799804688 500 688 c 1
 469.32421875 708.823242188 412.666992188 730 390 730 c 3
 306.196289062 730 184.904296875 632 159 498 c 0
 136.470703125 381.456054688 47.048828125 -83 13 -172 c 0
 -11.33984375 -235.62109375 -47.5517578125 -278.947265625 -88 -323 c 1
 -89.7646484375 -323 -89.587890625 -323 -97 -323 c 3
 -101.200195312 -323 -107.599609375 -325.400390625 -110 -326 c 1
 -112 -302 l 1
 -93 -299.140625 -47.9345703125 -239.22265625 -19 -187 c 0
 14.7978515625 -126 94.69140625 294.256835938 134 493 c 0
 161.293945312 631 246 693.765625 257 701 c 0
 297.592773438 727.698242188 333.844726562 754 390 754 c 3
EndSplineSet
Substitution2: "case-1" S
Substitution2: "pcap-1" s.pcap
Substitution2: "smcp-1" s.smcp
EndChar
StartChar: uni018A
Encoding: 394 394 536
Width: 931
Flags: HW
LayerCount: 2
Fore
SplineSet
464 37 m 3
 664 37 794 146 794 340 c 3
 794 530 656 659 451 659 c 3
 410 659 387 654 346 649 c 0
 318 645 317 627 317 607 c 0
 317 424 313 266 318 86 c 0
 318 68 321 50 349 46 c 0
 380 41 418 37 464 37 c 3
196 653 m 3
 155 653 96 634 96 592 c 3
 96 571 111 554 135 537 c 1
 123 506 98 487 71 487 c 3
 32 487 7 515 7 544 c 3
 7 621 108 686 189 686 c 3
 200 686 234 682 263 682 c 27
 350 682 398 696 485 696 c 3
 700 696 888 560 888 350 c 3
 888 73 665 -7 461 -7 c 3
 387 -7 344 0 270 0 c 3
 196 0 185 -5 155 -10 c 9
 153 28 l 1
 194 32 226 33 228 66 c 0
 238 233 232 512 223 615 c 0
 221 637 220 653 196 653 c 3
EndSplineSet
EndChar
StartChar: uni0195
Encoding: 405 405 543
Width: 724
Flags: HW
LayerCount: 2
Fore
SplineSet
284 362 m 3
 237.511811024 362 192.960629921 348 161 330 c 1
 159 290.477272727 157 239.204545455 157 189 c 3
 157 130 159.174662365 75.1900322616 162 54 c 0
 164 39 183.085896873 34.4253562504 194 32 c 0
 203 30 222 28 232 27 c 1
 228 -7 l 1
 189 -1 159 4 117 4 c 3
 87 4 51 -1 21 -5 c 1
 18 28 l 1
 29 30 35.1817100136 30.1778373948 46 33 c 0
 69 39 81.3132247115 48.0575369992 84 76 c 0
 89 128 92 209 92 274 c 3
 92 511 90.315871388 604.946057792 89 626 c 0
 88 642 82 656 65 656 c 3
 59 656 33 650 23 649 c 1
 15 681 l 1
 67 692 127 720 170 754 c 1
 189 738 l 1
 183 724 176.562049935 696.934349546 175 686 c 0
 165 617.886227545 162 471.928143713 161 361 c 1
 212.74556213 392 284.99408284 411 326 411 c 3
 402.232479641 411 436.71875 350.667590362 436.71875 269.390625 c 3
 436.71875 228.59375 426 203.875 426 147 c 3
 426 66 481.608247423 47 519 47 c 3
 614.037267081 47 662 139 662 224 c 3
 662 337 590.149253731 347 546 347 c 1
 544 350 542 353 542 361 c 3
 542 383 572 422 579 430 c 1
 649.2 430 696 314 696 220 c 3
 696 109 625.568720379 -9 503 -9 c 3
 422.141935484 -9 352 44 352 148 c 3
 352 199.055795116 366.641611384 223.199481798 366.641611384 258.253199738 c 3
 366.641611384 319.260915156 339.126181232 362 284 362 c 3
EndSplineSet
Substitution2: "smcp-1" uni0195.smcp
Substitution2: "pcap-1" uni0195.pcap
EndChar
StartChar: uni0196
Encoding: 406 406 545
Width: 326
Flags: HW
LayerCount: 2
Fore
SplineSet
116.599609375 539 m 0
 115 565 105.637695312 597 82.400390625 597 c 3
 70.6728515625 597 48 588 30.2001953125 586.25 c 1
 22 622 l 1
 68.0712890625 631.827148438 116.142578125 647.166015625 176.400390625 695 c 1
 199.15234375 689.430664062 199.329101562 668.951171875 202 637 c 0
 203.436523438 619.815429688 204.200195312 609.422851562 204.200195312 592.5 c 0
 204.200195312 518.0078125 197.456054688 417.247070312 197.456054688 287.506835938 c 3
 197.456054688 230.994140625 196.682617188 168.198242188 200 99 c 0
 201.931640625 58.7138671875 226.203125 38 249 38 c 3
 267.307617188 38 290.223632812 55.2900390625 305.508789062 62.3857421875 c 1
 320 32 l 1
 263.69140625 0.3720703125 228.991210938 -32 192.883789062 -32 c 3
 129.415039062 -32 113.473632812 15.7177734375 113.473632812 77.9169921875 c 3
 113.473632812 161.350585938 123.151367188 240.983398438 123.151367188 333.733398438 c 3
 123.151367188 397.54296875 121.129882812 465.366210938 116.599609375 539 c 0
EndSplineSet
EndChar
StartChar: uni01B2
Encoding: 434 434 556
Width: 747
Flags: HW
AnchorPoint: "Top" 405 699 basechar 0
AnchorPoint: "Bottom" 384 -15 basechar 0
LayerCount: 2
Fore
SplineSet
706 462 m 3
 706 197 472 -10 288 -10 c 3
 161.560337972 -10 99 80.0090957253 99 208 c 3
 99 241 104 578 104 594 c 0
 104 638 92 641 10 650 c 1
 15 690 l 1
 75 683 208 683 289 690 c 1
 293 654 l 1
 225 648 194 646 194 591 c 0
 194 583 186 262 186 227 c 3
 186 123.880830821 220.422871704 50 329 50 c 3
 438 50 650 196 650 443 c 3
 650 606 555 621 496 621 c 1
 494 625 491 629 491 639 c 3
 491 664 528 708 537 717 c 1
 640 717 706 591 706 462 c 3
EndSplineSet
EndChar
StartChar: uni021C
Encoding: 540 540 595
Width: 485
UnlinkRmOvrlpSave: 1
Flags: HW
LayerCount: 2
Fore
SplineSet
300.44921875 353 m 1
 362.038085938 337.3984375 445.365234375 244.3984375 425.512695312 151 c 0
 392.87109375 -2.5634765625 103.712890625 -161.83984375 -35.78125 -175 c 1
 -33.341796875 -140 l 1
 101.471679688 -128.6640625 303.3125 13.625 329.111328125 135 c 0
 346.7734375 218.091796875 279.763671875 292.672851562 211.946289062 313 c 1
 300.44921875 353 l 1
101.908203125 294 m 1
 231.776367188 330.731445312 364.83984375 406.58984375 392.133789062 535 c 0
 403.750976562 589.651367188 356.120117188 644 307.302734375 644 c 3
 242.334960938 644 155.530273438 595.852539062 109.8828125 515 c 1
 84.583984375 523 l 1
 103.573242188 570 117.100585938 596 139.08984375 643 c 1
 199.368164062 673.446289062 270.352539062 698 349.78125 698 c 3
 435.553710938 698 497.262695312 615.584960938 484.385742188 555 c 0
 453.762695312 410.931640625 246.314453125 285.915039062 108.893554688 261 c 1
 101.908203125 294 l 1
EndSplineSet
EndChar
StartChar: uni021D
Encoding: 541 541 596
Width: 342
UnlinkRmOvrlpSave: 1
Flags: HW
LayerCount: 2
Fore
SplineSet
210.442382812 184.862304688 m 1
 255.474609375 175.697265625 315.358398438 106.369140625 306.817382812 66.1875 c 0
 282.668945312 -47.423828125 72.8291015625 -165.263671875 -28.1806640625 -175 c 1
 -25.8798828125 -147.145507812 l 1
 67.7646484375 -139.0078125 208.602539062 -36.8544921875 227.124023438 50.283203125 c 0
 234.5078125 85.0244140625 186.568359375 140.384765625 137.057617188 152 c 1
 210.442382812 184.862304688 l 1
67.2666015625 144.651367188 m 1
 155.408203125 167.703125 245.27734375 215.313476562 262.408203125 295.90625 c 0
 270.587890625 334.392578125 222.245117188 374 185.245117188 374 c 3
 163.245117188 374 150.849609375 367.434570312 146.71875 348 c 0
 146.008789062 344.661132812 146.98046875 337.622070312 147.530273438 333 c 1
 67.3662109375 304 l 1
 66.333984375 307.299804688 63.9306640625 316.0625 66.04296875 326 c 0
 76.6708984375 376 224.311523438 422 251.448242188 422 c 3
 277.448242188 422 351.00390625 366.014648438 341.762695312 322.538085938 c 0
 320.891601562 224.346679688 171.862304688 139.140625 72.619140625 122.159179688 c 1
 67.2666015625 144.651367188 l 1
EndSplineSet
EndChar
StartChar: uni025E
Encoding: 606 606 623
Width: 457
Flags: HW
LayerCount: 2
Fore
SplineSet
256 -10 m 3
 131 -10 32 72 32 195 c 3
 32 352 167 420 257 420 c 3
 359.752604167 420 429 372.079101563 429 310 c 3
 429 280.885091146 399 225.505617978 348 216 c 1
 405.857142857 194.517420015 429 158.387872024 429 133 c 3
 429 51.2858557735 346.571037046 -10 256 -10 c 3
265 29 m 3
 330.076812744 29 359 57.8 359 101 c 3
 359 135.928803609 341.820019523 172.214212975 251 189.653320312 c 1
 251 218.396484375 l 1
 350.197856212 227.688833356 356 253.920806974 356 293 c 3
 356 336.732666016 303.826544944 375 236 375 c 3
 156 375 108 305 108 228 c 3
 108 125 178 29 265 29 c 3
EndSplineSet
EndChar
StartChar: uni0261
Encoding: 609 609 625
Width: 463
UnlinkRmOvrlpSave: 1
Flags: HW
AnchorPoint: "Top" 252 465 basechar 0
AnchorPoint: "Bottom" 198 -15 basechar 0
LayerCount: 2
Fore
SplineSet
344 32 m 1
 310.083053234 15.6001291583 257.666946766 -9 196 -9 c 3
 102.91900059 -9 32 89.5152715203 32 182 c 3
 32 310.45761565 143.218817718 419 275 419 c 3
 344.157156808 419 344.157156808 395 372 395 c 3
 395 395 403 416 410 423 c 1
 429 412 l 1
 427 406 423.114234804 389.343131783 420 380 c 0
 414.000418527 362.000432249 408.04432932 342.108232993 405 266 c 0
 404 241 404 208.443359375 404 183 c 3
 404 75.7718062383 403 -43.371196161 403 -95 c 3
 403 -145 390.818956684 -175.880611215 377 -197 c 0
 354.752929688 -231 326.441437189 -252.377000749 287 -278 c 0
 249.55308107 -302.327267059 221.696296296 -319 171 -319 c 3
 132.719626168 -319 72.906542056 -304 43 -274 c 1
 44 -247 43 -247 92 -210 c 1
 129.556099398 -231.00036951 159.406908886 -259 196 -259 c 3
 219.176667204 -259 258.80566161 -259.641451465 274 -248 c 0
 302.595703125 -226.090820312 318.08871751 -185.934534561 325 -157 c 0
 332.3125 -125.220493621 338 -48.9492728157 338 143 c 3
 338 197.415039062 338 260.661132812 338 303 c 3
 338 309 333.484375679 324.52903977 328 332 c 0
 304.508713108 364.000446429 262.043565538 375 225 375 c 3
 158.117142229 375 106 299.475352894 106 216 c 3
 106 125.503180427 152.11702474 34 240 34 c 3
 302.38256392 34 331.098162287 62.9410351562 341 75 c 1
 344 32 l 1
EndSplineSet
EndChar
StartChar: uni026F
Encoding: 623 623 1573
Width: 679
VWidth: 1159
Flags: HW
AnchorPoint: "Top" 381 465 basechar 0
AnchorPoint: "Bottom" 300.51 -15 basechar 0
LayerCount: 2
Fore
SplineSet
85 327 m 3
 72 327 47.4111328125 292.719726562 42.8603515625 266 c 1
 23.7412109375 282 l 1
 34.896484375 336.689453125 101 397 146.581054688 413 c 1
 176.481445312 404 180 360.926757812 180 330 c 3
 180 249.705078125 137.7421875 176 138.525390625 104.166992188 c 0
 138.828125 76.4150390625 143.057617188 51 165.405273438 51 c 0
 211.305664062 51 300.452148438 220.567382812 306.979492188 250 c 0
 314.741210938 285 325.747070312 344.022460938 332.23828125 375 c 0
 334.495117188 385.768554688 334.83984375 395 339.350585938 402 c 1
 343.280273438 403 370.140625 405 376.140625 405 c 1
 380.140625 405 401.140625 405 403.209960938 404 c 1
 407.350585938 402 404.706054688 376.8515625 403.448242188 372 c 0
 395.557617188 341.575195312 381.326171875 289.016601562 374.349609375 259 c 0
 364.356445312 216 351.705078125 168.609375 347.951171875 136 c 0
 343.286132812 95.4873046875 345.684570312 54 376.684570312 54 c 3
 434.639648438 54 518.845703125 209 527.048828125 249 c 0
 538.038085938 302.588867188 544.276367188 325.793945312 553.448242188 372 c 0
 555.603515625 382.856445312 558.83984375 395 560.350585938 402 c 1
 561.209960938 404 591.280273438 403 596.280273438 403 c 1
 602.280273438 403 619.419921875 401 623.559570312 399 c 1
 625.700195312 397 623.272460938 375.923828125 622.448242188 372 c 0
 611.741210938 321 599.73828125 279.260742188 584.8671875 223 c 0
 574.91015625 185.330078125 564.799804688 152.0078125 562.020507812 135 c 0
 557.118164062 105 554 62 569 62 c 3
 584 62 620.048828125 106 637.880859375 137 c 1
 657 121 l 1
 629.474609375 57 573.024414062 -10 529.16015625 -10 c 3
 514.825195312 -10 497.135742188 2.458984375 492.481445312 14 c 0
 489.639648438 21.0478515625 485.897460938 36.03125 484.53515625 55.50390625 c 0
 482.694335938 81.8359375 494.78515625 112.434570312 504.321289062 145 c 1
 474.444335938 93.6669921875 400.956054688 -9 339.08984375 -9 c 3
 294.87890625 -9 277.58984375 30.8740234375 274.478515625 75.3642578125 c 0
 273.193359375 93.7431640625 274.584960938 112.37109375 278.30078125 131 c 1
 246.62890625 91.865234375 192.138671875 -5 123.321289062 -5 c 3
 73.3212890625 -5 60.7314453125 49.9541015625 73.7900390625 117 c 0
 88.8212890625 194.171875 111 254.013671875 111 279 c 3
 111 305.544921875 95.5888671875 327 85 327 c 3
EndSplineSet
EndChar
StartChar: uni0294
Encoding: 660 660 635
Width: 262
Flags: HW
LayerCount: 2
Fore
SplineSet
160 283 m 3
 160 206.666666667 161.065849207 88.5894040254 166 54 c 0
 168.183759552 39.025648788 187.153477109 35.7116307227 198 33 c 0
 214 29 232 28 246 27 c 1
 241 -7 l 1
 202 -1 158 4 116 4 c 3
 86 4 40 -1 10 -5 c 1
 8 28 l 1
 19 29 34.1817100136 30.1778373948 45 33 c 0
 68 39 80.1108857894 48.0777325584 83 76 c 0
 88 131.414141414 91 217.732323232 91 287 c 3
 91 376.025948344 160.105936136 379.848716935 222 418.352539062 c 0
 243.999999408 432.038569856 274 461.772250265 274 530 c 3
 274 642.514332634 202 720 106 720 c 3
 67 720 34 704 11 688 c 1
 -5 714 l 1
 29 741 88 771 148 771 c 3
 197 771 346 751.974146076 346 567 c 3
 346 466.487275562 271.557824116 407.238980513 223.365234375 380 c 0
 184.902691122 358.260548524 160 336.809455544 160 283 c 3
EndSplineSet
EndChar
StartChar: uni02BB
Encoding: 699 699 1530
Width: 157
Flags: HW
LayerCount: 2
Back
SplineSet
104.515552634 411.602132635 m 1
 86.7676678309 425.734325007 70.2890708398 449.958651684 70.2890708398 480.457282544 c 0
 70.2890708398 539.265836115 112.429950482 600.223916761 169.110393748 656.904360027 c 0
 176.807523682 664.601489962 184.801464365 672.23193247 193.038484401 679.778324132 c 1
 209.251216991 662.081839617 l 1
 201.244069642 654.746047094 193.505621438 647.358462221 186.080956496 639.933797279 c 0
 130.680736205 584.533576988 94.2843646928 527.710453625 94.2843646928 480.457282544 c 0
 94.2843646928 459.409712111 106.335339379 440.834714412 119.447337991 430.393961115 c 1
 104.515552634 411.602132635 l 1
EndSplineSet
Fore
SplineSet
191.018554688 687 m 1
 208.51953125 669 l 1
 158.212038597 630.508794365 83.9676661761 543.000152665 84 482 c 0
 84.0126690993 458.97892944 96.8070403203 441.038008373 106.442382812 433 c 0
 108.139570102 431.518140635 108.721679688 430.314124468 108.721679688 430 c 3
 108.721679688 428.798645551 108.090422233 427.119445535 107 426 c 0
 104.978498463 423.924693022 99.8557216264 418.232266844 97.5361328125 415 c 0
 96.3734389835 413.379826333 95.3526155795 412 93.9814453125 412 c 3
 93.4407252105 412 91.5785724045 413.025199577 90.5361328125 414 c 0
 72.8491810318 430.539325843 53.7161057786 459.0827865 62.8359375 506 c 0
 71.1943359375 549 102.663085938 608 191.018554688 687 c 1
EndSplineSet
EndChar
StartChar: hookabovecomb
Encoding: 777 777 297
Width: 0
VWidth: 1159
Flags: HW
AnchorPoint: "Top" -118 444 mark 0
AnchorPoint: "TopMark" -83.6768 639 basemark 0
AnchorPoint: "TopMark" -126.912 445 mark 0
LayerCount: 2
Fore
SplineSet
-168.81640625 596 m 1
 -154.952148438 633 -112.622070312 657 -76.3505859375 657 c 3
 -33.837890625 657 -14.37109375 621.619140625 -20.029296875 595 c 0
 -33.265625 532.725585938 -93.5029296875 543.372070312 -99.533203125 515 c 0
 -102.83984375 499.4453125 -100.912109375 487.206054688 -95.97265625 480 c 9
 -122.5859375 463 l 1
 -130.640625 473.411132812 -143.587890625 495.922851562 -139.321289062 516 c 0
 -131.1015625 554.669921875 -78.3837890625 548.634765625 -73.6298828125 571 c 0
 -68.0078125 597.453125 -71.109375 632 -94.6640625 632 c 3
 -105.512695312 632 -112.6015625 609.034179688 -116.6015625 587.599609375 c 1
 -127.872070312 587.599609375 -157.923828125 587.599609375 -168.81640625 596 c 1
EndSplineSet
EndChar
StartChar: Theta
Encoding: 920 920 1325
Width: 795
Flags: HW
AnchorPoint: "Bottom" 354 -15 basechar 0
AnchorPoint: "Top" 500 699 basechar 0
LayerCount: 2
Back
SplineSet
649.044921875 471.01953125 m 0
 655.500534077 471.01953125 661.04296875 465.480318822 661.04296875 459.021484375 c 0
 661.04296875 458.079237679 660.932617187 457.136990983 660.711914062 456.215820312 c 0
 648.050873847 403.278266517 632.238164557 325.565973403 625.860351562 271.376953125 c 0
 625.185208547 265.640403156 620.004089536 260.791992188 613.946289062 260.791992188 c 0
 607.49067686 260.791992188 601.948242188 266.33075376 601.948242188 272.7890625 c 0
 601.948242188 273.260646551 601.975911458 273.732230603 602.03125 274.201171875 c 0
 604.932323508 298.85119132 609.642616088 327.765860281 615.103515625 356.997070312 c 1
 221.036132812 356.001953125 l 2
 219.884714429 356.001953125 218.732895416 356.163910187 217.619140625 356.489257812 c 1
 211.319107719 328.07808296 203.918532575 299.683812411 195.438476562 270.625976562 c 0
 194.058504215 265.897476939 189.312833327 262.004882812 183.922851562 262.004882812 c 0
 177.46723936 262.004882812 171.924804688 267.543644385 171.924804688 274.001953125 c 0
 171.924804688 275.139644661 172.085611979 276.277336197 172.407226562 277.377929688 c 0
 190.948190909 340.913009161 204.117520179 400.703983631 211.895507812 464.622070312 c 0
 212.590613742 470.334180877 217.760627968 475.16015625 223.8046875 475.16015625 c 0
 230.260299702 475.16015625 235.802734375 469.620943822 235.802734375 463.162109375 c 0
 235.802734375 462.67480888 235.773111979 462.187508385 235.713867188 461.703125 c 0
 232.331397529 433.906496965 227.946596654 406.863229902 222.577148438 380.001953125 c 1
 616.963867188 380.998046875 l 2
 617.874249587 380.998046875 618.784882409 380.900499752 619.676757812 380.697265625 c 1
 625.465603453 409.806724507 631.718734965 438.165500652 637.377929688 461.827148438 c 0
 638.579783249 466.852621794 643.449392358 471.01953125 649.044921875 471.01953125 c 0
EndSplineSet
Fore
SplineSet
660.200195312 450.5 m 1
 648.836254498 405.754672548 632.680648483 329.217609898 627.77734375 281.5 c 1
 602.3515625 279.5 l 1
 615.595007472 356.601917234 616.049892707 357.065471447 600 357 c 0
 587.275403663 356.948093252 489.18259853 356.5 418.143554688 356.5 c 3
 346.311175172 355.5 243.598197291 355.761808363 230.65625 355.5 c 0
 211.198618129 355.106382979 221.406620604 355.893617021 197.77734375 281.5 c 1
 172.98828125 282.5 l 1
 191.466872725 341.272424086 202.394567014 395.542176445 211.05078125 454.5 c 1
 235.4765625 456.5 l 1
 224.092307692 380 219.051047751 380 239.126953125 380 c 0
 249.872808885 380 278.570724194 381 419 381 c 3
 562.026999897 381 594.160098922 380.963644973 603.064453125 381 c 0
 622.998787078 381.081388637 618.119116216 380.767461037 635.4140625 451.5 c 1
 660.200195312 450.5 l 1
EndSplineSet
Refer: 1307 927 N 1 0 0 1 0 0 2
Position2: "cpsp-1" dx=0 dy=0 dh=50 dv=100
Substitution2: "c2pc-1" theta.pcap
Substitution2: "c2sc-1" theta.smcp
EndChar
StartChar: Pi
Encoding: 928 928 1312
Width: 731
Flags: HW
AnchorPoint: "Top" 471.477 699 basechar 0
AnchorPoint: "Bottom" 334.942 -15 basechar 0
LayerCount: 2
Back
SplineSet
200 62 m 0x66
 201.587890625 25.9794921875 254 30 286 23 c 1
 286 23 282 0 281 -14 c 1xa6
 229.392578125 -5.3984375 184.431640625 -0.5546875 141.612304688 -0.5546875 c 0
 104.779296875 -0.5546875 69.53125 -4.138671875 33 -12 c 1
 33 -12 28 12 26 30 c 1
 62 36 101.34544837 36.0334357509 103 62 c 0
 110.200195312 175 114.879882812 340.890625 114.879882812 464.46875 c 0
 114.879882812 547.361383892 113.258977373 611.471785401 108 628 c 0
 101 650 69 650 31 655 c 1
 34 693 l 1x56
 69.91796875 688.40625 102 682.999999999 136.5 683.159179688 c 1
 278.306640625 682.954101562 495.950195312 683.123046875 643.5 682.71484375 c 1x26
 667 683 705.204101562 690.405273438 744 700 c 1
 750 663 l 1x0e
 701 651 689.792635159 653.014040394 688 625 c 0
 680.798828125 512.465154972 671.02734375 327.966622352 671.02734375 196.106445312 c 0
 671.02734375 126.701171875 673.181606793 71.7177589088 681 50 c 0
 690 25 718 24 748 22 c 1
 748 22 743 2 744 -12 c 1
 709.0078125 -4.607421875 673.044921875 -0.3720703125 635.391601562 -0.3720703125 c 0
 596.64453125 -0.3720703125 556.108398438 -4.8564453125 513 -15 c 1
 513 -15 507 8 505 20 c 1
 552 30 581.37251868 31.974641178 583 59 c 0
 589.517578125 167.228515625 592.3203125 263.8671875 592.3203125 365.913085938 c 0
 592.3203125 442.528130147 589.916464193 522.157208626 588 612 c 0
 587.643554688 628.709960938 564.991479162 642.760748965 527.5 644.53125 c 0
 456.383789062 647.889648438 347.714321473 646.905996016 262.5 647.43359375 c 0
 233.951171875 647.610351562 212.818670094 640.254715052 212 633 c 0
 202.6875 550.476484858 197.360351562 366.91915045 197.360351562 216.88671875 c 0
 197.360351562 157.0546875 198.211670138 102.56737206 200 62 c 0x66
EndSplineSet
Fore
SplineSet
168.637695312 62 m 0
 162.883789062 25.9794921875 216.115234375 30 246.6875 23 c 1
 246.6875 23 238 0 234.146484375 -14 c 1
 184.291785513 -5.39873231031 140.318231566 -0.554353199939 97.4988495319 -0.554353199939 c 0
 60.6660061893 -0.554353199939 24.6871674324 -4.1388469203 -13.4462890625 -12 c 1
 -13.4462890625 -12 -13.5537109375 12 -11.884765625 30 c 1
 25.337890625 36 65.337890625 36 71.6376953125 62 c 0
 101.669422768 174.248943447 139.852398081 338.688491445 165.048671807 461.999995711 c 0
 182.127094578 545.582434346 193.238988483 610.269262072 191.801757812 627 c 0
 189.28515625 649 157.28515625 649 120.3046875 654 c 1
 131.049804688 692 l 1
 166.03125 687.40625 198.260742188 682.858398438 231.543945312 683.159179688 c 1
 373.512695312 683.954101562 546.986328125 683.123046875 694.454101562 682.71484375 c 1
 724.923828125 681.813476562 757.725585938 689.405273438 798.477539062 699 c 1
 796.935546875 662 l 1
 745.489257812 650 734.897460938 652 727.190429688 624 c 0
 697.096679688 511.697265625 649.788085938 327.559570312 622.977539062 196 c 0
 608.84375 126.64453125 600.40625 71.90234375 603.19140625 50 c 0
 607.095703125 25 634.892578125 24 664.483398438 22 c 1
 664.483398438 22 655.407226562 2 653.553710938 -12 c 1
 620.068359375 -4.607421875 584.96875 -0.3720703125 547.315429688 -0.3720703125 c 0
 508.568359375 -0.3720703125 467.118164062 -4.8564453125 421.942382812 -15 c 1
 421.942382812 -15 420.630859375 8 421.076171875 20 c 1
 470.115234375 30 499.890625 31.974609375 507.026367188 59 c 0
 536.170898438 169.377929688 558.995117188 267.702148438 580.140625 372 c 0
 595.233398438 446.438476562 609.469726562 523.920898438 624.540039062 611 c 0
 627.58984375 627.709960938 607.958984375 642.413085938 570.670898438 643.53125 c 0
 500.239257812 646.889648438 435.508789062 646.584960938 350.26171875 646.43359375 c 0
 321.75 646.610351562 299.91015625 639.114257812 296.8203125 632 c 0
 270.9081882 550.24516932 228.665974482 369.089238703 198.204064499 220.000004648 c 0
 185.729561685 158.946246998 175.230612019 103.270064048 168.637695312 62 c 0
EndSplineSet
Position2: "cpsp-1" dx=0 dy=0 dh=50 dv=100
Substitution2: "c2pc-1" pi.pcap
Substitution2: "c2sc-1" pi.smcp
EndChar
StartChar: Psi
Encoding: 936 936 1313
Width: 724
Flags: HW
LayerCount: 2
Back
SplineSet
234 695 m 1
 283 686.6 321.5 683 360.75 683 c 0
 400 683 440 686.375 492 692 c 1
 494 649 l 1
 446 647 414.020863852 657.083748388 411 616 c 0
 406 548 400 461 399 351 c 1
 562 401 495 672 663 672 c 3
 700 672 715 656 724 638 c 1
 564 554 596 353 399 321 c 1
 399 246 398.132173205 160.9226225 403 66 c 0
 405 27 458 32 514 30 c 1
 513 -9 l 1
 461.492812273 -3.39030628718 404.264049355 -0.121256970764 349.006209155 -0.121256970764 c 0
 295.909427281 -0.121256970764 244.632422453 -3.13961017995 202 -10 c 1
 197 30 l 1
 259 30 316.79229808 26.9587564879 319 77 c 0
 322 145 323 233 323 321 c 1
 127 354 159 554 0 637 c 1
 9 655 24 671 61 671 c 3
 229 671 162 403 323 352 c 1
 323 454 322.159524169 552.085709967 317 614 c 0
 314 650 272 647 230 652 c 1
 234 695 l 1
EndSplineSet
Fore
SplineSet
381.7265625 695 m 1
 428.79296875 685.900390625 466.463867188 682 505.713867188 682 c 0
 544.963867188 682 585.760742188 685.75 639.088867188 692 c 1
 635.987304688 668 l 1
 523.586914062 652 517.3203125 669.202148438 510.823242188 639 c 0
 494.47265625 562.53125 473.31640625 464.698242188 446.481445312 341 c 1
 649.458007812 355 723.73828125 651 843.374023438 651 c 3
 854.8984375 651 857.5703125 641.587890625 858.123046875 631 c 1
 735.123046875 631 678.857421875 340.959960938 441.380859375 317 c 1
 423.750976562 234.05859375 402.907226562 136 381.439453125 35 c 0
 377.424804688 16.1103515625 385.208984375 29 516.975585938 14 c 1
 511.086914062 -9 l 1
 460.772460938 -3.390625 404.23828125 -0.12109375 348.98046875 -0.12109375 c 0
 295.883789062 -0.12109375 243.96484375 -3.1396484375 199.874023438 -10 c 1
 199.763671875 13 l 1
 349.2265625 34 351.65234375 13.5302734375 356.439453125 35 c 0
 373.963867188 113.58984375 395.762695312 215.294921875 417.380859375 317 c 1
 190.08984375 340.959960938 257.123046875 631 134.123046875 631 c 1
 139.176757812 641.587890625 145.849609375 651 157.374023438 651 c 3
 277.010742188 651 225.458007812 355 422.481445312 341 c 1
 448.141601562 457.015625 474.0234375 578.233398438 486.823242188 639 c 0
 493.466796875 670.536132812 482.524414062 647 373.837890625 672 c 1
 381.7265625 695 l 1
EndSplineSet
Position2: "cpsp-1" dx=0 dy=0 dh=50 dv=111
Substitution2: "c2pc-1" psi.pcap
Substitution2: "c2sc-1" psi.smcp
EndChar
StartChar: zeta
Encoding: 950 950 1242
Width: 419
UnlinkRmOvrlpSave: 1
Flags: HMW
LayerCount: 2
Fore
SplineSet
79.20703125 128 m 0
 138.595703125 407.399414062 386.833984375 717.10546875 680.828125 719 c 1
 681.342773438 716.713867188 680.735351562 713.857421875 680.127929688 711 c 0
 678.919921875 705.315429688 676.254882812 699.420898438 672.7265625 695 c 1
 630.651367188 695.262695312 585.205078125 680 531.538085938 680 c 3
 456.439453125 680 379.057617188 705.96484375 390.54296875 760 c 0
 398.407226562 797 424.571289062 826 491.997070312 828 c 1
 491.571289062 826 491.721679688 822 490.659179688 817 c 0
 489.862304688 813.25390625 486.704101562 806.864257812 484.895507812 804 c 1
 452.754882812 802 421.557617188 793 414.54296875 760 c 0
 409 733.923828125 460.17578125 683 637.654296875 713.479492188 c 1
 643.4296875 708.732421875 649.1953125 702.927734375 654.939453125 696 c 1
 372.8203125 671.915039062 156.657226562 379.459960938 103.20703125 128 c 0
 85.1953125 43.2587890625 142.939453125 30 184.376953125 30 c 3
 219.9765625 30 239.477539062 38 275.077148438 38 c 3
 360.686523438 38 383.614257812 -1.8125 372.734375 -53 c 0
 359.865234375 -113.545898438 294.288085938 -164 227.140625 -164 c 3
 189.140625 -164 163.75390625 -147 148.3046875 -135 c 1
 150.829101562 -129.2421875 160.99609375 -116.576171875 165.34375 -116 c 1
 178.09375 -123.759765625 202.641601562 -140 232.2421875 -140 c 3
 280.975585938 -140 337.944335938 -103.764648438 348.947265625 -52 c 0
 359.8671875 -0.6259765625 329.737304688 13 268.763671875 13 c 3
 239.763671875 13 214.275390625 6 179.275390625 6 c 3
 90.275390625 6 65.4892578125 63.4638671875 79.20703125 128 c 0
EndSplineSet
Substitution2: "pcap-1" z.pcap
Substitution2: "smcp-1" z.smcp
EndChar
StartChar: iota
Encoding: 953 953 309
Width: 292
Flags: HMW
AnchorPoint: "Top" 258.839 465 basechar 0
AnchorPoint: "Bottom" 136.812 -15 basechar 0
LayerCount: 2
Fore
SplineSet
121.4296875 82 m 0
 108.96875 23.375 123.71484375 15 132.188476562 15 c 3
 181.236328125 15 230.154296875 76 255.59375 111 c 1
 276.10546875 104 l 1
 240.584960938 49.796875 185.086914062 -9 125.086914062 -9 c 3
 96.7099609375 -9 84.5380859375 21.3505859375 97.4296875 82 c 0
 119.99609375 188.166015625 176.501953125 292.166992188 212.510742188 407 c 1
 214.4765625 407.547851562 234.779296875 413.3671875 237.510742188 407 c 1
 195.448242188 278.939453125 141.403320312 175.970703125 121.4296875 82 c 0
EndSplineSet
Substitution2: "pcap-1" i.pcap
Substitution2: "smcp-1" i.smcp
EndChar
StartChar: xi
Encoding: 958 958 1218
Width: 537
UnlinkRmOvrlpSave: 1
Flags: HMW
LayerCount: 2
Fore
SplineSet
418.510742188 407 m 1
 416.116210938 400.44140625 414.479492188 392.73828125 412.622070312 384 c 1
 233.8828125 357 124.235351562 245.749023438 104.095703125 151 c 0
 90.8369140625 88.6201171875 103.09765625 12 187.55078125 12 c 3
 252.236328125 12 338.922851562 64 404.603515625 64 c 3
 484.725585938 64 521.568359375 12.0810546875 510.709960938 -39 c 0
 498.498046875 -96.4541015625 437.01953125 -136 388.092773438 -136 c 3
 345.645507812 -136 313.561523438 -96.7548828125 306.908203125 -71 c 1
 313.356445312 -65.25 321.681640625 -57.5 327.883789062 -57 c 1
 337.55078125 -76.4033203125 355.268554688 -112 393.193359375 -112 c 3
 427.19140625 -112 477.119140625 -84.1240234375 486.709960938 -39 c 0
 498.859375 18.1572265625 436.579101562 40 398.501953125 40 c 3
 339.9453125 40 256.907226562 -12 182.44921875 -12 c 3
 73.44921875 -12 66.91796875 89 80.095703125 151 c 0
 93.6591796875 214.807617188 147.690429688 303.379882812 266.9453125 362 c 0
 319.537109375 387.8515625 390.778320312 411 475.360351562 411 c 1
 475.051757812 406.274414062 468.840820312 391.78125 462.471679688 388 c 1
 443.514648438 388 389.75 380 358.771484375 380 c 3
 275.747070312 380 193.037109375 418.885742188 208.578125 492 c 0
 221.970703125 555.006835938 310.702148438 709 616.016601562 734 c 1
 615.193359375 730.126953125 609.076171875 714.633789062 602.702148438 709 c 1
 439.813476562 686 454.955078125 675 405.475585938 675 c 3
 329.513671875 675 294.5859375 727.270507812 301.967773438 762 c 0
 312.80859375 813 362.759765625 841 417.759765625 841 c 1
 416.01171875 834.454101562 413.983398438 823.233398438 407.659179688 817 c 1
 387.659179688 817 335.709960938 807.833007812 325.967773438 762 c 0
 322.9921875 748 344.630859375 677 461.064453125 706 c 1
 461.584960938 698.999023438 462.03125 691.658203125 462.388671875 684 c 1
 345.374023438 651 248.342773438 566.166992188 232.578125 492 c 0
 217.28125 420.036132812 337.53515625 393 418.510742188 407 c 1
EndSplineSet
Substitution2: "pcap-1" xi.pcap
Substitution2: "smcp-1" xi.smcp
EndChar
StartChar: omega
Encoding: 969 969 366
Width: 697
UnlinkRmOvrlpSave: 1
Flags: HMW
AnchorPoint: "Top" 462.324 465 basechar 0
AnchorPoint: "Bottom" 331.297 -15 basechar 0
LayerCount: 2
Fore
SplineSet
558.998046875 414 m 3
 637.865234375 414 711.055664062 324.881835938 689.1875 222 c 0
 658.822265625 79.1435546875 539.943359375 -5 454.9375 -5 c 3
 366.223632812 -5 343.556640625 82.595703125 362.984375 174 c 0
 368.611328125 200.47265625 371.692382812 214.965820312 377.588867188 238 c 1
 387.369140625 240 392.658203125 240 402.013671875 240 c 1
 396.954101562 220.900390625 392.67578125 200.774414062 386.984375 174 c 0
 364.006835938 65.89453125 294.92578125 -5 209.9375 -5 c 3
 141.206054688 -5 64.580078125 54.4814453125 94.4482421875 195 c 0
 118.032226562 305.951171875 221.20703125 414 307.998046875 414 c 3
 348.814453125 414 381.747070312 394 379.607421875 351 c 1
 376.259765625 345.600585938 364.13671875 340.799804688 355.056640625 339 c 1
 357.8203125 363.763671875 348.716796875 390 302.897460938 390 c 3
 226.102539062 390 138.030273438 282.418945312 119.448242188 195 c 0
 101.850585938 112.208984375 122.987304688 20 215.250976562 20 c 3
 274.525390625 20 336.116210938 57 366.748046875 187 c 1
 373.400390625 188 380.666992188 188 388.9609375 188 c 1
 365.81640625 65 405.125976562 19 461.0390625 19 c 3
 534.045898438 19 638.431640625 96.123046875 665.1875 222 c 0
 682.322265625 302.611328125 627.826171875 390 553.897460938 390 c 3
 521.022460938 390 502.58984375 369.489257812 496.33203125 345 c 1
 490.772460938 344.916992188 475.745117188 346.356445312 474.607421875 351 c 1
 485.104492188 395.400390625 529.532226562 414 558.998046875 414 c 3
EndSplineSet
Substitution2: "pcap-1" omega.pcap
Substitution2: "smcp-1" omega.smcp
EndChar
StartChar: omega1
Encoding: 982 982 368
Width: 710
UnlinkRmOvrlpSave: 1
Flags: HW
LayerCount: 2
Fore
SplineSet
107 263 m 1
 104.200195312 249 91.94140625 231 75 231 c 3
 51.8037109375 231 39 259.760742188 39 285 c 3
 39 310.666015625 56.90625 357.681640625 165 392.240234375 c 0
 211.862304688 407.22265625 277.163085938 412 366 412 c 3
 452.34765625 412 537.641601562 401 588 401 c 3
 622.234375 401 656 408.729492188 663 454 c 1
 673.76953125 451.666992188 680.23046875 449.333007812 691 447 c 1
 666 351.318359375 654.030273438 345.822265625 555 345 c 0
 409.212890625 343.790039062 322.37109375 348.348632812 176 343 c 0
 144.172851562 341.836914062 82 331.955078125 82 287 c 3
 82 275.009765625 93.27734375 268.142578125 107 263 c 1
457 369 m 1
 531.145507812 360.889648438 647 265.478515625 647 160 c 3
 647 65.7666015625 566.82421875 -4 475 -4 c 3
 374.137695312 -4 346.080078125 93.4384765625 346.080078125 189 c 3
 346.080078125 202.634765625 349.607421875 216.078125 352 229 c 1
 370.88671875 240 409.30078125 255 425 243 c 1
 429 221 435 208.954101562 435 187 c 3
 435 64.5849609375 378.091796875 0 285 0 c 3
 202.798828125 0 133 63.90234375 133 146 c 3
 133 249.364257812 209 343.116210938 303 365 c 1
 320.806640625 362 331.193359375 360 349 357 c 1
 263.813476562 332.834960938 205 270.666015625 205 188 c 3
 205 87.2958984375 265.55859375 48 304 48 c 3
 358.1640625 48 374.833007812 98 389 142 c 1
 405 88 411.836914062 40 461 40 c 3
 528.904296875 40 574 96.599609375 574 158 c 3
 574 249.30859375 545.123046875 318.973632812 426 357 c 1
 457 369 l 1
EndSplineSet
Substitution2: "smcp-1" pi.smcp
Substitution2: "pcap-1" pi.pcap
EndChar
StartChar: afii10021
Encoding: 1044 1044 12
Width: 696
Flags: HW
AnchorPoint: "Bottom" 314.942 -15 basechar 0
AnchorPoint: "Top" 535.477 699 basechar 0
LayerCount: 2
Fore
SplineSet
419.87109375 35.6650390625 m 3
 441.234375 35.6650390625 457.54296875 53.275390625 464.116210938 77 c 0
 507.0625 232 545.80078125 405.224609375 576.259765625 614 c 0
 578.447265625 629 567.609375 643 557.423828125 643 c 0
 513.162109375 643 477.016601562 649.41796875 426.1484375 637 c 0
 410.182617188 633.102539062 385.66796875 618.458007812 378.546875 592 c 0
 330.27734375 412.6640625 259.20703125 134.311523438 112.524414062 37 c 1
 203.9140625 37 309.465820312 35.6650390625 419.87109375 35.6650390625 c 3
430.745117188 684.529296875 m 1
 485.012695312 684 599.090820312 683.529296875 615.543945312 683.529296875 c 0
 654.177734375 683.529296875 660.418945312 679 774.838867188 692 c 1
 767.69921875 649 l 1
 718.553710938 647 689.2109375 656.96484375 676.684570312 616 c 0
 640.602539062 498 594.544921875 319.263671875 551.778320312 66 c 0
 549.133789062 50.3388671875 554.865234375 41.7734375 565.624023438 37 c 1
 641.614257812 37 l 1
 582.736328125 -240 l 1
 543.736328125 -240 l 1
 558.436523438 -63.9951171875 546.223632812 -6.1845703125 465.223632812 -0.4794921875 c 1
 367.666015625 -0.5537109375 256.573242188 -0.23828125 160.760742188 0.05078125 c 1
 160.75 0 l 1
 66.75 0 29.271484375 -54 -34.263671875 -240 c 1
 -73.263671875 -240 l 1
 -14.3857421875 37 l 1
 27.6044921875 37 l 1
 153.811523438 61.431640625 291.91796875 306.875 340.897460938 617 c 1
 346.049804688 659.206054688 312.405273438 648.939453125 264.124023438 651 c 1
 275.263671875 694 l 1
 383.831054688 679.46484375 392.111328125 684.529296875 430.745117188 684.529296875 c 1
EndSplineSet
Position2: "cpsp-1" dx=0 dy=0 dh=50 dv=100
EndChar
StartChar: afii10041
Encoding: 1063 1063 30
Width: 704
Flags: HW
AnchorPoint: "Top" 447.477 699 basechar 0
AnchorPoint: "Bottom" 450.904 -15 basechar 0
LayerCount: 2
Fore
SplineSet
629 343 m 0
 615.821289062 281 578.348632812 100 574.459960938 77 c 1
 568.508789062 49 591.3828125 39 642.256835938 29 c 1
 624.817382812 -6 l 1
 562.305664062 1 556.518554688 2 515.518554688 2 c 3
 474.518554688 2 396.243164062 -4 342.330078125 -13 c 1
 345.256835938 29 l 1
 457.682617188 31 472.696289062 64 480.310546875 81 c 0
 508.701171875 144 516.580078125 214 544.536132812 322 c 1
 464.333984375 274 346.532226562 242 293.532226562 242 c 3
 161.532226562 242 109.198242188 311 123.81640625 408 c 0
 127.91796875 432 128.255859375 443 141.434570312 505 c 0
 155.887695312 573 167.028320312 616 171.279296875 636 c 0
 175.10546875 654 154.592773438 661 141.805664062 662 c 0
 137.018554688 663 121.018554688 663 115.23046875 664 c 1
 128.669921875 699 l 1
 162.969726562 691 187.756835938 690 226.756835938 690 c 3
 266.756835938 690 306.39453125 693 342.245117188 697 c 1
 339.23046875 664 l 1
 323.018554688 663 314.592773438 661 297.380859375 660 c 0
 272.955078125 658 262.766601562 643 251.752929688 610 c 0
 245.713867188 591 240.462890625 571 236.63671875 553 c 0
 224.30859375 495 217.380859375 453 216.280273438 429 c 0
 217.913085938 352 248.860351562 300 356.860351562 300 c 3
 418.860351562 300 500.811523438 328 551.463867188 364 c 1
 564.303710938 415 571.129882812 433 584.946289062 498 c 0
 600.038085938 569 606.602539062 614 608.916992188 639 c 0
 610.743164062 657 587.743164062 657 575.16796875 659 c 0
 567.380859375 660 551.23046875 664 542.443359375 665 c 1
 554.245117188 697 l 1
 596.182617188 692 627.756835938 690 673.756835938 690 c 3
 704.756835938 690 741.8203125 695 773.458007812 698 c 1
 770.868164062 667 l 1
 757.443359375 665 748.65625 666 735.592773438 661 c 0
 717.10546875 654 706.979492188 644 697.177734375 612 c 0
 677.999023438 550 645.579101562 421 629 343 c 0
EndSplineSet
Position2: "cpsp-1" dx=0 dy=0 dh=50 dv=100
EndChar
StartChar: afii10042
Encoding: 1064 1064 31
Width: 986
Flags: HMW
AnchorPoint: "Bottom" 452.942 -15 basechar 0
AnchorPoint: "Top" 601.477 699 basechar 0
LayerCount: 2
Fore
SplineSet
881.515625 621 m 0
 888.02734375 657.020507812 849.387695312 653 827.805664062 660 c 1
 827.805664062 660 836.694335938 683 840.669921875 697 c 1
 923.978515625 681 989.276367188 678 1064.24511719 695 c 1
 1064.24511719 695 1064.14355469 671 1062.31738281 653 c 1
 1025.04199219 647 985.689453125 646.966796875 978.515625 621 c 0
 926.484375 432.666992188 849.081054688 97.087890625 853.420898438 56 c 0
 855.745117188 34 887.745117188 34 924.682617188 29 c 1
 913.60546875 -9 l 1
 878.6640625 -4.40625 846.8984375 0.9755859375 813.197265625 0.8408203125 c 0
 612.205078125 0.0458984375 306.795898438 15.6640625 95.291015625 1.28515625 c 0
 64.802734375 -0.8134765625 31.9521484375 -6.4052734375 -8.8828125 -16 c 1
 -7.0185546875 21 l 1
 44.5322265625 33 55.3076171875 30.986328125 63.05859375 59 c 0
 110.513671875 230.505859375 201.337890625 570.118164062 192.06640625 633 c 0
 188.380859375 658 160.592773438 659 131.018554688 661 c 1
 131.018554688 661 140.26953125 681 142.245117188 695 c 1
 206.060546875 680 276.415039062 678 360.8828125 698 c 1
 360.8828125 698 361.994140625 675 361.443359375 663 c 1
 320.151367188 653 295.521484375 651.010742188 288.153320312 624 c 0
 236.556640625 434.84375 205.815429688 281.140625 165.822265625 72 c 0
 162.626953125 55.2900390625 182.08984375 40.4248046875 219.407226562 39.46875 c 0
 263.036132812 38.4189453125 313.043945312 35.7421875 368.572265625 38.4580078125 c 0
 388.37890625 39.4267578125 402.514648438 46.337890625 404.358398438 52 c 0
 441.887695312 167.234375 511.825195312 478.884765625 537.515625 621 c 0
 544.02734375 657.020507812 505.387695312 653 483.805664062 660 c 1
 483.805664062 660 492.694335938 683 496.669921875 697 c 1
 574.946289062 681 636.41796875 678 707.245117188 695 c 1
 707.245117188 695 707.143554688 671 705.317382812 653 c 1
 674.120117188 647 641.685546875 646.950195312 634.515625 621 c 0
 582.484375 432.666992188 505.08203125 97.087890625 509.420898438 56 c 0
 510.498046875 45.8017578125 516.755150652 37.3492332526 529.317382812 36.8984375 c 0
 586.520507812 34.845703125 642.983398438 34.8876953125 694.791015625 36.56640625 c 0
 723.287349929 37.4897667648 745.99609375 43.7451171875 748.358398438 51 c 0
 785.887695312 166.234375 855.825195312 478.884765625 881.515625 621 c 0
EndSplineSet
Position2: "cpsp-1" dx=0 dy=0 dh=50 dv=100
EndChar
StartChar: afii10067
Encoding: 1074 1074 50
Width: 348
Flags: HW
AnchorPoint: "Bottom" 112.812 -15 basechar 0
AnchorPoint: "Top" 263.751 465 basechar 0
LayerCount: 2
Back
SplineSet
69.919921875 176.475009324 m 0
 66.1140042477 176.475009324 62.2897452469 178.517636166 60.1595101268 181.488982816 c 1
 57.8597773594 165.092531822 56.6349639154 147.60479712 56.6349637009 128.930809157 c 0
 56.6349637009 85.0984950775 66.3301100332 51.774088227 84.9163223401 33.1878759201 c 0
 97.0114760809 21.0927221793 113.464800431 13.9956938015 136.9453125 13.9956938015 c 0
 170.259164712 13.9956938015 211.245453225 32.7688498866 240.987935421 62.5113320833 c 0
 265.680842513 87.2042391749 282.014071824 118.574762943 282.014071824 151.177734375 c 0
 282.014071824 163.858065837 277.46129715 173.531941291 269.378971071 181.61426737 c 0
 253.906436646 197.086801796 223.869208698 206.004306199 191.958984375 206.004306199 c 0
 183.075384379 206.004306199 173.968317827 205.307802289 164.831799167 204.098048433 c 1
 159.435853848 227.371342929 l 1
 190.836996152 237.845508887 224.234985785 254.186544167 247.833428576 277.784986957 c 0
 268.370553915 298.322112297 281.812899949 324.093738022 281.812899949 357.958984375 c 0
 281.812899949 374.899598164 277.953434886 383.757324737 273.101776213 388.60898341 c 0
 267.907530959 393.803228663 258.81836409 397.004306199 243.556640625 397.004306199 c 0
 207.004758167 397.004306199 178.900795156 377.638868003 149.406890167 351.243922977 c 0
 108.409123266 314.553840602 76.2274418681 266.785686382 62.9501921141 198.243049063 c 1
 64.0724857011 199.045214419 65.3024040961 199.630699536 66.5818040551 199.999504454 c 0
 94.1987079836 207.960460903 117.023296663 216.707231027 148.05800172 223.386029192 c 0
 148.893861763 223.565909765 149.745270725 223.655850051 150.596679688 223.655850051 c 0
 157.052076695 223.655850051 162.594326614 218.11682227 162.594326614 211.658203125 c 0
 162.594326614 205.963327299 158.286456562 201.038915059 153.135357655 199.930377058 c 0
 123.684573804 193.592445352 100.35648894 184.757312727 73.2580396949 176.945808046 c 0
 72.1692255403 176.631942231 71.0445737077 176.475009324 69.919921875 176.475009324 c 0
220.659576353 227.951682513 m 1
 262.330230409 221.787286882 306.009365676 199.121549183 306.009365676 151.177734375 c 0
 306.009365676 110.361075737 285.904372245 73.4866434096 257.95849817 45.5407693348 c 0
 224.38235778 11.9646289448 178.608747469 -9.99960005149 136.9453125 -9.99960005149 c 0
 108.281936969 -9.99960005149 84.9184218013 -0.75534903808 67.9457595916 16.2173131716 c 0
 42.2850853916 41.8779873717 32.6396698479 82.2888432516 32.6396698479 128.930809157 c 0
 32.6396698479 242.322666221 75.4592481844 317.27423516 133.415375458 369.140842648 c 0
 163.760841064 396.297873798 197.61158119 420.999600051 243.556640625 420.999600051 c 0
 261.5588075 420.999600051 278.178933041 417.472952078 290.072338961 405.579546158 c 0
 301.226361078 394.425524042 305.808193801 378.188065466 305.808193801 357.958984375 c 0
 305.808193801 293.814332084 264.329566086 252.5288283 220.659576353 227.951682513 c 1
EndSplineSet
Fore
SplineSet
60 171 m 1
 57.87109375 165.686523438 57.7558991709 168.413099498 57.2998046875 163 c 0
 50.8424129933 86.361266121 66.6074509347 14 134 14 c 3
 205.063747945 14 275.114209151 78.4547713909 282 141 c 0
 289.083333333 205.015151515 201.267444587 206 197 206 c 3
 153.680898149 206 74.4002698764 176.94609375 60 171 c 1
82.3349609375 259 m 1
 76.0807314781 245.354492188 68.2513731372 222.27734375 62.58203125 199 c 1
 93.0392954883 207.909179688 145.975019649 229 197.958984375 229 c 3
 273.750602636 229 312.370214078 188.961712627 306 138 c 0
 297 66 220.697972485 -10 132.9453125 -10 c 3
 46.9266912736 -10 13.8451999514 81.2538525246 40.794921875 201 c 0
 62.7955632808 298.75581573 96 335 144.841796875 379 c 0
 174.860134274 406.042552282 201.283944501 421 244.556640625 421 c 3
 298.846997053 421 311.638309676 382.024801099 304.287109375 335.779296875 c 0
 293.261455294 266.418252215 228.710457856 219.631674146 151.247070312 200 c 1
 147.045898438 223 l 1
 226 249 269.652446533 281.383177607 281.229492188 343.703125 c 0
 285 364 284.553921673 397 245 397 c 3
 173.521248379 397 98.8981759381 306.379562044 82.3349609375 259 c 1
EndSplineSet
EndChar
StartChar: afii10091
Encoding: 1097 1097 73
Width: 696
VWidth: 1159
Flags: HW
LayerCount: 2
Fore
SplineSet
627 96 m 1
 647 87 l 1
 646.004882812 84.2763671875 643.884765625 79.1923828125 642.09375 69.978515625 c 0
 639.494140625 56.6025390625 638.55078125 43.4384765625 638.55078125 30.373046875 c 3
 638.55078125 0.474609375 645.15234375 -28.828125 645.15234375 -59.3486328125 c 3
 645.15234375 -142.916015625 597.0546875 -208.01953125 530.447265625 -208.01953125 c 3
 473.451171875 -208.01953125 447.655273438 -178.075195312 442.3359375 -162.2421875 c 1
 455.778320312 -146.299804688 l 1
 467.932617188 -154.55859375 484.002929688 -155.72265625 499.056640625 -155.72265625 c 3
 527 -155.72265625 603.1640625 -131.653320312 603.1640625 49.640625 c 3
 603.1640625 57.22265625 603.090820312 64.9892578125 602.977539062 73 c 1
 627 96 l 1
EndSplineSet
Refer: 1573 623 N 1 0 0 1 8 0 2
EndChar
StartChar: afii10101
Encoding: 1108 1108 82
Width: 380
UnlinkRmOvrlpSave: 1
Flags: HW
LayerCount: 2
Back
SplineSet
54 185.002353074 m 0
 47.544602992 185.002353074 42.0023530735 190.541380855 42.0023530735 197 c 0
 42.0023530735 203.343985053 47.3312656152 208.763594501 53.5615778289 208.989694541 c 2
 301.561577829 217.989694541 l 2
 301.707666103 217.994996131 301.853833052 217.997646926 302 217.997646926 c 0
 308.455397008 217.997646926 313.997646926 212.458619145 313.997646926 206 c 0
 313.997646926 199.656014947 308.668734385 194.236405499 302.438422171 194.010305459 c 2
 54.4384221711 185.010305459 l 2
 54.2923338969 185.005003869 54.1461669485 185.002353074 54 185.002353074 c 0
EndSplineSet
Fore
SplineSet
55 209.55078125 m 1
 135.140754668 212.167352568 261.842275026 216.597892437 309 218 c 1
 302 194 l 1
 284.731766046 193.40713792 256.034631984 191.539746835 226.140625 190.745117188 c 0
 159 189.204172098 106.339362776 187.305174166 55 184 c 1
 55 209.55078125 l 1
EndSplineSet
Refer: 177 99 N 1 0 0 1 1 0 2
EndChar
StartChar: uni0593
Encoding: 1427 1427 731
Width: 0
Flags: HW
LayerCount: 2
Back
SplineSet
190.704196356 647.145438474 m 0
 184.248799348 647.145438474 178.70654943 652.684466255 178.70654943 659.1430854 c 0
 178.70654943 664.355576181 182.376762846 669.004792969 186.867537366 670.51437083 c 2
 285.861893802 703.791412072 l 1
 185.791932499 727.433572198 l 1
 184.98503027 750.562626791 l 1
 283.86248654 781.341142302 l 1
 187.756220556 805.129114136 l 1
 187.0340473 828.215777581 l 1
 318.909837574 869.766089202 l 2
 320.08581034 870.136604781 321.30774877 870.321862571 322.529687201 870.321862571 c 0
 328.985084208 870.321862571 334.527334127 864.78283479 334.527334127 858.324215645 c 0
 334.527334127 853.028137653 330.752589299 848.332633033 326.149536827 846.882342087 c 2
 234.992486099 818.161347458 l 1
 331.375215433 794.304946138 l 1
 332.05793848 771.205927897 l 1
 234.039751612 740.694885252 l 1
 332.294981564 717.481466865 l 1
 333.358143365 694.435355195 l 1
 194.540855346 647.771799971 l 2
 193.298632461 647.35422564 192.001414409 647.145438474 190.704196356 647.145438474 c 0
EndSplineSet
Fore
SplineSet
331.080078125 873.600585938 m 1
 337.34375 850.543945312 l 1
 236 818 l 1
 340.475585938 792.080078125 l 1
 340.475585938 773.200195312 l 1
 234 741 l 1
 341.51953125 714.912109375 l 1
 341.51953125 697.120117188 l 1
 182.83203125 643.919921875 l 1
 175.48046875 667.064453125 l 1
 285 704 l 1
 176.567382812 729.440429688 l 1
 176.567382812 748.3203125 l 1
 284 781 l 1
 178.65625 807.608398438 l 1
 178.65625 825.576171875 l 1
 331.080078125 873.600585938 l 1
EndSplineSet
EndChar
StartChar: uni05A1
Encoding: 1441 1441 745
Width: 0
Flags: HW
LayerCount: 2
Fore
SplineSet
191 677 m 1
 210.918645001 712.367107128 224.974265809 755.771919801 225 814 c 1
 265 810 l 1
 265 788.338066502 254.528449992 757.536909458 251 746 c 1
 285.141988231 747.536108197 309.5251983 779.292855281 311 820 c 1
 347 810 l 1
 338.264942246 761.813668026 298.626330896 721.393316589 243 723 c 1
 235.282380058 700.76269057 224.774194823 679.927707791 211 664 c 1
 191 677 l 1
EndSplineSet
EndChar
StartChar: uni05A9
Encoding: 1449 1449 753
Width: 0
Flags: HW
LayerCount: 2
Back
SplineSet
92.408203125 714.995293853 m 0
 124.40526537 714.995293853 148.004706147 739.075755448 148.004706147 770.8984375 c 0
 148.004706147 802.49132019 123.840588183 831.004706147 91.8056640625 831.004706147 c 0
 60.0668480661 831.004706147 31.995293853 802.545389458 31.995293853 770.8984375 c 0
 31.995293853 738.659921941 60.5235479827 714.995293853 92.408203125 714.995293853 c 0
91.8056640625 855 m 0
 137.419153938 855 172 815.579124416 172 770.8984375 c 0
 172 755.517237774 167.938709923 741.161148075 160.666666353 728.971309589 c 1
 216.776575171 681.139911907 l 2
 219.407804088 678.896897093 220.997646926 675.417437098 220.997646926 672 c 0
 220.997646926 665.544602992 215.458619145 660.002353074 209 660.002353074 c 0
 206.229160082 660.002353074 203.458320164 660.954931413 201.223424829 662.860088093 c 2
 145.327053357 710.509453938 l 1
 131.377945421 698.245999108 112.930725124 691 92.408203125 691 c 0
 47.5236748059 691 8 725.084784087 8 770.8984375 c 0
 8 816.109123034 46.4676078204 855 91.8056640625 855 c 0
EndSplineSet
Fore
SplineSet
138.454101562 715.69921875 m 1
 153.73828125 734.680664062 l 1
 218.544921875 680.30078125 l 1
 203.26171875 661.319335938 l 1
 138.454101562 715.69921875 l 1
93 831 m 3
 56.4142257441 831 32 799.951328961 32 771 c 3
 32 738.532362201 60.1632518628 715 93 715 c 3
 126.889516974 715 148 741.89944894 148 772 c 3
 148 801.662237444 124.500310413 831 93 831 c 3
91.8056640625 855 m 3
 136.26595982 855 172 816.733597587 172 770.8984375 c 3
 172 727.016233648 138.421979549 691 92.408203125 691 c 3
 45.5619173795 691 8 727.016233648 8 770.8984375 c 3
 8 815.892472547 46.3236325068 855 91.8056640625 855 c 3
EndSplineSet
EndChar
StartChar: afii57665
Encoding: 1489 1489 96
Width: 396
UnlinkRmOvrlpSave: 1
Flags: HW
AnchorPoint: "HbTopLeft" 128.68 618.44 basechar 0
AnchorPoint: "HbBottom" 167 0 basechar 0
AnchorPoint: "HbMiddle" 196 283 basechar 0
AnchorPoint: "HbTop" 256 618.44 basechar 0
LayerCount: 2
Back
SplineSet
-3.0986328125 14.82421875 m 0
 -3.0986328125 21.2802734375 2.4404296875 26.822265625 8.8984375 26.822265625 c 0
 12.0009765625 26.822265625 14.7021484375 25.3427734375 16.9697265625 23.9609375 c 1
 285.984375 24.1943359375 l 2
 286.020676391 24.1943674328 286.061674661 24.5829719787 286.107421875 24.7763671875 c 0
 297.076171875 71.1464843748 314.758789279 139.348132232 316.008789062 144.284179688 c 0
 331.775390625 206.543945312 339.072265625 270.890625 339.072265625 329.083007812 c 0
 339.072265625 355.0703125 337.618510978 379.825118496 334.841796875 402.587890625 c 0
 327.591796875 462.021484375 310.263183602 506.387207026 292.833007812 523.817382812 c 0
 289.989257812 526.661132812 287.235070892 528.774629992 284.678710938 530.265625 c 0
 283.7109375 530.830078125 270.034264882 535.27194834 255.995117188 537.849609375 c 0
 231.751953124 542.30078125 210.379022757 545.073956092 189.858398438 546.9296875 c 0
 189.11328125 546.997070312 188.656545398 547.125700615 188.466796875 547.159179688 c 2
 151.892578125 553.612304688 l 2
 147.22372567 554.436073165 144.728390048 555.655851806 141.352539062 556.720703125 c 0
 136.751953125 558.171875 132.978515625 562.864257812 132.978515625 568.161132812 c 0
 132.978515625 574.6171875 138.517578125 580.159179688 144.975585938 580.159179688 c 0
 148.852539062 580.159179688 153.222588558 577.745710186 156.087890625 577.240234375 c 0
 172.971679688 574.26171875 187.603415829 571.26184477 205.569335938 569.154296875 c 0
 228.787109375 566.430664062 279.323889726 561.187632633 296.7734375 551 c 0
 301.328125 548.340820312 305.669433565 544.921386748 309.803710938 540.787109375 c 0
 334.29296875 516.297851562 351.116494671 467.363554119 358.66015625 405.514648438 c 0
 361.568359375 381.670898438 363.068359375 355.970703125 363.068359375 329.083007812 c 0
 363.068359375 268.86328125 355.557838853 202.663029778 339.24609375 138.280273438 c 0
 335.135742188 122.056640625 321.092773438 68.0009765623 310.622070312 24.1318359375 c 1
 317.783203125 24.0537109375 322.419911789 23.9029779532 328.778320312 23.7158203125 c 0
 335.048828125 23.53125 340.419921875 18.0927734375 340.419921875 11.7236328125 c 0
 340.419921875 5.2685546875 334.880859375 -0.2744140625 328.421875 -0.2744140625 c 0
 317.409179688 -0.2744140625 313.620102905 0.222558223956 294.551757812 0.2060546875 c 2
 13.59765625 -0.037109375 l 0
 9.1533203125 -0.037109375 5.66802660232 2.73739959328 2.65625 4.5732421875 c 0
 -0.6552734375 6.591796875 -3.0986328125 10.66015625 -3.0986328125 14.82421875 c 0
EndSplineSet
Fore
SplineSet
296.7734375 551 m 0
 330.330239944 534.969088725 416.032226562 402.29296875 315.686523438 39.640625 c 0
 311.291015625 23.7548828125 332.3828125 27.0546875 341.78125 23 c 1
 337.323242188 -0.4404296875 l 1
 254.636242798 0.112235649004 68.9262354978 0.00401106234274 10.224609375 -0.0400390625 c 1
 -5 9.240234375 l 1
 2.8017578125 27.7197265625 l 1
 26.7998046875 22.2373046875 3.8564453125 23.55859375 285.543945312 23.634765625 c 1
 382.78125 344 321.78125 516 283.78125 530 c 0
 230.111328125 549.7734375 148.78125 543 128.78125 566 c 1
 137.698242188 583.040039062 l 1
 181.79521397 566.132550591 260 568.567577091 296.7734375 551 c 0
EndSplineSet
EndChar
StartChar: afii57670
Encoding: 1494 1494 101
Width: 288
UnlinkRmOvrlpSave: 1
Flags: HW
AnchorPoint: "HbMiddle" 50 284 basechar 0
AnchorPoint: "HbTopLeft" 80.68 619.44 basechar 0
AnchorPoint: "HbBottom" 135 0 basechar 0
AnchorPoint: "HbTop" 184 620.6 basechar 0
LayerCount: 2
Back
SplineSet
155.232421875 5 m 0
 155.232421875 -1.455078125 149.693359375 -6.998046875 143.234375 -6.998046875 c 0
 137.131835938 -6.998046875 131.908203125 -2.07421875 131.301757812 3.748046875 c 0
 119.680664062 115.330078125 105.80859375 202.762695312 105.80859375 343.811523438 c 0
 105.80859375 405.837890625 121.919921875 467.088867188 163.307617188 508.4765625 c 0
 178.763671875 523.932617188 197.6171875 536.35546875 219.96484375 544.817382812 c 1
 175.831054688 548.345703125 108.268554688 549.173828125 76.4794921875 558.090820312 c 0
 71.6875 559.435546875 67.7373046875 564.20703125 67.7373046875 569.641601562 c 0
 67.7373046875 576.096679688 73.2763671875 581.639648438 79.734375 581.639648438 c 0
 80.8310546875 581.639648438 81.927734375 581.490234375 82.990234375 581.192382812 c 0
 113.008789062 572.771484375 197.245117188 571.759765625 239.33203125 567.107421875 c 0
 253.841796875 565.50390625 265.56640625 563.751953125 274.422851562 559.809570312 c 0
 278.385742188 558.044921875 281.532226562 553.626953125 281.532226562 548.84765625 c 0
 281.532226562 546.087890625 280.440429688 543.438476562 279.899414062 541.18359375 c 0
 278.77734375 536.512695312 274.549804688 532.642578125 269.599609375 532.080078125 c 0
 230.516601562 527.635742188 201.6015625 512.829101562 180.278320312 491.505859375 c 0
 145.268554688 456.49609375 129.803710938 402.025390625 129.803710938 343.811523438 c 0
 129.803710938 204.490234375 143.591796875 117.392578125 155.16796875 6.251953125 c 0
 155.2109375 5.8359375 155.232421875 5.41796875 155.232421875 5 c 0
EndSplineSet
Fore
SplineSet
285.234375 555.879882812 m 1
 281.724609375 548.4375 278.473632812 540.995117188 275.764648438 533.759765625 c 1
 205.741210938 528.436523438 165.234375 486 144.234375 432 c 1
 115.234375 351.137695312 134.234375 180.022460938 156.234375 4 c 1
 153.254882812 -1.7197265625 149.94140625 -7.66015625 147.487304688 -12.7197265625 c 1
 132.49609375 -4.6396484375 l 1
 106.234375 224 88.234375 379 131.151367188 462.400390625 c 1
 154.049804688 508.18359375 198.30859375 544.29296875 232.276367188 548.959960938 c 1
 231.66796875 550.583007812 238.989153318 542.941302772 237.56640625 543.120117188 c 0
 151 554 70 543 64 572.559570312 c 1
 72.474609375 586.16015625 l 1
 126.829617153 564.009029265 234.69220848 580.344219886 285.234375 555.879882812 c 1
EndSplineSet
EndChar
StartChar: afii57673
Encoding: 1497 1497 104
Width: 228
UnlinkRmOvrlpSave: 1
Flags: HW
AnchorPoint: "HbMiddle" 83 208 basechar 0
AnchorPoint: "HbTopLeft" 71.68 619.44 basechar 0
AnchorPoint: "HbBottom" 48 0 basechar 0
AnchorPoint: "HbTop" 149 611.32 basechar 0
LayerCount: 2
Back
SplineSet
69.8232421875 586.0703125 m 0
 69.8232421875 592.525924703 75.3624546157 598.068359375 81.8212890625 598.068359375 c 0
 84.0429435879 598.068359375 86.2645981133 597.455729166 88.2099609375 596.23046875 c 0
 103.25668321 586.756955318 117.680183524 577.552778808 133.180664062 568.553710938 c 0
 156.939366903 554.75947312 183.01190658 539.05464513 199.482421875 515.418945312 c 0
 199.864571579 514.870350335 200.195626266 514.296840454 200.475585938 513.705078125 c 0
 207.286533057 499.314117401 210.029296875 485.852904699 210.029296875 472.328125 c 0
 210.029296875 468.099473317 209.888736999 463.506296227 209.23828125 458.596679688 c 0
 205.820100576 432.808084163 193.068769026 404.905101839 176.018554688 376.309570312 c 0
 154.686325742 340.531610929 126.226858539 303.548437487 98.7470703125 270.142578125 c 0
 96.5246772359 267.441341576 92.9692188949 265.759765625 89.470703125 265.759765625 c 0
 83.015616367 265.759765625 77.4736328125 271.298527198 77.4736328125 277.756835938 c 0
 77.4736328125 280.461340021 78.380859375 283.165844105 80.1953125 285.372070312 c 0
 107.298323828 318.319304664 135.124339636 354.595332236 155.396484375 388.594726562 c 0
 171.630346507 415.821439765 182.76703177 441.51230712 185.452148438 461.770507812 c 0
 185.90315683 465.173111534 186.034179688 468.648581559 186.034179688 472.328125 c 0
 186.034179688 482.410019925 184.340345018 491.39615728 179.206054688 502.521484375 c 0
 160.647158917 528.516571826 128.317305398 542.51184605 99.810546875 560.532226562 c 0
 91.9550207668 565.410961247 83.2958780564 570.95871585 75.431640625 575.91015625 c 0
 72.191775162 577.950129871 69.8232421875 581.97704885 69.8232421875 586.0703125 c 0
EndSplineSet
Fore
SplineSet
79.6669921875 601.48046875 m 1
 119.732788123 577.433417314 176.060541357 549 200.047851562 514.599609375 c 1
 207.261238652 499.669317706 210.10324201 486.053127145 210.10324201 472.276365554 c 3
 210.10324201 407.651446817 145.998927445 328.413627964 91.7939453125 261.759765625 c 1
 73.8583984375 276.120117188 l 1
 93.1872712388 298.716796875 113.023312509 326.826559851 134.155273438 354.959960938 c 0
 177 412 199.487006793 482.014436897 177 507 c 0
 150 537 90.3720703125 561.615234375 67.9130859375 582.896484375 c 1
 69.4739234307 588.602096501 70.8135278481 594.470688488 79.6669921875 601.48046875 c 1
EndSplineSet
EndChar
StartChar: afii57682
Encoding: 1506 1506 113
Width: 393
UnlinkRmOvrlpSave: 1
Flags: HW
AnchorPoint: "HbTop" 254 619.44 basechar 0
AnchorPoint: "HbMiddle" 61 284 basechar 0
AnchorPoint: "HbBottom" 167 0 basechar 0
AnchorPoint: "HbTopLeft" 79.68 619.44 basechar 0
LayerCount: 2
Back
SplineSet
388.163085938 567.200195312 m 1
 391.442057291 566.466556535 394.721028646 565.733278267 398 565 c 1
 398.827807266 564.293956982 400.146549941 563.588255377 401 563 c 1
 404.101634684 561.758628343 407.262260128 560.413827544 409 557 c 1
 380.243164062 434 l 1
 366.231445312 435.560546875 l 1
 362.046387612 436.029725137 357.677322523 436.868130262 356 438 c 1
 366 477 383 546 388.163085938 567.200195312 c 1
-34.5029296875 -88.16015625 m 1
 -53.0087890625 -80.0400390625 l 1
 -47.30078125 -66.2138671875 l 1
 -27.3509198891 -57.7482773458 -10.7434644971 -51.274184453 17 -36 c 0
 69.3169643603 -7.19685741681 177.758368775 50.503987897 214 98 c 0
 224.065241562 111.749219139 295.101694915 194 359 448 c 1
 380.243164062 434 l 1
 334.157731659 262 298.006757588 166.685246305 231.499023438 82.3603515625 c 0
 185.219414429 23.6826171875 57.0223858312 -44.345703125 -34.5029296875 -88.16015625 c 1
93.3193359375 563.009765625 m 1
 95.9915364583 564.128201317 98.6637369792 565.246229565 101.3359375 566.364257812 c 1
 104.113349442 565.798989562 106.054977476 565.878815228 111.401367188 564.759765625 c 0
 115.759545065 563.847558044 116.519523096 563.667917165 118.643554688 560.3515625 c 1
 127.940802447 516.655943728 135.58605306 472.929907601 143.817382812 423.436523438 c 1
 144.946829506 413.54997785 146.433839726 402.118510964 146.712890625 399.29296875 c 1
 153.506869649 352.382439977 175.337736727 173.781792868 191.639648438 66.4306640625 c 1
 171.646484375 41.7587890625 l 1
 156.251648294 138.654108767 130.442395226 345.101955248 118.530273438 430.588867188 c 1
 117.193655313 441.312957895 115.508159374 448.907945527 112.909179688 464.728515625 c 1
 108.64237877 489.298567881 101.751212718 526.154166753 93.3193359375 563.009765625 c 1
EndSplineSet
Fore
SplineSet
92.541015625 562.440429688 m 1
 94.5022819341 564.373645409 98.0232284394 565.114257812 101.92578125 565.114257812 c 0
 108.273387896 565.114257812 115.620259179 563.570618421 119 562 c 1
 145.143230006 448 163.14496386 267.544928105 190.766601562 68.3203125 c 1
 171 42 l 1
 143.076980283 212.803661333 128.910482164 414.223544961 92.541015625 562.440429688 c 1
-34.5029296875 -88.16015625 m 1
 -53.0087890625 -80.0400390625 l 1
 -47.30078125 -66.2138671875 l 1
 -31.66015625 -60.155897618 -5.85759430672 -47.8717578823 26 -31 c 0
 75.4096328146 -4.83269578132 160.569073573 40.8073749891 210 93 c 0
 259.981392348 145.773845381 328.231803728 312.952031055 360.8984375 454.223632812 c 0
 371.154304772 498.576620239 381.550347643 557.923836599 395.163085938 567.200195312 c 1
 400.727327476 565.522868211 406.68187894 564.172372761 409 557.120117188 c 1
 364.117698308 340.66655726 310.0435917 181.946700969 231.499023438 82.3603515625 c 0
 185.219414429 23.6826171875 57.0223858312 -44.345703125 -34.5029296875 -88.16015625 c 1
EndSplineSet
EndChar
StartChar: afii57684
Encoding: 1508 1508 115
Width: 424
UnlinkRmOvrlpSave: 1
Flags: HW
AnchorPoint: "HbTopLeft" 114.68 619.44 basechar 0
AnchorPoint: "HbBottom" 133 0 basechar 0
AnchorPoint: "HbMiddle" 241 284 basechar 0
AnchorPoint: "HbTop" 277 619.44 basechar 0
LayerCount: 2
Back
SplineSet
169.703883487 569.9489192 m 0
 173.848068468 569.9489192 178.497686603 570.233447539 182.788877013 570.354192245 c 2
 183.312394103 570.354192245 l 1
 306.357804345 568.486463132 342.244094265 548.793897342 372.240744718 518.797246888 c 0
 382.229845077 508.80814653 391.416026436 489.982261564 397.890339556 459.645518283 c 0
 403.08316361 435.316456872 406.341396926 403.827209498 406.341396926 364.165039062 c 0
 406.341396926 342.037704091 405.322320886 317.369175289 403.035774293 289.999668479 c 0
 397.554781413 224.375593026 389.221752705 122.041294512 324.307546999 57.1270233133 c 0
 288.483799353 21.3032693846 235.357952801 -2.99960005149 156.036132812 -2.99960005149 c 2
 63.5094744334 -2.92659000316 l 2
 42.4809819933 -2.92659000316 23.8701179395 -2.97292944155 -2.31438867845 -3.13957215359 c 0
 -9.97862042994 -1.39300805272 -17.9629472045 2.00391345315 -17.9629472045 10.8584751163 c 0
 -17.9629472045 17.3138721242 -12.423919423 22.8561220427 -5.96530027804 22.8561220427 c 0
 -3.54276062406 22.8561220427 -1.24300302069 21.9699034254 0.712740816654 20.8751134694 c 1
 25.2932337486 21.025877925 43.3260876796 21.0686963216 63.5285545676 21.0686963216 c 2
 156.036132812 20.9956938015 l 2
 230.341825023 20.9956938015 276.368349094 43.1289454742 307.336984251 74.0975860617 c 0
 364.089810786 130.850469855 373.595812388 225.818337831 379.124381957 292.012050271 c 0
 381.360210175 318.77446823 382.346103074 342.780149853 382.346103074 364.165039062 c 0
 382.346103074 402.493684431 379.163817965 432.411402202 374.426066694 454.608387967 c 0
 368.492794172 482.409972783 359.683355809 497.478043686 355.192550203 501.903757256 c 0
 329.924631682 526.804106986 304.384661234 544.496463078 183.210950608 546.361015529 c 0
 178.716590343 546.228031272 174.524954335 545.953625347 169.703883487 545.953625347 c 0
 162.87307633 545.953625347 158.575291649 545.618749356 154.687575447 549.506465558 c 0
 152.345998412 551.848042593 151.175209894 554.919894763 151.175209894 557.991746933 c 0
 151.175209894 564.447143941 156.714237676 569.989393859 163.172856821 569.989393859 c 0
 165.347326416 569.989393859 167.5241749 569.9489192 169.703883487 569.9489192 c 0
EndSplineSet
Fore
SplineSet
354 503 m 0
 307.778652397 549.340066461 232 546 148.948242188 546.3203125 c 1
 153.54296875 570.240234375 l 1
 163.328733774 569.612164161 173.260280158 570.509135788 183.1484375 570.360351562 c 0
 306.397460938 568.505859375 341.793201442 548.803947059 372.036132812 519 c 0
 394.036132812 497.319335938 414.562990766 427.999959008 403.036132812 290 c 0
 394.584960938 188.822265625 379.044921875 -3 156.036132812 -3 c 0
 67.5239149357 -3 49.9093836281 -2.75494803696 -5.494140625 -3.16015625 c 1
 -20 4.9599609375 l 1
 -14.8271484375 20.87890625 l 1
 17.1790511905 20.9965278806 43.353216548 18.3856270344 161 21 c 0
 251 23 361.241539199 48.0534413627 378.036132812 281 c 0
 387.427163406 398.826044217 374.445585206 482.501900606 354 503 c 0
173.737304688 549.080078125 m 1
 115.15706425 367 104.371305067 280 110 268 c 1
 115.164908613 258.770842391 122.1280619 257.292445317 135.380859375 255.13671875 c 1
 134.098854491 250.267870485 131.600403415 243.757457768 129.647460938 241.559570312 c 0
 124.867618442 236.972634952 119 231.940932804 102.15625 240.959960938 c 0
 79.2743511548 253.212130997 78.9716696427 289.476055743 101.376953125 381.639648438 c 0
 121.031136511 462.486657303 135.33953519 510.558895818 154 563 c 1
 173.737304688 549.080078125 l 1
EndSplineSet
EndChar
StartChar: daggerdbl
Encoding: 8225 8225 199
Width: 442
Flags: HW
LayerCount: 2
Fore
SplineSet
210 369 m 1
 210 440.461038961 210 460.590909091 210 524 c 1
 134 524 l 2
 78.741365226 524 83 524 57 524 c 3
 31.8733398438 524 29 531.363636364 29 536 c 3
 29 540.533333333 31.4824933308 548 58 548 c 3
 83 548 83.8868964059 548 134 548 c 2
 210 548 l 1
 210 620 l 2
 210 659.025532473 210 682.487804878 210 704 c 3
 210 731.717948718 217.466666667 735 222 735 c 3
 226.533333333 735 234 730.72972973 234 704 c 3
 234 681 234 657.122021846 234 620 c 2
 234 548 l 1
 310 548 l 2
 365.137464241 548 360 548 386 548 c 3
 412.604539824 548 415 540.636363636 415 536 c 3
 415 531.466666667 412.312918527 524 385 524 c 3
 360 524 360.349518829 524 310 524 c 2
 234 524 l 1
 234 461.597402597 234 441.467532468 234 369 c 1
 234 297.547770701 234 274.401273885 234 211 c 1
 309 211 l 2
 364.243385564 211 360 211 386 211 c 3
 412.126660157 211 414 203.636363636 414 199 c 3
 414 194.466666667 411.223799543 187 386 187 c 3
 360.671052632 187 359.755559986 187 309 187 c 2
 234 187 l 1
 234 115 l 2
 234 76.7072843163 234 54 234 33 c 3
 234 2.76923076923 226.533333333 0 222 0 c 3
 217.466666667 0 210 3 210 37 c 3
 210 58.3571428571 210 80.485435303 210 115 c 2
 210 187 l 1
 133 187 l 2
 77.8402263005 187 83 187 57 187 c 3
 30.3954601753 187 28 194.363636364 28 199 c 3
 28 203.533333333 30.6870814732 211 58 211 c 3
 83 211 82.7673796979 211 133 211 c 2
 210 211 l 1
 210 273.394904459 210 296.541401274 210 369 c 1
EndSplineSet
EndChar
StartChar: afii61289
Encoding: 8467 8467 143
Width: 445
UnlinkRmOvrlpSave: 1
Flags: HW
LayerCount: 2
Fore
SplineSet
435 742 m 3
 368.552929688 742 301 675 264 524 c 0
 260.597310601 510.113348671 245.256835938 456.6015625 232 407 c 0
 202.860351562 297.973632812 143 105.007936008 143 42 c 3
 143 19.0704543479 147 14.7567567568 175 14 c 1
 199 12.2708333333 269 60 295 97 c 1
 313 81 l 1
 287 44 215 -10 174 -10 c 3
 125.345703125 -10 121.963825522 11.4882764094 119 37 c 0
 117.25 52.0634765625 120.700613618 69.8563605172 126 96 c 0
 141 170 179.436523438 310.6875 205 401 c 0
 218.333007812 448.103515625 236.281260531 510.786295913 240 527 c 0
 265 636 304 700 361 744 c 0
 380.879949781 759.345926146 415.695223721 766 435 766 c 3
 464.766601562 766 482 724.46875 482 697 c 3
 482 517.135742188 202.44140625 232.830078125 24 -10 c 1
 6 8 l 1
 219.990778996 284.318712349 458 543.996710562 458 696 c 3
 458 710.91780599 445.772001378 742 435 742 c 3
EndSplineSet
EndChar
StartChar: partialdiff
Encoding: 8706 8706 403
Width: 464
UnlinkRmOvrlpSave: 1
Flags: HW
LayerCount: 2
Fore
SplineSet
268 702 m 3
 388.737304688 702 440 588.3203125 440 461 c 3
 440 116.124023438 314.014648438 -9 177 -9 c 3
 69.9765625 -9 32 81.845703125 32 141 c 0
 32 312.795133252 160.800339958 409 287 409 c 3
 347.815621349 409 410.648227585 353.025936351 418 332 c 1
 412 288 l 1
 411.4453125 327.230633031 339.282552083 385 288 385 c 3
 122.558020833 385 56 240.88277181 56 140 c 3
 56 77.9955573288 101.761954842 14 177 14 c 3
 276.218181818 14 416 98.9513933182 416 460 c 3
 416 621.160701069 343.183166503 678 269 678 c 3
 225.176801023 678 171.328029936 649.336356027 140 615 c 1
 132.8 621.222222222 129.2 624.777777778 122 631 c 1
 156.247070312 672.359375 222.9296875 702 268 702 c 3
EndSplineSet
EndChar
StartChar: radical
Encoding: 8730 8730 440
Width: 458
Flags: HW
LayerCount: 2
Fore
SplineSet
9 410 m 1
 29.9358398438 407.307617188 80.4692057292 406.220703125 124 410 c 1
 138.219785157 332.317363813 170.926914062 146.718681603 195 39 c 1
 258.810360101 284.203844091 374.753879569 691.819462388 392 794 c 1
 505 794 l 1
 505 770 l 1
 411 770 l 1
 371.770242582 591.95084088 255.785691689 179.008858546 206 -12 c 1
 182 -12 l 1
 159.60329241 80.7787772132 128.869698661 255.588500662 104 385 c 1
 71.9745637983 384.243639455 39.4734050586 382.738268958 10 386 c 1
 9 410 l 1
EndSplineSet
EndChar
StartChar: proportional
Encoding: 8733 8733 418
Width: 606
UnlinkRmOvrlpSave: 1
Flags: HW
LayerCount: 2
Fore
SplineSet
528.635742188 65.2119140625 m 3
 377.844931418 65.2119140625 325.951185588 342 182 342 c 3
 111.3051152 342 67 290.265969644 67 218 c 3
 67 147.588259681 110.120916254 93 173 93 c 3
 287.501214357 93 354.41989467 271.831405531 455 336.114257812 c 0
 486.177344154 356.040351568 509.26680461 364 553 362 c 1
 553 336 l 1
 517.785129494 340.2953264 496.734749803 332.506901221 471 317 c 0
 371.906429983 257.289522393 309.294324655 69.3759765625 172.668945312 69.3759765625 c 3
 93.013671875 69.3759765625 42.8671875 137.7734375 42.8671875 217.883789062 c 3
 42.8671875 301.290039062 97.205078125 365.767578125 180.959960938 365.767578125 c 3
 355.004313919 365.767578125 388 66 553 91 c 1
 553 66 l 1
 546 65 537.969726562 65.2119140625 528.635742188 65.2119140625 c 3
EndSplineSet
EndChar
StartChar: greaterequal
Encoding: 8805 8805 287
Width: 463
Flags: HW
LayerCount: 2
Fore
SplineSet
35 360.314453125 m 1
 50.5 412 l 1
 426.5 299.142578125 l 25
 428.5 276.232421875 l 25
 44.5 162 l 1
 35.5 193.512695312 l 1
 316 276.109375 l 1
 35 360.314453125 l 1
EndSplineSet
Refer: 341 8722 N 1 0 0 1 0 -124 2
Position2: "'case' vertical ajustments for all-caps-1" dx=0 dy=90 dh=0 dv=0
EndChar
StartChar: uni2572
Encoding: 9586 9586 1478
Width: 926
Flags: HW
LayerCount: 2
Fore
SplineSet
926 -348 m 1
 911 -348 l 1
 0 892 l 1
 0 912 l 1
 15 912 l 1
 926 -328 l 1
 926 -348 l 1
EndSplineSet
EndChar
StartChar: block
Encoding: 9608 9608 1500
Width: 926
Flags: HW
LayerCount: 2
Fore
SplineSet
0 -348 m 1
 0 912 l 1
 926 912 l 1
 926 -348 l 1
 0 -348 l 1
EndSplineSet
EndChar
StartChar: lozenge
Encoding: 9674 9674 333
Width: 466
Flags: HW
LayerCount: 2
Fore
SplineSet
233 9.111328125 m 1
 417.391601562 373 l 1
 233 737.888671875 l 1
 48.6083984375 373 l 1
 233 9.111328125 l 1
243.400390625 -30.2001953125 m 1
 222.599609375 -30.2001953125 l 1
 21.7998046875 373 l 1
 222.599609375 776.200195312 l 1
 243.400390625 776.200195312 l 1
 444.200195312 373 l 1
 243.400390625 -30.2001953125 l 1
EndSplineSet
EndChar
StartChar: uni263D
Encoding: 9789 9789 970
Width: 553
Flags: HW
LayerCount: 2
Fore
SplineSet
190 19 m 0
 398 -12.8837209302 502 158.457364341 502 276 c 0
 502 351.683520129 476.143746353 411.035989402 421.975585938 465.689453125 c 0
 377.244791832 510.820999298 292.513459816 543.054506597 200.873046875 532.926757812 c 1
 285.26656431 521.808236716 331.612273334 454.496609612 354.759765625 388.919921875 c 0
 365.584638245 358.253131594 370.094726562 326.683470136 370.094726562 294.2109375 c 0
 370.094726562 100.944389643 230 28 135 34 c 1
 152.934877796 23.9989827059 172.289002899 21.7148677355 190 19 c 0
345.014648438 285.19140625 m 0
 345.014648438 406.059121463 275.559798829 512.495117188 170.927734375 512.495117188 c 0
 78.9241861237 512.495117188 45.5495295854 445.747070312 32.01953125 445.747070312 c 0
 30.2160654068 445.747070312 27.509765625 446.64889464 27.509765625 449.35546875 c 0
 27.509765625 463.787171052 67.1979056189 559.3984375 237.67578125 559.3984375 c 0
 418.075819517 559.3984375 525.4140625 415.980290457 525.4140625 277.073242188 c 0
 525.4140625 166.127182821 454.171303727 56.9517912775 360.348632812 15.494140625 c 0
 321.562780056 -1.64425799589 279.167558234 -7.958984375 236.7734375 -7.958984375 c 0
 63.5894639568 -7.958984375 25.7060546875 98.4765625 25.7060546875 98.4765625 c 0
 25.7060546875 105.693608583 34.5600459017 107.348419299 41.0400390625 100.280273438 c 0
 50.9628557485 89.4568182347 81.6297765584 56.9853515625 142.965820312 56.9853515625 c 0
 234.969656698 56.9853515625 345.014648438 125.53734623 345.014648438 285.19140625 c 0
EndSplineSet
EndChar
StartChar: female
Encoding: 9792 9792 251
Width: 500
UnlinkRmOvrlpSave: 1
Flags: HMW
LayerCount: 2
Fore
SplineSet
81 -15 m 1
 101 -15 l 1
 115.416912499 -15 187.624327267 -15 251.87890625 -15 c 3
 312.133953087 -15 373.360476934 -15 400 -15 c 1
 421 -15 l 1
 421 -39 l 1
 400 -39.123046875 l 1
 373.201260711 -39.0217597359 311.526996602 -38.97265625 251.443359375 -38.97265625 c 3
 184.151483133 -38.97265625 118.726092129 -38.9440344291 100 -38.888671875 c 1
 81 -39 l 1
 81 -15 l 1
EndSplineSet
Refer: 1012 9906 N 1 0 0 1 0 0 2
EndChar
StartChar: club
Encoding: 9827 9827 190
Width: 768
Flags: HW
LayerCount: 2
Fore
SplineSet
175.969726562 392.694335938 m 3
 306.624447552 392.694335938 295.022899538 290.594937412 365.951171875 274.599609375 c 1
 364.872926089 313.622054143 350.822922484 338.391466501 326.708984375 351 c 0
 285.639652449 372.474055588 227.114257812 408.683072444 227.114257812 482.0390625 c 3
 227.114257812 569.247728174 297.050192074 649.26171875 384.501953125 649.26171875 c 3
 471.068359375 649.26171875 540.38671875 567.73828125 540.38671875 482.0390625 c 3
 540.38671875 409.105705604 481.681411911 372.775264968 440.602539062 351 c 0
 416.586625184 338.269541448 402.623174891 313.479327171 401.548828125 274.599609375 c 1
 472.478160739 290.594937412 463.046999198 392.694335938 591.530273438 392.694335938 c 3
 668.482421875 392.694335938 731 319.179871975 731 236.065429688 c 3
 731 152.67856617 665.34375 92.6005859375 584.255859375 92.6005859375 c 3
 451.380859375 92.6005859375 478.138671875 219.286132812 408.0078125 219.286132812 c 0
 404.422851562 219.286132812 400.708984375 206.67578125 402.03125 205.41015625 c 2
 401.942382812 205.471679688 l 1
 403.623046875 112.8125 457.827148438 21.8212890625 538.497070312 21.8212890625 c 0
 549.88671875 21.8212890625 559.5078125 16.1201171875 559.51953125 6.9765625 c 0
 559.522460938 2.82421875 556.21484375 -8.271484375 550.28515625 -8.271484375 c 0
 546.056640625 -8.271484375 471.8125 -0.28125 392.891601562 -0.28125 c 1
 392.891601562 -0.0546875 367.3046875 0.1708984375 367.3046875 0.396484375 c 0
 363.646484375 0.419921875 360.077148438 0.431640625 356.592773438 0.431640625 c 0
 259.481445312 0.431640625 229.2421875 -8.271484375 217.172851562 -8.271484375 c 0
 211.072265625 -8.271484375 207.85546875 2.755859375 207.85546875 6.5498046875 c 0
 207.85546875 10.615234375 211.549804688 22.1865234375 219.346679688 22.1865234375 c 0
 219.892578125 22.1865234375 220.458984375 22.166015625 221.044921875 22.123046875 c 0
 223.80859375 21.921875 226.560546875 21.8212890625 229.298828125 21.8212890625 c 0
 301.891601562 21.8212890625 364.00390625 104.493164062 365.576171875 205.484375 c 1
 365.467773438 205.41015625 l 1
 366.3828125 212.134765625 361.490234375 219.286132812 359.493164062 219.286132812 c 0
 289.868164062 219.286132812 315.401367188 92.6005859375 183.244140625 92.6005859375 c 3
 101.18359375 92.6005859375 36.5009765625 152.938750712 36.5009765625 236.065429688 c 3
 36.5009765625 319.179871975 99.0185546877 392.694335938 175.969726562 392.694335938 c 3
EndSplineSet
EndChar
StartChar: uni27E6
Encoding: 10214 10214 1014
Width: 289
UnlinkRmOvrlpSave: 1
Flags: HW
LayerCount: 2
Fore
SplineSet
61 693 m 1
 61 -206 l 1
 262 -206 l 1
 262 -230 l 1
 37 -230 l 1
 37 717 l 1
 262 717 l 1
 262 693 l 1
 61 693 l 1
EndSplineSet
Refer: 487 58113 N 0 -0.927 0.875 0 160 704 2
EndChar
StartChar: uniE000
Encoding: 57344 57344 1082
Width: 0
Flags: HW
LayerCount: 2
Fore
SplineSet
-26.556640625 0.029296875 m 3
 -26.556640625 14.6767578125 -14.67578125 26.556640625 0 26.556640625 c 3
 14.67578125 26.556640625 26.556640625 14.6767578125 26.556640625 0.029296875 c 3
 26.556640625 -14.6201171875 14.67578125 -26.556640625 0 -26.556640625 c 3
 -14.67578125 -26.556640625 -26.556640625 -14.6201171875 -26.556640625 0.029296875 c 3
EndSplineSet
EndChar
StartChar: a.pcap
Encoding: 57347 57347 1
Width: 472
Flags: HW
AnchorPoint: "Ogonek" 347.378 27 basechar 0
AnchorPoint: "Top" 305.478 465 basechar 0
AnchorPoint: "Bottom" 192.45 -15 basechar 0
LayerCount: 2
Back
SplineSet
171.858398438 168.09375 m 1
 201.12109375 163.279296875 245.022460938 163.975585938 272.956054688 163.975585938 c 1
 261.3515625 219.15625 256.065429688 228.901367188 242.643554688 282.916992188 c 1
 209.52734375 227.40234375 201.352539062 215.76171875 171.858398438 168.09375 c 1
257.821289062 -6.7275390625 m 1
 257.821289062 -6.7275390625 256.802734375 10.3798828125 256.265625 17.8095703125 c 1
 274.708007812 22.734375 295.265625 36.763671875 293.646484375 44.259765625 c 0
 290.209960938 82.2109375 283.306640625 97.361328125 278.366210938 131.54296875 c 1
 258.439453125 138.333984375 185.32421875 142.833007812 153.44140625 138.177734375 c 1
 132.411132812 103.774414062 117.37890625 84.0556640625 100.250976562 50.7568359375 c 0
 93.4609375 36.9462890625 110.912109375 17.580078125 149.471679688 22.40625 c 1
 142.415039062 -6.7275390625 l 1
 124.229492188 -2.5400390625 88.96484375 -0.3525390625 56.1396484375 -0.3525390625 c 0
 32.974609375 -0.3525390625 11.025390625 -1.44140625 -2.8515625 -3.6865234375 c 1
 -2.69921875 -2.0732421875 -2.091796875 12.4873046875 -1.138671875 21.599609375 c 1
 29.5126953125 27.0771484375 52.626953125 42.8046875 55.921875 47.451171875 c 0
 134.62890625 166.268554688 204.397460938 274.791015625 262.387695312 371.904296875 c 0
 275.40234375 393.705078125 271.041015625 389.572265625 279.061523438 414.827148438 c 1
 309.859375 414.500976562 l 1
 309.651367188 394.877929688 306.458007812 395.7578125 310.010742188 373.374023438 c 0
 327.844726562 244.7421875 340.557617188 160.876953125 378.291992188 37.1630859375 c 0
 382.229492188 26.3779296875 399.989257812 20.4306640625 410.233398438 20.689453125 c 1
 409.823242188 18.99609375 406.305664062 4.6884765625 404.211914062 -3.1103515625 c 1
 387.512695312 -0.5166015625 363.888671875 0.9736328125 339.60546875 0.9736328125 c 0
 309.317382812 0.9736328125 278.00390625 -1.3447265625 257.821289062 -6.7275390625 c 1
EndSplineSet
Fore
SplineSet
153.922851562 166 m 1
 202.186523438 164.75 273.416015625 165 318.709960938 165 c 1
 301.208984375 252.899414062 298.158203125 274.790039062 282.434570312 366 c 1
 222.31640625 268.608398438 207.5 249.478515625 153.922851562 166 c 1
320.575195312 -5 m 1
 320.575195312 -5 317.7890625 10.1201171875 316.0390625 16 c 1
 333.211914062 24.3076171875 348.504882812 23.7353515625 347.58984375 28 c 0
 337.118164062 76.7958984375 331.704101562 97.3408203125 322.609375 141 c 1
 292.018554688 141 182.766601562 141 137.821289062 142 c 1
 108.046875 97.0576171875 88.0537109375 67.63671875 61.3779296875 27 c 0
 58.08203125 21.98046875 71.712890625 23.275390625 95.251953125 17 c 1
 81.150390625 -7 l 1
 74.912109375 -2.9169921875 61.763671875 -0.875 49.259765625 -0.875 c 3
 30.986328125 -0.875 13.6162109375 -1.9169921875 2.7880859375 -4 c 1
 3.1806640625 -2.154296875 3.8740234375 11.6923828125 4.8896484375 20 c 1
 33.087890625 22.2001953125 34.5537109375 28.5703125 36.2275390625 31 c 0
 122.267578125 155.858398438 196.540039062 269.813476562 261.709960938 372 c 0
 269.284179688 383.876953125 274.986328125 398 284.849609375 415 c 1
 302.849609375 415 l 1
 305.098632812 395 303.012695312 396.76171875 306.921875 373 c 0
 328.14453125 244 344.419921875 156.631835938 371.502929688 37 c 0
 373.931640625 26.119140625 386.673828125 21 394.102539062 21 c 1
 393.676757812 19 386.701171875 5 380.000976562 -3 c 1
 374.366210938 -0.380859375 366.133789062 1.0947265625 357.438476562 1.0947265625 c 3
 343.98046875 1.0947265625 329.83203125 -0.7578125 320.575195312 -5 c 1
EndSplineSet
EndChar
StartChar: j.pcap
Encoding: 57356 57356 312
Width: 310
Flags: HW
AnchorPoint: "Bottom" 122.319 -77 basechar 0
AnchorPoint: "Top" 230.525 465 basechar 0
LayerCount: 2
Back
SplineSet
142.631835938 331.09375 m 0
 143.358398438 372.84375 117.86328125 369.819335938 88.7763671875 372.728515625 c 1
 96.396484375 398.833984375 l 1
 125.845105942 393.100395973 154.572779717 390.781673958 183.934061299 390.781673958 c 0
 218.994428125 390.781673958 254.958243482 394.087892679 294.131835938 398.833984375 c 1
 290.115234375 371.001953125 l 1
 258.987304688 370.252929688 238.280273438 376.338867188 225.372070312 333.213867188 c 0
 206.260742188 269.364257812 196.703125 208.438476562 181.427734375 130.1640625 c 1
 166.981445312 55.8486328125 166.083984375 26.4619140625 162.466796875 1.693359375 c 1
 152.041015625 -51.943359375 108.162109375 -87.7255859375 62.1298828125 -114.876953125 c 0
 36.3095703125 -130.107421875 8.9609375 -142.06640625 -15.6435546875 -151.443359375 c 1
 -22.8984375 -151.443359375 -34.38671875 -125.224609375 -34.38671875 -125.224609375 c 1
 -18.17578125 -114.333984375 14.8544921875 -101.6015625 27.888671875 -93.779296875 c 1
 89.7607421875 -57.4345703125 90.6806640625 13.154296875 94.986328125 38.166015625 c 1
 99.3720703125 62.5185546875 142.0859375 299.6953125 142.631835938 331.09375 c 0
EndSplineSet
Fore
SplineSet
203.694335938 367 m 0
 207.778320312 385.11328125 180.487304688 368.137695312 125.30859375 384 c 1
 133.409179688 408 l 1
 157.546875 402.077148438 181.3984375 399.682617188 205.903320312 399.682617188 c 0
 241.095703125 399.682617188 277.26171875 403.100585938 316.409179688 408 c 1
 312.095703125 383 l 1
 245.219726562 374.60546875 231.130859375 383.16796875 227.907226562 368 c 0
 211.958007812 292.96484375 196.756835938 221.448242188 177.318359375 130 c 0
 161.58984375 56 158.426757812 27.00390625 153.111328125 2 c 0
 141.633789062 -52 105.44921875 -90.4169921875 65.2421875 -115 c 0
 39.3544921875 -130 17.203125 -142 -5.4091796875 -151 c 1
 -9.201171875 -151 -14.37109375 -132 -14.37109375 -132 c 1
 -2.0009765625 -125.385742188 21.50390625 -115.123046875 37.0029296875 -106.717773438 c 0
 41.4658203125 -104.297851562 45.3955078125 -102.038085938 48.4306640625 -100 c 1
 89.34375 -75.5986328125 117.8203125 -46.41796875 128.537109375 4 c 0
 134.856445312 33.734375 169.775390625 218.512695312 203.694335938 367 c 0
EndSplineSet
EndChar
StartChar: o.pcap
Encoding: 57361 57361 359
Width: 568
Flags: HW
AnchorPoint: "Ogonek" 356.378 27 basechar 0
AnchorPoint: "Middle" 282.425 206 basechar 0
AnchorPoint: "Bottom" 241.45 -15 basechar 0
AnchorPoint: "Top" 341.478 465 basechar 0
AnchorPoint: "Horn" 482.79 341.8 basechar 0
LayerCount: 2
Back
SplineSet
302.296875 377.725585938 m 1
 230.193359375 377.725585938 168.020507812 325.001953125 152.043945312 242.8046875 c 1
 131.232421875 135.743164062 189.043945312 31.6083984375 283.90234375 31.6083984375 c 1
 362.055664062 31.6083984375 417.334960938 91.7939453125 433.239257812 173.61328125 c 1
 456.1328125 291.392578125 388.69921875 377.725585938 302.296875 377.725585938 c 1
343.46875 412.9921875 m 1
 467.8671875 412.9921875 544.064453125 314.149414062 521.900390625 200.125 c 1
 499.939453125 87.1484375 391.590820312 -4.6767578125 257.368164062 -4.6767578125 c 1
 113.908203125 -4.6767578125 48.4658203125 109.651367188 66.083984375 200.287109375 c 1
 88.15625 313.838867188 216.842773438 412.9921875 343.46875 412.9921875 c 1
EndSplineSet
Fore
SplineSet
331.323242188 389 m 3
 208.2265625 389 98.74609375 292.192382812 79.3623046875 201 c 0
 59.7451171875 108.706054688 132.006835938 19 247.676757812 19 c 3
 377.247070312 19 467.819335938 109.056640625 486.9375 199 c 0
 510.297851562 308.90234375 430.475585938 389 331.323242188 389 c 3
336.424804688 413 m 3
 458.424804688 413 535.380859375 314 511.149414062 200 c 0
 487.130859375 87 376.575195312 -5 242.575195312 -5 c 3
 99.5751953125 -5 35.806640625 109 55.1494140625 200 c 0
 79.380859375 314 209.424804688 413 336.424804688 413 c 3
EndSplineSet
EndChar
StartChar: u.pcap
Encoding: 57367 57367 520
Width: 562
Flags: HW
AnchorPoint: "Ogonek" 354.44 27 basechar 0
AnchorPoint: "Top" 351.54 465 basechar 0
AnchorPoint: "Bottom" 234.513 -15 basechar 0
AnchorPoint: "Horn" 490.829 361.478 basechar 0
LayerCount: 2
Back
SplineSet
83.3623046875 396.44921875 m 1
 123.404296875 392.255859375 208.33203125 392.17578125 262.418945312 396.368164062 c 1
 260.53125 372.728515625 l 1
 221.7109375 369.2734375 203.643554688 366.64453125 191.25390625 317.177734375 c 0
 192.034179688 319.346679688 156.658203125 157.697265625 154.96484375 147.122070312 c 1
 148.8671875 113.947265625 149.69140625 85.484375 163.024414062 65.0419921875 c 0
 177.56640625 43.5400390625 206.7265625 31.9951171875 258.790039062 31.9951171875 c 1
 276.688476562 31.9951171875 325.342773438 30.4541015625 363.48828125 59.77734375 c 0
 389.422851562 80.029296875 400.233398438 104.96875 410.6484375 147.708984375 c 0
 422.5390625 199.099609375 437.477539062 283.375 446.840820312 336.538085938 c 0
 451.862304688 371.174804688 434.600585938 369.930664062 394.520507812 370.505859375 c 1
 400.715820312 396.44921875 l 1
 433.063476562 392.17578125 530.54296875 389.62890625 555.166015625 395.5390625 c 1
 552.126953125 369.768554688 l 1
 519.616210938 370.2421875 503.974609375 372.032226562 494.797851562 340.041015625 c 0
 491.396484375 337.4921875 474.578125 273.92578125 448.634765625 146.71875 c 0
 439.673828125 102.009765625 419.107421875 67.4677734375 390.834960938 42.619140625 c 0
 351.399414062 9.70703125 294.580078125 -6.32421875 225.908203125 -6.32421875 c 1
 160.981445312 -6.32421875 118.520507812 9.1357421875 96.2783203125 36.357421875 c 0
 76.892578125 60.6298828125 72.3310546875 94.3466796875 81.0439453125 136.016601562 c 0
 84.6025390625 147.048828125 119.178710938 318.174804688 119.416992188 324.62890625 c 0
 123.625 364.291015625 121.470703125 363.907226562 75.1982421875 370.505859375 c 1
 83.3623046875 396.44921875 l 1
EndSplineSet
Fore
SplineSet
94.57421875 404 m 1
 114.649414062 402 145.936523438 401 178.936523438 401 c 0
 206.319335938 401 235.159179688 402 257.57421875 404 c 1
 255.685546875 381 l 1
 192.502929688 373 173.53515625 385 167.583984375 357 c 0
 167.029296875 354.388671875 122.44921875 149.364257812 119.396484375 135 c 1
 112.467773438 102.40234375 111.493164062 79 128.1796875 54 c 0
 144.740234375 29.1875 180.331054688 18 242.52734375 18 c 3
 265.20703125 18 330.62890625 19.533203125 377.029296875 58 c 0
 404.979492188 79.8828125 422.801757812 113.383789062 429.734375 146 c 0
 443.83203125 212.326171875 463.719726562 301.166992188 476.497070312 366 c 0
 479.162109375 379.607421875 452.56640625 374.6171875 399.259765625 379 c 1
 405.57421875 404 l 1
 424.412109375 401.805664062 464.557617188 400.212890625 501.22265625 400.212890625 c 0
 529.516601562 400.212890625 555.616210938 401.291015625 566.57421875 404 c 1
 563.047851562 378 l 1
 523.5859375 375 502.934570312 377.465820312 501.134765625 369 c 0
 500.401367188 365.549804688 484.999023438 293.087890625 453.947265625 147 c 0
 444.381835938 102 422.967773438 67.0205078125 393.840820312 43 c 0
 355.743164062 10 302.419921875 -6 237.42578125 -6 c 1
 172.42578125 -6 130.01171875 8.4951171875 108.353515625 36 c 0
 89.455078125 60 85.6787109375 93.98828125 94.609375 136 c 0
 97.453125 149.37890625 143.721679688 357.647460938 145.284179688 365 c 0
 148.72265625 381.173828125 141.3203125 373.869140625 86.259765625 379 c 1
 94.57421875 404 l 1
EndSplineSet
EndChar
StartChar: w.pcap
Encoding: 57369 57369 1215
Width: 682
Flags: HW
AnchorPoint: "Top" 419.54 465 basechar 0
AnchorPoint: "Bottom" 314.513 -15 basechar 0
LayerCount: 2
Back
SplineSet
687.572265625 401.569335938 m 1
 686.979492188 378.252929688 l 1
 634.114257812 363.745117188 627.762695312 329.176757812 578.375976562 249.366210938 c 1
 477.231445312 79.041015625 452.533203125 45.7744140625 437.801757812 24.353515625 c 0
 429.348632812 10.392578125 423.829101562 4.193359375 420.059570312 -9.2041015625 c 1
 398.594726562 -9.94140625 l 1
 400.237304688 1.9580078125 403.177734375 10.984375 397.11328125 33.8916015625 c 0
 378.811523438 98.787109375 369.265625 162.389648438 351.4921875 227.842773438 c 1
 297.729492188 137.078125 264.646484375 78.626953125 226.083007812 13.8125 c 0
 219.346679688 1.8955078125 216.513671875 -3.708984375 214.3359375 -12.66015625 c 1
 190.766601562 -12.66015625 l 1
 192.143554688 -2.724609375 195.489257812 6.9697265625 186.775390625 40.900390625 c 0
 151.073242188 194.094726562 109.934570312 319.263671875 99.6728515625 331.584960938 c 0
 96.560546875 336.502929688 93.5126953125 342.317382812 84.73828125 356.682617188 c 0
 75.5439453125 371.754882812 56.388671875 373.689453125 39.966796875 375.130859375 c 1
 49.2705078125 401.891601562 l 1
 90.142578125 388.989257812 171.196289062 389.7265625 223.547851562 400.659179688 c 1
 224.193359375 377.366210938 l 1
 194.31640625 377.076171875 183.02734375 367.958007812 179.0625 347.565429688 c 1
 177.704101562 340.573242188 178.985351562 331.478515625 181.07421875 325.740234375 c 1
 181.915039062 332.81640625 247.51953125 86.9609375 249.884765625 102.37890625 c 1
 266.15234375 124.409179688 309.168945312 207.478515625 339.154296875 264.876953125 c 1
 322.384765625 336.853515625 309.788085938 349.131835938 307.6796875 354.7734375 c 1
 297.401367188 374.091796875 276.431640625 375.322265625 266.173828125 380.073242188 c 1
 274.051757812 399.921875 l 1
 327.259765625 393.263671875 397.025390625 392.111328125 456.833007812 401.649414062 c 1
 454.978515625 378.18359375 l 1
 454.026367188 378.078125 434.78125 377.110351562 428.1953125 377.97265625 c 0
 406.716796875 377.900390625 396.2109375 364.170898438 398.532226562 352.056640625 c 1
 397.564453125 347.93359375 456.463867188 90.6015625 454.028320312 104.555664062 c 1
 505.908203125 176.489257812 529.241210938 222.287109375 563.108398438 296.130859375 c 0
 589.126953125 352.301757812 596.107421875 379.265625 525.72265625 377.28515625 c 1
 530.124023438 398.689453125 l 1
 564.987304688 394.25390625 626.233398438 393.34375 687.572265625 401.569335938 c 1
EndSplineSet
Fore
SplineSet
706.211914062 407 m 1
 705.110351562 383 l 1
 652.047851562 378 654.047851562 378 620.719726562 320 c 1
 497.108398438 108.356445312 463.272460938 52.9091796875 446.802734375 24 c 0
 438.827148438 10 433.384765625 4 429.788085938 -9 c 1
 408.575195312 -10 l 1
 410.125976562 2 410.796875 9.796875 407.927734375 34 c 0
 399.5078125 105.030273438 392.5546875 174.969726562 381.990234375 246 c 1
 320.306640625 147.345703125 282.010742188 85.328125 237.676757812 14 c 0
 230.290039062 2.1142578125 225.850585938 -4 223.938476562 -13 c 1
 200.938476562 -13 l 1
 204.401367188 8 202.759765625 6.0986328125 197.416015625 41 c 0
 172.865234375 201.361328125 137.290039062 329.7578125 133.24609375 346 c 0
 126.772460938 372 126.036132812 377.680664062 118.047851562 378 c 0
 103.190429688 378.594726562 79.8291015625 380.5 59.9609375 387 c 1
 69.0615234375 411 l 1
 90.0205078125 404.228515625 122.037109375 400.984375 155.302734375 400.984375 c 0
 185.903320312 400.984375 217.560546875 403.729492188 242.63671875 409 c 1
 242.748046875 386 l 1
 159.559570312 371 155.82421875 381.655273438 153.772460938 372 c 0
 152.883789062 367.818359375 156.221679688 360 160.970703125 340 c 1
 180.729492188 273 208.609375 136 225.140625 35 c 1
 248.090820312 72.404296875 324.672851562 194.326171875 377.216796875 280 c 1
 364.134765625 369 364.041992188 371.733398438 359.197265625 374 c 1
 352.624023438 379 342.087890625 377.333007812 312.323242188 384 c 1
 320.999023438 406 l 1
 338.384765625 402.603515625 358.30859375 400.619140625 378.951171875 400.619140625 c 0
 411.227539062 400.619140625 444.473632812 402.852539062 475.424804688 408 c 1
 473.323242188 384 l 1
 457.047851562 378 417.740234375 376 398.622070312 376 c 0
 389.497070312 376 388.885742188 374.692382812 389.921875 368 c 1
 394.608398438 343 429.555664062 84 431.416015625 41 c 1
 506.692382812 167.25 554.115234375 252.46875 621.497070312 366 c 0
 633.9609375 387 619.34765625 370 543.897460938 382 c 1
 548.57421875 404 l 1
 564.653320312 402.169921875 586.095703125 400.96875 610.536132812 400.96875 c 0
 639.526367188 400.96875 672.734375 402.659179688 706.211914062 407 c 1
EndSplineSet
EndChar
StartChar: ae.pcap
Encoding: 57379 57379 6
Width: 680
Flags: HW
AnchorPoint: "Top" 430.54 465 basechar 0
AnchorPoint: "Bottom" 310.513 -15 basechar 0
LayerCount: 2
Fore
SplineSet
352.834960938 377 m 1
 271.651367188 279.250976562 251.158203125 256.518554688 176.623046875 169 c 1
 218.822265625 167 281.149414062 165 323.7734375 165 c 1
 367.984375 373 l 2
 368.834960938 377 359.065429688 376.200195312 352.834960938 377 c 1
293.361328125 403 m 1
 335.162109375 401.131835938 389.673828125 400.380859375 442.532226562 400.380859375 c 0
 531.178710938 400.380859375 615.177734375 402.494140625 626.787109375 405 c 1
 632.681640625 398.821289062 634.131835938 393.350585938 632.54296875 385.875976562 c 0
 629.50390625 371.575195312 615.337890625 349.943359375 599.893554688 302 c 1
 579.467773438 300 l 1
 575.719726562 320 606.568359375 366.950195312 598.197265625 374 c 0
 592.259765625 379 537.395507812 376.829101562 498.063476562 376.829101562 c 0
 465.11328125 376.829101562 431.939453125 376.944335938 402.834960938 377 c 0
 397.177734375 377.010742188 392.494140625 375.39453125 391.134765625 369 c 0
 379.640625 314.923828125 368.895507812 264.374023438 358.401367188 215 c 1
 400.197265625 215 507.02734375 214.153320312 524.401367188 215 c 0
 538.9921875 215.7109375 533.077148438 237 552.241210938 266 c 1
 572.390625 262 l 1
 564.326171875 245.552734375 558.176757812 225.348632812 553.813476562 204.8203125 c 0
 548.625976562 180.415039062 545.962890625 155.552734375 545.609375 136 c 1
 521.333984375 130 l 1
 521.44921875 187 534.500976562 190.900390625 518.299804688 191 c 0
 488.100585938 191.184570312 413.744140625 191 353.299804688 191 c 1
 340.422851562 130.420898438 329.907226562 80.94921875 320.991210938 39 c 0
 317.538085938 22.75390625 318.573242188 23.951171875 333.802734375 24 c 0
 375.0390625 24.130859375 407.9609375 22.56640625 440.185546875 22.56640625 c 0
 473.119140625 22.56640625 538.561523438 19.4736328125 544.802734375 24 c 0
 557.864257812 33.4736328125 579.051757812 100.447265625 596.208007812 120 c 1
 614.145507812 115 l 1
 596.642578125 75 578.715820312 33 563.850585938 -4 c 1
 500.141601562 -2.8515625 429.231445312 -0.384765625 364.178710938 -0.384765625 c 0
 315.930664062 -0.384765625 270.905273438 -1.7412109375 234.42578125 -6 c 1
 233.314453125 17 l 1
 275.3515625 23.111328125 293.18359375 21.08984375 295.715820312 33 c 0
 299.434570312 50.494140625 308.014648438 90.8642578125 318.883789062 142 c 1
 287.66015625 145 195.487304688 145 154.521484375 145 c 1
 116.021484375 100.057617188 80.947265625 61.8037109375 55.078125 30 c 0
 44.25 16.6884765625 73.23046875 29.5859375 128.102539062 16 c 1
 120.212890625 -7 l 1
 102.998046875 -2.9169921875 68.3349609375 -0.875 35.67578125 -0.875 c 0
 12.3486328125 -0.875 -9.9560546875 -1.9169921875 -24.1494140625 -4 c 1
 -23.7724609375 -2.23046875 -21.9521484375 11.0380859375 -22.259765625 19 c 1
 13.9052734375 24.400390625 17.2197265625 20.7392578125 26.2900390625 31 c 0
 138.344726562 157.74609375 240.747070312 273.4140625 325.834960938 377 c 1
 317.47265625 380 303.685546875 381 286.323242188 384 c 1
 293.361328125 403 l 1
EndSplineSet
EndChar
StartChar: iogonek.pcap
Encoding: 57426 57426 308
Width: 329
UnlinkRmOvrlpSave: 1
Flags: HW
LayerCount: 2
Fore
SplineSet
222.630859375 15.54296875 m 1
 158.447679199 -46.1188656603 148.771484375 -75.4471425755 148.771484375 -132 c 3
 148.771484375 -178.376408535 170.134509604 -205.872070312 197.166015625 -205.872070312 c 3
 212.840568725 -205.872070312 231.660571522 -195.18359375 250.97265625 -171.599609375 c 1
 250.97265625 -171.599609375 262.081054688 -181.926757812 264.771484375 -190 c 1
 241.083847314 -242.788085938 201.174993147 -266 164.771484375 -266 c 3
 119.572780919 -266 79.5615234375 -226.657902331 79.5615234375 -160.834960938 c 3
 79.5615234375 -116.866708126 114.894177668 -31.8124401555 215.931640625 36.76171875 c 1
 222.630859375 15.54296875 l 1
EndSplineSet
Refer: 301 57355 N 1 0 0 1 0 0 2
EndChar
StartChar: uni01EB.pcap
Encoding: 57492 57492 585
Width: 568
UnlinkRmOvrlpSave: 1
Flags: HW
AnchorPoint: "Top" 285 465 basechar 0
LayerCount: 2
Fore
SplineSet
304.630859375 4.54296875 m 1
 229.150787744 -52.5216951935 217.771484375 -79.6634155497 217.771484375 -132 c 3
 217.771484375 -178.376408535 239.134509604 -205.872070312 266.166015625 -205.872070312 c 3
 281.840568725 -205.872070312 300.660571522 -195.18359375 319.97265625 -171.599609375 c 1
 319.97265625 -171.599609375 331.081054688 -181.926757812 333.771484375 -190 c 1
 310.083847314 -242.788085938 270.174993147 -266 233.771484375 -266 c 3
 188.572780919 -266 148.561523438 -226.657902331 148.561523438 -160.834960938 c 3
 148.561523438 -119.314374663 187.262397293 -38.9949886213 297.931640625 25.76171875 c 1
 304.630859375 4.54296875 l 1
EndSplineSet
Refer: 359 57361 N 1 0 0 1 0 0 2
EndChar
StartChar: uni021D.pcap
Encoding: 57518 57518 597
Width: 382
UnlinkRmOvrlpSave: 1
Flags: HW
LayerCount: 2
Fore
SplineSet
218 208.62890625 m 1
 260.747227823 201.045047482 339 140.368578015 339 98.57421875 c 3
 339 -1.17355537386 154.469224988 -108.297223036 55.666015625 -117 c 1
 51.9765625 -89.42578125 l 1
 143.885849979 -82.2772756623 263 9.21354758968 263 84 c 3
 263 115.157847455 203.100548017 165.216866366 150.952148438 175.6875 c 1
 218 208.62890625 l 1
82.71484375 168.889648438 m 1
 166.167384212 188.29541443 246.119140625 228.37237333 246.119140625 296.212890625 c 3
 246.119140625 336.532144622 180.346289995 376.62890625 155.404296875 376.62890625 c 3
 125.414428478 376.62890625 90.0675250174 347.185146907 76.9287109375 297.7421875 c 1
 49 303.130859375 l 1
 54.0909562444 332.82877 58.6160843617 349.2571675 65.4052734375 378.955078125 c 1
 104.037614622 399.783314389 176.256714898 422 208.286132812 422 c 3
 235.152934118 422 319.071289062 365.761252747 319.071289062 322.68359375 c 3
 319.071289062 234.668980326 188.457740018 161.579945708 93.0478515625 146.663085938 c 1
 82.71484375 168.889648438 l 1
EndSplineSet
EndChar
StartChar: theta.pcap
Encoding: 57530 57530 484
Width: 568
Flags: HW
LayerCount: 2
Back
SplineSet
369.122279264 253.990443451 m 0
 375.577676272 253.990443451 381.11992619 248.451415669 381.11992619 241.992796524 c 0
 381.11992619 241.08044647 381.016649851 240.168096415 380.810097172 239.274878788 c 0
 375.665942235 217.02946471 369.971231006 188.319406875 367.166547542 166.112218016 c 0
 366.448700211 160.42837831 361.291776224 155.628352631 355.264081604 155.628352631 c 0
 348.808684596 155.628352631 343.266434677 161.167380412 343.266434677 167.625999557 c 0
 343.266434677 168.131679307 343.298161673 168.637359057 343.361615666 169.139781098 c 0
 344.387785503 177.264886007 345.749335184 186.046003544 347.309741559 195.002353074 c 1
 210.849843783 195.002353074 l 1
 208.586682509 185.129284222 206.035680232 175.265465114 203.206926194 165.299746338 c 0
 201.852154974 160.526878569 197.088108468 156.593187094 191.666624792 156.593187094 c 0
 185.211227784 156.593187094 179.668977866 162.132214875 179.668977866 168.59083402 c 0
 179.668977866 169.69930078 179.821426374 170.80776754 180.126323391 171.881921702 c 0
 187.30359483 197.167495409 192.533575468 221.402005818 195.777726819 246.89539111 c 0
 196.500272656 252.573344272 201.654483884 257.367966786 207.6787615 257.367966786 c 0
 214.134158508 257.367966786 219.676408426 251.828939005 219.676408426 245.37031986 c 0
 219.676408426 244.860852288 219.644204344 244.351384716 219.579796181 243.845248609 c 0
 218.512025637 235.454429891 217.238281929 227.19252945 215.764183869 218.997646926 c 1
 351.853213756 218.997646926 l 1
 353.681595474 227.993862415 355.589211913 236.731106642 357.434461355 244.710714261 c 0
 358.603887067 249.767785734 363.486347658 253.990443451 369.122279264 253.990443451 c 0
EndSplineSet
Fore
SplineSet
424.240234375 253.5 m 1
 417.741210938 227.764648438 408.622070312 183.744140625 406.080078125 156.299804688 c 1
 381.239257812 154.700195312 l 1
 387.145495297 191.899187225 389.44399503 195 377 195 c 0
 370.307821627 195 318.446414788 195 280 195 c 3
 241.330089157 195 185.388485394 195.161132812 178 195 c 0
 169.134104219 194.682075539 171 194 160.580078125 156.299804688 c 1
 135.75 157.099609375 l 1
 146.221679688 191.1328125 153.307617188 222.559570312 156.919921875 256.700195312 c 1
 181.760742188 258.299804688 l 1
 175.999999998 219 173.19730235 219 184 219 c 0
 189.412042414 219 204.643048866 219 284 219 c 3
 357.882561152 219 375.112925489 218.969726562 380 219 c 0
 395.288008218 219.16162913 391.077579855 219.053344384 399.91015625 254.299804688 c 1
 424.240234375 253.5 l 1
EndSplineSet
Refer: 359 57361 N 1 0 0 1 0 0 2
EndChar
StartChar: g.smcp
Encoding: 57677 57677 1544
Width: 581
VWidth: 1047
Flags: HW
LayerCount: 2
Fore
SplineSet
53.6669921875 222.858496094 m 0
 75.8366210937 422.528808594 282.203515625 500.2 407.750195313 500.2 c 1
 449.47421875 500.2 477.540136719 487 508.607421875 478.6 c 0
 521.480273438 474.5 526.797167969 480.3 535.976367187 494 c 1
 555.6359375 493 l 1
 541.900878906 370.3 l 1
 518.2609375 365.4 l 1
 501.126757812 439 433.345507813 469.2 379.182226563 469.2 c 3
 237.85078125 469.2 150.135058594 333.793554687 140.985742187 232.234960938 c 1
 127.690234375 119.926953125 197.944140625 24.4 304.932617188 24.4 c 1
 337.461425782 24.4 358.44296875 29.3442382812 393.493554688 47.9 c 0
 404.433886719 52.8 410.540136719 68.1 413.550976562 80.6 c 0
 419.280761718 105.805078125 429.222851562 140.942382812 436.930664062 172.8 c 0
 442.555664062 200.3 441.071679688 217.8 410.235742188 221.8 c 0
 387.917285156 223.8 373.417285156 223.8 350.809375 224.1 c 1
 357.231054687 249.1 l 1
 425.316796875 241.9 516.058203125 242.9 551.006445312 247.5 c 1
 548.56484375 228.4 l 1
 529.141015625 222.9 521.04375 213.7 515.583984375 192.7 c 0
 504.208691406 148.301660156 494.648828125 108.568652344 485.197460938 74.9 c 0
 480.048925782 56.1 483.503320312 50.1 496.035546875 37.2 c 1
 490.917578125 21.1 l 1
 435.828222656 13.2 308.497460938 -6.9 271.672265625 -6.9 c 1
 129.721484375 -6.9 36.20078125 84.9158203125 53.6669921875 222.858496094 c 0
EndSplineSet
EndChar
StartChar: p.smcp
Encoding: 57686 57686 1553
Width: 490
VWidth: 1047
Flags: HW
LayerCount: 2
Fore
SplineSet
229.341601562 197.6 m 1
 292.511914062 197.6 366.06015625 231.260351563 385.612597657 318.3 c 1
 399.691894531 380.858984375 377.433886719 432.251367188 353.181347656 445.8 c 0
 329.788476563 458.856445312 298.012109375 461.5 258.523632813 461.5 c 1
 252.223632813 461.5 246.148535156 449.826269531 244.161035156 439.4 c 0
 233.982910156 385.997363281 210.866796875 296.660839843 192.735351562 204.7 c 1
 203.8765625 199.999804687 213.389453125 197.6 229.341601562 197.6 c 1
116.207714844 487.5 m 1
 134.166601563 486.2 163.931152344 484.6 190.831152344 484.6 c 1
 238.410351563 484.6 273.098730469 492.1 319.977636719 492.1 c 1
 433.154003906 492.1 485.753027344 401.119042969 468.131835938 323.6 c 1
 446.298535156 226.254003906 344.113867187 170 219.721777344 170 c 1
 204.021777344 170 199.249316407 172.2 186.730371094 174.8 c 1
 177.511035157 128.666210938 166.842773437 81.7438476564 165.333203125 61.6 c 0
 163.041308594 28.3 177.198925782 33.8 225.526953125 28.1 c 1
 214.459960938 -7 l 1
 181.298730469 -0.917578125 153.511425781 2.79892578125 124.211132812 2.79892578125 c 0
 93.1833984375 2.79892578125 60.5274414062 -1.3134765625 18.9815429687 -11 c 1
 15.4973632812 16.9 l 1
 71.2599609375 39.0102539062 79.5119140626 35.9616210937 88.2048828125 67.3 c 0
 97.34609375 100.725976562 106.658300781 139.634570312 115.668457031 180.965332032 c 0
 133.058984375 260.294824219 150.473730469 348.882226563 162.349316407 424.5 c 0
 165.477246093 446.1 153.421777344 455 106.766015625 456 c 1
 116.207714844 487.5 l 1
EndSplineSet
EndChar
StartChar: w.smcp
Encoding: 57693 57693 1560
Width: 727
VWidth: 1047
Flags: HW
LayerCount: 2
Fore
SplineSet
793.9 492.8 m 1
 791.92890625 465.2 l 1
 730.125683594 446.6 720.383984375 415.907617188 663.834960938 326.6 c 1
 530.863867187 109.861132813 494.26875 55.73125 476.313574218 29.4 c 0
 465.444824219 12.2590820312 457.973242187 4.9 452.203320313 -10.8 c 1
 426.554296875 -11.8 l 1
 428.83984375 2 430.732910157 13.2625976562 426.401074218 41.2 c 0
 414.433105469 129.320996094 408.57890625 217.779003906 397.310253907 305.9 c 1
 303.779296875 149.534082032 260.831347657 76.3689453125 225.525390625 16.7 c 0
 217.63984375 2.3 212.847070312 -5.5 210.00859375 -15.4 c 1
 183.70859375 -15.4 l 1
 184.49609375 -2.4 186.7859375 11.9151367187 181.242871093 55.4 c 0
 158.809472656 243.759082031 131.251269531 397.611035156 123.979492188 410.9 c 0
 121.90078125 423.390039063 117.616699219 434.513769531 107.999609375 447.3 c 0
 96.3134765624 462.793652344 76.7603515625 465.935351562 57.8779296875 467.1 c 1
 67.0947265625 494.7 l 1
 89.1409179686 488.406347656 124.885546875 485.470996094 162.144921875 485.470996094 c 0
 199.338476563 485.470996094 238.087597656 488.239257813 265.397363282 493.3 c 1
 264.575292968 466.7 l 1
 228.771875 466.7 214.860253906 456.906347656 208.660449218 435.6 c 1
 206.118652343 427.300683594 206.315527344 414.297558594 207.48671875 406.1 c 1
 207.870214843 411.196875 249.097460937 99.4782226562 250.718945313 110.4 c 1
 262.493164062 126.272363282 367.374804687 314.676367187 389.415917968 355.8 c 1
 378.547460937 423.353613282 369.852832032 436.487890625 367.755859375 442 c 1
 356.877539063 462.8 332.386425781 463.5 317.975292968 468.5 c 1
 327.350976563 491.2 l 1
 354.731542969 487.264746094 387.369921875 484.986523438 421.364453125 484.986523438 c 0
 458.160742187 484.986523438 496.578027344 487.662597656 531.549023437 493.8 c 1
 528.577929688 466.2 l 1
 526.077929688 465.9 499.711914062 465.338574219 491.977929688 465.6 c 0
 467.077929687 464.1 458.378417969 447.052832031 459.909472657 433.3 c 1
 459.299707032 430.432324218 490.631835938 97.362109375 489.265332032 107.4 c 1
 554.380957031 202.546386719 595.934765625 277.235253906 643.228125 368.2 c 0
 675.861328125 431.1234375 686.077929688 464.872851562 606.179882812 464.2 c 1
 611.553613282 489.2 l 1
 629.750878906 486.717480469 654.316308593 485.209863281 682.325390625 485.209863281 c 0
 716.2140625 485.209863281 755.147558593 487.430273438 793.9 492.8 c 1
EndSplineSet
EndChar
StartChar: uni01EB.smcp
Encoding: 57816 57816 1571
Width: 636
VWidth: 1047
UnlinkRmOvrlpSave: 1
Flags: HW
LayerCount: 2
Fore
SplineSet
332.630859375 0.54296875 m 1
 280 -19.3981976827 235.771484375 -81.1966057221 235.771484375 -132 c 3
 235.771484375 -178.376408535 257.134509604 -205.872070312 284.166015625 -205.872070312 c 3
 299.840568725 -205.872070312 318.660571522 -195.18359375 337.97265625 -171.599609375 c 1
 337.97265625 -171.599609375 349.081054688 -181.926757812 351.771484375 -190 c 1
 328.083847314 -242.788085938 288.174993147 -266 251.771484375 -266 c 3
 206.572780919 -266 166.561523438 -226.657902331 166.561523438 -160.834960938 c 3
 166.561523438 -120.204435223 210 -13.2333900301 325.931640625 21.76171875 c 1
 332.630859375 0.54296875 l 1
EndSplineSet
Refer: 1552 57685 N 1 0 0 1 0 0 2
EndChar
StartChar: Uni0327
Encoding: 58030 58030 1336
Width: 0
VWidth: 1159
Flags: HW
AnchorPoint: "Bottom" -193.916 -15 mark 0
LayerCount: 2
Back
SplineSet
-203.391601562 -82.7867094265 m 0
 -219.506695456 -82.7867094265 -227.997070314 -87.7012533219 -242.795956921 -94.8153634438 c 1
 -253.561073348 -73.3637032795 l 1
 -232.258747243 -62.2283964522 -221.422335525 -55.4611360909 -212.408829556 -46.4476301216 c 0
 -202.897511715 -36.9363122811 -194.121093195 -23.3537062121 -178.197357754 2.32973804823 c 1
 -157.796035385 -10.3190818206 l 1
 -172.118538866 -33.419893891 -181.124615759 -47.95704682 -191.904859421 -59.7252723236 c 1
 -180.772254004 -61.5692458848 -169.740771582 -66.2670467828 -161.108602157 -74.8992162071 c 0
 -152.35140541 -83.6564129546 -146.90945708 -96.1417837394 -146.90945708 -111.212132313 c 0
 -146.90945708 -115.525490731 -147.361968846 -120.025048418 -148.272493723 -124.709153042 c 0
 -160.541810052 -187.827429937 -233.225935004 -236.738685831 -299.103003937 -236.738685831 c 0
 -311.249307936 -236.738685831 -323.212236243 -235.076365121 -334.504452657 -231.447273107 c 1
 -327.134098701 -208.605103291 l 0
 -318.512759891 -211.375828778 -309.045488489 -212.743391978 -299.103003937 -212.743391978 c 0
 -245.87096863 -212.743391978 -181.87724213 -171.81765317 -171.824570084 -120.102682201 c 0
 -171.179600636 -116.784701058 -170.904750933 -113.832945215 -170.904750933 -111.212132313 c 0
 -170.904750933 -91.7360579626 -185.191295881 -82.7867094265 -203.391601562 -82.7867094265 c 0
EndSplineSet
Fore
SplineSet
-346.206054688 -226.84375 m 1
 -338 -205 l 1
 -275 -229.698795181 -190.815312512 -187.573911781 -172 -123 c 0
 -165.210500954 -99.698526152 -182 -56.3602559195 -260.91015625 -104.141601562 c 1
 -260.98046875 -77.6220703125 l 1
 -255.354492188 -73.583984375 -249.497677008 -70.3638259733 -243.70703125 -67.529296875 c 0
 -203.799791436 -47.9946478545 -208 -39 -175 6 c 1
 -146 11 l 1
 -146 11 -171 -37 -192 -60 c 1
 -160 -64 -141.650662679 -90.6412053262 -148.272460938 -124.708984375 c 0
 -163.697265624 -204.06640625 -274.20703125 -260.771484375 -346.206054688 -226.84375 c 1
EndSplineSet
EndChar
StartChar: uniE31C
Encoding: 58140 58140 1355
Width: 575
VWidth: 1159
Flags: HW
AnchorPoint: "Top" 351.413 465 basechar 0
AnchorPoint: "Bottom" 237.413 -15 basechar 0
LayerCount: 2
Fore
SplineSet
434.801757812 367 m 0
 412.116210938 367 380.893554688 345 349.893554688 261 c 1
 376.346679688 259.75 460.9765625 263.895507812 471.98046875 265 c 0
 482.987304688 266.104492188 493.666992188 270 493.666992188 278 c 0
 493.666992188 341 469.9140625 367 434.801757812 367 c 0
460.620117188 421 m 0
 515.354492188 421 553.56640625 362 555.631835938 312 c 0
 555.631835938 298 557.697265625 279 563.893554688 274 c 1
 558.729492188 247 l 1
 508.893554688 240 421.893554688 238 340.729492188 234 c 1
 331.907226562 217.3984375 322.741210938 162.30859375 322.741210938 139.0625 c 0
 322.741210938 74.556640625 354.178710938 36 395.557617188 36 c 0
 440.998046875 36 471.98046875 54 500.896484375 77 c 1
 516.387695312 60 l 1
 479.208984375 23 431.703125 -15 361.477539062 -15 c 0
 300.69140625 -15 267.20703125 19.046875 254.48046875 68.380859375 c 1
 205.2421875 18.91796875 131.233398438 -26 93.8935546875 -26 c 0
 41.7431640625 -26 -4 8.220703125 -4 67.2998046875 c 0
 -4 126.043945312 24.9443359375 165.0625 40.8935546875 184 c 0
 65.6064453125 213.342773438 99.3369140625 232.192382812 119.893554688 244 c 0
 159.715820312 266.875 267.693359375 264.21484375 296.965820312 291.489257812 c 1
 345.438476562 371.9140625 418.6015625 421 460.620117188 421 c 0
268.809570312 233.120117188 m 1
 252.690429688 234.677734375 224.127929688 236 216.893554688 236 c 0
 185.893554688 236 139.669921875 227.30859375 118.893554688 212 c 0
 99.8935546875 198 67.220703125 158.080078125 67.220703125 113.540039062 c 0
 67.220703125 66.201171875 97.7421875 39 148.893554688 39 c 0
 176.545898438 39 220.91015625 67.646484375 250.041992188 92.287109375 c 1
 248.952148438 101.318359375 248.423828125 110.700195312 248.423828125 120.344726562 c 0
 248.423828125 161.021484375 256.129882812 198.90234375 268.809570312 233.120117188 c 1
EndSplineSet
EndChar
StartChar: f_j
Encoding: 58320 58320 275
Width: 473
VWidth: 1159
UnlinkRmOvrlpSave: 1
Flags: HW
LayerCount: 2
Fore
SplineSet
429 413 m 3
 459 413 457.970596034 392.588344482 456 365 c 0
 455.5 358 452.71631023 346.822252396 451 341 c 0
 439.837582643 303.133645737 408.062795301 212.493895566 404 196 c 0
 384.856520888 118.282438117 363.506718572 27.2911561038 352 -25 c 0
 338.660165456 -85.6215721893 323 -139 304 -180 c 0
 277.608374706 -236.950349318 245.56460041 -266.56238184 229 -280 c 0
 216.395728247 -290.224900499 176.237113402 -319.441860465 154 -332 c 1
 140 -312 l 1
 195.680412371 -277.294117647 239.100347253 -248.19030929 267 -200 c 0
 289 -162 308.562799376 -102.258670952 318 -64 c 0
 325.969597291 -31.6910333371 349.238960419 94.3500070138 382 205 c 0
 389.447313909 230.153207662 423.028219424 311.42930316 433 378 c 0
 433.578263536 381.860434579 434.333333333 387.615384615 427 388 c 1
 382.177124784 388 346 358 224 347 c 1
 217 370 l 1
 319.59223301 377.238095238 395.624767802 413 429 413 c 3
82 362 m 1
 127.403161665 363.973353795 179.117695171 367.1796875 230 371 c 1
 224 347 l 1
 174.274898831 343.242047991 120.765568795 340.296456474 80 338 c 1
 82 362 l 1
442 754 m 3
 486.797909408 754 548.975609756 707.958333333 571 669 c 1
 569.636363636 661.35 567.181818181 659.366666667 553 652 c 1
 532.113546974 690.672268908 474.695736123 730 442 730 c 3
 362.912316441 730 249.851043056 631.726190256 224 498 c 0
 201.470446634 381.455714599 112.049242424 -83.0000000001 78 -172 c 0
 53.6601118608 -235.62109375 17.4484197443 -278.947265625 -23 -323 c 1
 -24.7647058824 -323 -24.5882352941 -323 -32 -323 c 3
 -36.2 -323 -42.6 -325.4 -45 -326 c 1
 -47 -302 l 1
 -28 -299.140286498 17.0650709615 -239.222407795 46 -187 c 0
 79.798339561 -126 161.232827176 293.957823493 199 493 c 0
 225.184751097 631 306.803556544 693.271138004 317 701 c 0
 352.221587014 727.697817378 389.222222222 754 442 754 c 3
EndSplineSet
LCarets2: 1 240
Ligature2: "liga-1" f j
EndChar
StartChar: two.tabulartext
Encoding: 58370 58370 514
Width: 463
VWidth: 1159
Flags: HW
LayerCount: 2
Back
SplineSet
85.3447265625 367 m 1
 127.782299382 414.314453125 184.277718251 458 263.891601562 458 c 0
 350.659177357 458 409.650418665 404.912561435 392.823242188 335 c 0
 363.860868189 214 96.9290491077 78 33 25 c 1
 33 25 278.563440765 30.8979196339 330 20 c 0
 338.691515571 18.1708367599 350.281389392 56.5810649671 420.46484375 127 c 1
 437 110 l 1
 437 110 362.962708591 34.8335632884 348.303710938 -11 c 1
 313.131875956 5 226.620201286 2 141.952148438 2 c 0
 51.9521484375 2 -7.455078125 0 -12.455078125 0 c 1
 -14.7861328125 18 l 1
 54.8326666355 82.599609375 343.150442563 228.261295955 369 339 c 0
 384.827539063 406.8046875 320.722612847 434 263 434 c 3
 191.730783551 434 140.090375791 390 102.4921875 353 c 1
 85.3447265625 367 l 1
EndSplineSet
Fore
SplineSet
86.3447265625 367 m 1
 128.782299382 414.314453125 185.277718251 458 264.891601562 458 c 0
 351.659177357 458 410.562458861 404.933673862 393.823242188 335 c 0
 364.860868189 214 97.9290491077 78 34 25 c 1
 34 25 279.548559853 30.8281555962 331 20 c 0
 339.691515571 18.1708367599 351.281389392 56.5810649671 421.46484375 127 c 1
 438 110 l 1
 438 110 363.962708591 34.8335632884 349.303710938 -11 c 1
 314.131875956 5 227.620201286 2 142.952148438 2 c 0
 52.9521484375 2 -6.455078125 0 -11.455078125 0 c 1
 -13.7861328125 18 l 1
 55.8326666355 82.599609375 344.150442563 228.261295955 370 339 c 0
 385.827539063 406.8046875 321.722612847 434 264 434 c 3
 192.730783551 434 141.090375791 390 103.4921875 353 c 1
 86.3447265625 367 l 1
EndSplineSet
Substitution2: "pnum-1" two
Substitution2: "lnum-1" two.tabularlining
Substitution2: "numr-1" two.numerator
Substitution2: "dnom-1" two.denom
EndChar
StartChar: five.tabularlining
Encoding: 58383 58383 259
Width: 463
VWidth: 1159
Flags: HW
LayerCount: 2
Fore
SplineSet
217.672851562 580.5 m 1
 310.11091932 582.450195312 431.836886106 583.000014061 454.693359375 585.5 c 0
 481.97265625 589.759765625 500.939453125 615.610351562 516.883789062 635.5 c 1
 516.883789062 635.5 533.826171875 623.83984375 538.029296875 621.5 c 1
 498 572 469.535198474 561.116664419 453.611328125 560 c 0
 408.47053031 557.872070312 329.247144479 557 237 557 c 1
 237 557 210.713861582 468.758199441 190 399 c 1
 309.986308512 411 413.186727989 359.488885276 384.356445312 235.5 c 0
 351.845374049 91.404296875 154.23950888 -19 32.6513671875 -28 c 1
 32.6513671875 -28 37.0668035387 -8.387207031 36.173828125 -4 c 1
 147.552867337 10.454976303 324.137196141 101.446217519 360 239 c 0
 379.254143646 310 340.745856354 397 155 371 c 1
 172.660085117 419.579710145 199.395949875 503.866489955 217.672851562 580.5 c 1
EndSplineSet
Substitution2: "pnum-1" five.proportionallining
Substitution2: "onum-1" five.tabulartext
Substitution2: "numr-1" five.numerator
Substitution2: "dnom-1" five.denom
EndChar
StartChar: zero.small
Encoding: 58451 58451 1234
Width: 365
Flags: HW
LayerCount: 2
Fore
SplineSet
195.086914062 314.829101562 m 3
 144.28125 314.829101562 111.536132812 264.076171875 96.25390625 192.1796875 c 0
 76.2421875 98.029296875 98.150390625 25.33203125 164.448242188 25.33203125 c 3
 219.916015625 25.33203125 244.854492188 84.4677734375 260.271484375 156.99609375 c 0
 279.005859375 245.137695312 265.890625 314.829101562 195.086914062 314.829101562 c 3
222.412109375 343.704101562 m 3
 303.061523438 343.704101562 354.731445312 274.709960938 332.694335938 171.03515625 c 0
 309.123046875 60.1416015625 223.201171875 -1.9560546875 140.831054688 -1.9560546875 c 3
 58.5224609375 -1.9560546875 3.7509765625 64.3994140625 26.353515625 170.734375 c 0
 48.873046875 276.678710938 141.163085938 343.704101562 222.412109375 343.704101562 c 3
EndSplineSet
EndChar
StartChar: uniFB04
Encoding: 64260 64260 1162
Width: 725
VWidth: 1159
UnlinkRmOvrlpSave: 1
Flags: HW
LayerCount: 2
Fore
SplineSet
66.3330078125 343.94140625 m 1
 237.600749351 356.48551322 423.926232991 372.008097358 609 388 c 1
 609.654115814 380.026511647 610.308730923 372.05352259 610.963867188 364.081054688 c 1
 425.903368871 348.090577595 239.511203681 332.561719592 68 320 c 1
 67.4438623638 327.979995176 66.8881914256 335.960457051 66.3330078125 343.94140625 c 1
631.58984375 413 m 0
 581.247834438 192.824398175 553.528440561 85.8340117153 552.384765625 50 c 0
 551.729492188 29.46875 553.15234375 14 576 14 c 3
 602.807617188 14 653 46 686.211914062 97 c 1
 704.0859375 81 l 1
 680.96484375 44 625.932617188 -10 576.05859375 -10 c 3
 535.932617188 -10 531.760340567 11.5313121523 529.006835938 37 c 0
 527.3671875 52.166015625 529.53559098 78.0946319873 533.430664062 96 c 0
 549.576171875 170.219726562 584.412595053 310.227888874 605.114257812 401 c 0
 658.181640625 633.688476562 668.282226562 669.610351562 678 717 c 1
 679.16796875 725 l 1
 680.33984375 731.612304688 680.66796875 728.0078125 682 734 c 1
 684.571289062 735.875 690.903320312 737.482333097 697.046875 739 c 1
 701.7421875 736.714285714 703.545898438 733.857142857 706 731 c 1
 700.671875 701.434570312 689.774981561 659.804513967 683.115234375 630 c 0
 670.155273438 572 657.235351562 525.163085938 631.58984375 413 c 0
642 754 m 3
 658.886178862 754 697.56097561 743.708333333 709 735 c 1
 707.469951923 728.414092093 705.515024038 723.099772135 702 714 c 1
 685.267755682 721.93266369 654.36381392 730 642 730 c 3
 558.196289062 730 442.475032164 632.082208405 417 498 c 0
 396.476502756 389.979102636 311.695744671 -57.255430376 284 -123 c 0
 251.117600453 -201.056727925 169.925603693 -246.906844992 22 -257 c 1
 20.2352941176 -257 20.4117647059 -257 13 -257 c 3
 13 -257 2.4 -257.8 0 -258 c 1
 -2 -236 l 1
 114.409448819 -237.244897959 227.374337759 -192.645602272 262 -114 c 0
 286.805637219 -57.6587157463 356.97487483 315.912776723 392 493 c 0
 419.294274449 631 500.000195872 693.765327181 511 701 c 0
 551.592773438 727.698242188 585.844726562 754 642 754 c 3
422 714 m 3
 444.93495935 714 497.463414634 697.75 513 684 c 1
 512.015151515 675.9 510.242424242 673.8 500 666 c 1
 478.248157248 677.899159664 438.072727273 690 422 690 c 3
 338.196078431 690 216.852386976 592.009962175 191 458 c 0
 169.859254718 348.413582384 86.0080154911 -88.3354842609 54 -172 c 0
 29.6601118608 -235.62109375 -6.55158025568 -278.947265625 -47 -323 c 1
 -48.7647058824 -323 -48.5882352941 -323 -56 -323 c 3
 -60.2 -323 -66.6 -325.4 -69 -326 c 1
 -71 -302 l 1
 -52 -299.140286498 -6.93492903856 -239.222407795 22 -187 c 0
 53.8102019398 -129.588235294 129.003847742 265.947253052 166 453 c 0
 193.294274449 591 278 653.765346023 289 661 c 0
 329.592956083 687.697817378 365.844444444 714 422 714 c 3
EndSplineSet
LCarets2: 2 478 240
Ligature2: "liga-1" f f l
EndChar
StartChar: uniFB27
Encoding: 64295 64295 1170
Width: 812
Flags: HW
AnchorPoint: "Top" 245.92 619.44 basechar 0
LayerCount: 2
Fore
SplineSet
120.639648438 567.240234375 m 1
 190.625459876 572.97753847 326.277408018 570.543823948 432.999996645 566.15060587 c 0
 655.298241455 556.999734621 760.959960938 436.019646968 760.959960938 187.919921875 c 3
 760.959960938 147.3203125 759.799804688 109.040039062 757.48046875 77.7197265625 c 1
 738.919921875 44.080078125 718.040039062 9.2802734375 702.959960938 -19.7197265625 c 1
 680.919921875 -4.6396484375 l 1
 688.734268166 66.321027164 694.373343907 132.453547118 694.373343907 189.66267173 c 3
 694.373343907 334.974392621 614.371637565 417.779511332 465.000005579 424.366754363 c 0
 334.433140236 430.124712968 204.624828436 432.508770125 134.559570312 431.51953125 c 1
 98.599609375 436.16015625 42.919921875 438.48046875 24.3603515625 474.440429688 c 1
 58 602.040039062 l 1
 87 596.240234375 l 1
 120.639648438 567.240234375 l 1
EndSplineSet
EndChar
